<?xml version="1.0" standalone="no"?>
<!DOCTYPE svg PUBLIC "-//W3C//DTD SVG 1.1//EN" "http://www.w3.org/Graphics/SVG/1.1/DTD/svg11.dtd">
<svg xmlns="http://www.w3.org/2000/svg"><metadata>This SVG WebFont was generated by YouWorkForThem.
Copyright (c) 2016 by Set Sail Studios. All rights reserved.</metadata><defs><font horiz-adv-x="319" id="ywftsvg"><font-face ascent="1638" bbox="-512.857 -922 1496.05 2235.57" cap-height="1360" descent="-410" font-family="" font-stretch="normal" font-weight="400" panose-1="0 0 0 0 0 0 0 0 0 0" underline-position="0" underline-thickness="0" unicode-range="U+000D-2212" units-per-em="2048" x-height="764"/><missing-glyph horiz-adv-x="428"/><glyph glyph-name=".notdef" horiz-adv-x="428"/><glyph glyph-name="glyph1" horiz-adv-x="0"/><glyph glyph-name="glyph2" horiz-adv-x="681"/><glyph glyph-name="glyph3" horiz-adv-x="0"/><glyph glyph-name="glyph3" horiz-adv-x="0"/><glyph glyph-name="space" horiz-adv-x="428" unicode=" "/><glyph d="M217 1419q14 -84 -6 -252q-8 -51 -17.5 -145t-11.5 -115q-16 -289 -45 -540q-2 -18 -25.5 -15.5t-23.5 21.5q14 109 49 540q10 143 25 254q14 102 14 213q-4 4 -4 9v30q4 14 22.5 16t22.5 -16zM133 195q12 -12 4 -19q0 -4 -3 -7t-6 -5t-5 -4q-10 0 -14 6h-7q-14 0 -18 10 q-6 4 -6 14q4 2 6 7.5t4 7.5q6 10 25 10q20 -12 20 -20z" glyph-name="exclam" horiz-adv-x="294" unicode="!"/><glyph d="M172 1311q2 0 10 -15q0 -59 -24 -118q-8 -14 -27.5 -9t-17.5 23q20 70 24 108q0 6 6 11q0 8 10.5 8t18.5 -8zM246 1339q6 4 12 4t10 -4t2 -8v-10q0 -2 -2 -8t-2 -13q-10 -25 -10 -43q-6 -35 -14 -90q-6 -23 -33 -14q-14 4 -12 14q6 57 20 105q10 49 14 53q0 8 11 14h4z " glyph-name="quotedbl" horiz-adv-x="348" unicode="&quot;"/><glyph d="M629 573q18 -4 18 -19t-18 -15q-80 8 -191 -11q-47 -246 -114 -544q-2 -12 -14.5 -14.5t-21.5 5t-7 19.5q16 84 53 259t55 267l-104 -24q-25 -10 -49 -11q-29 -147 -43 -217q-39 -221 -109 -344q-16 -16 -35 -4q-43 14 -24 60q0 10 14 11t24 -7q53 119 95 348q4 23 14 70 t14 69q-10 -6 -39 -6q-6 -2 -45 -11.5t-57 -17.5q-25 -8 -31 13q-4 8 6 16q25 25 113 35q4 0 27.5 6t36.5 8q20 68 24 113q-6 -2 -24.5 -4t-24.5 -5q-10 -2 -31.5 -7t-31.5 -9q-6 0 -12.5 -2t-12.5 -2h-21v4q-8 0 -11 6t1 10l6 5l11 10q4 0 13 2t15 2q20 6 70 14 q10 4 31.5 9.5t31.5 7.5q2 16 9.5 48t9.5 50q49 209 65 324q8 70 15 102q4 16 23.5 19t19.5 -19v-4q-4 -4 -4 -21q0 -8 -2 -22.5t-2 -20.5q-4 -14 -9.5 -47t-7.5 -47q-18 -117 -67 -354q8 4 27.5 6t25.5 4q27 6 94 14q6 20 18.5 75.5t20.5 82.5q20 98 35 148q4 12 9 38.5 t11 49t15 41.5q6 10 19 5t13 -16q0 -20 -8 -69q-12 -29 -20 -68q-20 -98 -35 -147q-4 -20 -13.5 -65.5t-15.5 -67.5q6 0 11.5 2t7.5 2q14 0 38.5 2t44 2t35.5 -4q18 -8 13.5 -23.5t-23.5 -11.5q-88 0 -133 -4q-23 -96 -25 -103q81 10 183 4zM274 535q55 14 123 24q0 2 3 7 t3 7q6 47 19 89q-14 -2 -46 -7.5t-46 -7.5q-6 -2 -26.5 -4t-33.5 -6q-4 -18 -12 -55t-12 -58q2 2 13 4.5t15 6.5z" glyph-name="numbersign" horiz-adv-x="765" unicode="#"/><glyph d="M569 1124q31 -10 47.5 -27.5t-2.5 -35.5q-8 -12 -22 -6t-6 20q10 10 -11 10q-20 8 -63 9q-55 0 -80 -4q-2 -27 -9 -83.5t-9 -84.5q-41 -254 -60 -383q-6 -43 -14 -133q0 -4 4 -8.5t43 -39t53.5 -50t39 -48.5t31.5 -62.5t1 -62.5q-12 -80 -82 -131t-160 -59 q-10 -96 -10 -119q12 -8 6 -14q0 -14 -16 -64q0 -18 -24.5 -18t-24.5 18q2 20 10 87t10 104q-10 6 -35 6q-106 20 -127 98q-31 94 78 211q10 16 29 2q10 -6 2 -16q-98 -156 -45 -217q37 -43 102 -43q41 274 60 411q-135 127 -176 203q-88 160 -39 299q55 168 313 231 q6 18 6 64q0 33 -16 78q-6 14 15.5 18t29.5 -8q29 -39 14 -148q94 12 137 -4zM340 342l-10 10q-10 -61 -27.5 -184t-28.5 -184h11q113 18 153 94q51 70 15 137q-25 39 -113 127zM358 913q20 102 25 166q-29 -4 -78 -24q-115 -41 -168 -123q-72 -113 -10 -270 q39 -96 168 -216q2 8 4 37t6 45q6 66 25.5 192.5t27.5 192.5z" glyph-name="dollar" horiz-adv-x="638" unicode="$"/><glyph d="M860 1311q10 6 23.5 5t20.5 -9.5t1 -20.5q-51 -72 -123 -137q-123 -154 -389 -565l-55 -88t-59.5 -95.5t-54.5 -88t-57 -95.5t-49 -89t-52.5 -99t-44 -92.5t-41.5 -100.5q31 -8 16 -24q-12 -16 -41 -35q-12 -4 -25.5 4t-7.5 20q0 10 4 15q47 133 127 285.5t134.5 239.5 t166.5 261q197 315 305 463q-29 -16 -84 -25q8 -23 5 -34q-12 -63 -88 -123q-88 -61 -123 -15q-23 23 -4 64q6 55 49 98q41 55 82 55q10 4 24 5l6 -5q74 -29 191 64q4 4 10 9t9 9t5 7q25 29 70 80t49 57zM516 971l7 14t7 16q-14 0 -14 11q0 29 -4 39h-6q-14 0 -35 -21 q-31 -20 -57 -84q-10 -25 -11 -43q0 -14 5 -14h10q67 31 98 82zM487 465q68 -12 43 -117q-20 -115 -92 -133q-59 -20 -90 18q-20 29 -8 99q12 59 57 114q45 53 84 54q10 0 15.5 -11.5t-4.5 -17.5zM438 258q49 51 49 133q0 20 -6 31l-4 8h-6h-8v-4h-10q0 -4 -11 -4 q-6 -10 -14 -10q0 -6 -6 -6q-35 -70 -39 -93q0 -4 -1 -17t-1 -21.5t4 -15.5t12 -9q14 -6 41 8z" glyph-name="percent" horiz-adv-x="948" unicode="%"/><glyph d="M692 471q-31 -37 -93 -101.5t-83 -86.5q-10 -4 -24 -19q43 -86 77 -133q16 -4 20.5 -15.5t-9.5 -19.5q-14 -4 -27.5 0t-26 17.5t-18.5 21.5t-19 29l-12 20q-4 10 -11 25.5t-9 19.5q-18 -18 -51 -50t-52 -48q-125 -113 -186 -147q-119 -82 -172 -29q-23 23 -28 51.5 t13.5 71.5t24.5 56t33 56q98 168 276 437q-6 27 -14 75t-10 58q-61 453 127 684q55 66 126.5 104.5t129.5 -6.5q37 -33 49 -123q6 -82 -21 -186q-45 -154 -182 -375q-25 -39 -76 -117.5t-75 -117.5q18 -80 34 -138q12 -29 34 -88t34 -90q61 53 115 115q59 53 88 92 q12 14 28 35q4 0 11 10v0v0q0 20 28 14q29 -8 4.5 -42.5t-53.5 -59.5zM713 559zM324 913q10 -121 30 -227q20 31 64.5 101.5t68.5 109.5q143 223 177 379q23 125 4 186q-6 31 -26.5 48.5t-51.5 11.5q-61 -16 -133 -109q-45 -49 -84 -151q-55 -163 -49 -349zM379 215l59 59 q-2 4 -15 35t-20 47q-43 98 -73 213q-6 -12 -23.5 -39.5t-25.5 -40.5q-131 -193 -207 -329q-53 -94 -54 -142q0 -45 29 -45q25 0 84 35q23 14 98 74q25 23 74 66.5t74 66.5z" glyph-name="ampersand" horiz-adv-x="845" unicode="&amp;"/><glyph d="M162 1300q4 10 21.5 10.5t17.5 -14.5q0 -20 -25 -69q-8 -10 -20.5 -30.5t-18.5 -29.5q-18 -14 -39 0q-12 8 0 21q39 49 64 112z" glyph-name="quotesingle" unicode="'"/><glyph d="M211 1262q-86 -197 -109 -394q-27 -266 -8 -432q20 -217 103 -432q8 -20 27.5 -60t25.5 -59q6 -12 16 -29.5t15 -23.5v-35q-4 -6 -15.5 -8t-18.5 3t-5 15v0v0q0 4 -6 9q0 10 -11 24q-14 43 -32 70q-174 352 -148 782q27 494 246 776q14 14 35 0q12 -8 4 -20 q-76 -98 -119 -186zM242 -193z" glyph-name="parenleft" horiz-adv-x="421" unicode="("/><glyph d="M291 1149q102 -330 39 -727q-72 -379 -260 -670q-8 -10 -25.5 -5t-15.5 20q18 43 41 65q104 172 161 363q113 401 64 743q-35 201 -102 338q-20 49 -41 80q-4 6 -11.5 14t-17.5 18.5t-14 16.5q-53 74 0 82q8 4 15 -1t3 -13q-14 -14 31 -60q43 -59 49 -67q49 -91 84 -197z " glyph-name="parenright" horiz-adv-x="428" unicode=")"/><glyph d="M358 1286zM334 1311q12 2 19 -2t8 -10.5t-3 -12.5v0h-4v-4q-6 0 -10 -6q-2 -2 -20 -14q-10 -8 -26.5 -22.5t-27.5 -22.5q-2 -2 -5 -4.5t-9 -5.5l-10 -5v0q2 -8 8 -22l6 -13q39 -66 39 -67q8 -16 -18 -19q-18 -2 -25 9l-6 10q-2 4 -16.5 30.5t-22.5 36.5v11 q-12 -12 -74 -64q-10 -10 -26.5 -3t-12.5 17l4 7q49 49 70 67l4 6q-2 2 -6 9.5t-8 9.5q-39 39 -39 59q0 10 4 10h6v4h14q12 -4 29 -24q12 -18 21 -25q4 25 24 74q0 14 10 31q12 16 37 4q12 -4 6 -14q-18 -47 -32 -105q18 10 49 41q29 29 43 29zM147 1300zM133 1296z" glyph-name="asterisk" horiz-adv-x="428" unicode="*"/><glyph d="M639 676q12 0 19.5 -9.5t0.5 -19.5q-12 -23 -59 -35q-10 -2 -22.5 5.5t-8.5 15.5q-154 -14 -186 -21q0 -45 7 -131t7 -104q4 -16 -16 -19q-23 -2 -27 15q-20 111 -20 235q-137 -18 -240 -45q-16 0 -20 6q-16 6 -11 15q0 10 21 18q119 29 250 45q0 143 20 207 q2 18 22.5 14t20.5 -20q0 -14 -4 -25q-10 -133 -10 -172q125 25 256 25z" glyph-name="plus" horiz-adv-x="727" unicode="+"/><glyph d="M193 563q0 -10 -7 -10q-4 -14 -24 -43q-14 -23 -39 -45q-16 -8 -31.5 4t-3.5 27q23 8 45 53q2 2 8 9t10.5 11t11.5 7.5t13 1.5q13 -9 17 -15z" glyph-name="comma" horiz-adv-x="299" unicode=","/><glyph d="M481 618q35 -18 -4 -49q-8 -6 -21.5 -3t-13.5 18v0h-20h-39q-29 -6 -84 -6q-109 -8 -172 -15q-20 -4 -25 19q-4 16 17 16q164 20 246 20q25 4 67.5 4t48.5 -4z" glyph-name="hyphen" horiz-adv-x="638" unicode="-"/><glyph d="M152 578v-9q0 -6 -5 -10l-10 -6h-14h-10q-4 6 -4 10q-6 4 -7 21q16 16 35 10l6 -6q5 -4 9 -10zM137 559z" glyph-name="period" horiz-adv-x="225" unicode="."/><glyph d="M432 1468q27 -33 0 -157q-6 -41 -23.5 -112t-19.5 -81q-72 -264 -94 -377q-8 -31 -78 -295t-98 -403q8 -12 8 -14q-2 -8 -10 -28.5t-8 -31.5q-10 -23 -37 -16q-16 6 -13 20q25 152 98.5 438.5t84.5 329.5q23 96 98 373q6 31 20.5 91.5t22.5 90.5q0 39 14 88q0 49 -8 78 q-4 14 14 17q21 1 29 -11z" glyph-name="slash" horiz-adv-x="442" unicode="/"/><glyph d="M516 872q10 -123 -39 -344q-43 -186 -112 -309q-76 -135 -179 -166q-51 -16 -95 3.5t-62 70.5q-25 80 -4 246q14 125 53 264q39 176 115 309q14 18 28 41q-39 0 -24 29q29 33 60.5 56.5t75.5 32.5t81 -20q82 -55 102 -213zM446 618q43 231 0 349q-35 82 -77 98 q-45 6 -95 -35h17h4q16 -12 4 -39q-6 -14 -25 -4v-6q-72 -82 -137 -305q-41 -172 -53 -240q-10 -55 -15.5 -101t-5.5 -124t31 -111.5t92 -7.5q92 41 162 197q71 161 98 329zM291 1030z" glyph-name="zero" horiz-adv-x="575" unicode="0"/><glyph d="M285 1247q4 6 15 8t20.5 -4t9.5 -18q-20 -150 -70 -326q-63 -246 -78 -344q-27 -150 -69 -344q-23 -143 -60 -348q-2 -12 -15 -16.5t-24.5 1t-9.5 19.5q18 131 66 344q10 68 32.5 186.5t30.5 163.5q16 98 78 328q31 127 55 252v-6l-10 -10q-10 -10 -14 -12.5t-13.5 -6.5 t-15.5 -1t-12 11q-8 10 6 19q4 0 4 6l10 10q6 4 13.5 14.5t11.5 14.5q6 12 39 59zM211 1143l10 6q-4 0 -10 -6z" glyph-name="one" horiz-adv-x="305" unicode="1"/><glyph d="M594 233q14 -10 6 -18q-8 -20 -31 -35q-12 -6 -23 0t-11 16.5t10 18.5h6q-14 6 -32.5 6t-33 -3t-37 -9t-30.5 -8q-115 -45 -158 -66q-135 -53 -309 -166q-25 -12 -41 6q-8 8 2 19q328 426 461 678q72 141 90 211q31 102 18 161q-27 98 -112 84q-59 -12 -133 -77 q-20 -16 -52 -54.5t-51 -54.5q-8 -12 -23.5 -9t-15.5 19q-4 10 15 29q0 6 4 6q18 16 24 29q147 162 260 151q94 -6 129 -98q14 -55 -6 -166q-23 -82 -82 -203q-135 -272 -418 -639q106 63 254 129q25 8 85.5 30t93.5 30q84 24 141 -17z" glyph-name="two" horiz-adv-x="628" unicode="2"/><glyph d="M471 651q-80 -129 -147 -190q66 -12 94 -31q74 -47 74 -131q0 -121 -113 -238q-147 -135 -260 -92q-66 25 -88.5 87.5t-5.5 133.5q8 29 20 60t42 57.5t60 9.5q12 -6 10.5 -15t-11 -13t-19.5 0q-33 -18 -43 -80q-27 -72 -14 -127q6 -31 30.5 -55.5t57.5 -28.5 q70 -6 127 45q143 104 157 225q8 86 -39 119q-25 25 -70.5 32t-76.5 -7q-10 0 -14 -6q-12 -2 -22.5 4t-10.5 14t12 16q4 6 10 11q84 39 187 206q109 170 137 271q14 45 18.5 91t-15 91t-66.5 57q-98 29 -236 -77q-106 -82 -158 -172q20 -8 4 -25q-12 -23 -49 0q-12 12 -8 20 q31 66 107 142q66 66 163 123q152 72 236 6q104 -74 53 -262q-10 -35 -27.5 -73t-31 -63.5t-39 -70t-35.5 -64.5z" glyph-name="three" horiz-adv-x="575" unicode="3"/><glyph d="M698 524q0 -27 -30 -14q-4 -6 -19 -6q-10 -4 -59 -29q-96 -45 -162 -69q-43 -20 -88 -33q-2 -12 -10 -48t-11 -57q-6 -39 -23 -117.5t-26 -117.5q-2 -18 -11 -71.5t-9 -80.5q4 -20 -19 -20q-25 0 -24 20q-2 25 0 48.5t9 61.5t9 46q18 94 45 237q6 43 21 78 q-31 -8 -35 -10q-92 -20 -143 -4q-41 18 -44 71.5t9 90.5q31 102 94 245q25 63 62.5 181t56.5 168q20 61 43 129q6 18 14 59q0 8 6 8q-6 6 -6 17q8 14 25.5 13t19.5 -20q4 -29 -20 -88q-39 -152 -88 -284q-35 -102 -92 -242q-8 -25 -25.5 -70t-30 -81.5t-18.5 -69.5 q0 -4 -2 -25.5t0 -36t10 -22.5q10 -14 49 -14q72 10 119 30q2 6 20 78q8 72 19 113q14 86 20 104q6 47 19 82q4 14 19.5 13t15.5 -17q4 -29 -11 -98q-14 -57 -18 -94q-4 -16 -11.5 -53.5t-9.5 -53.5q-2 -6 -4 -24.5t-6 -30.5q2 2 35 14q12 4 207 90l16 8q18 8 29.5 11.5 t27 6.5t24.5 -2.5t11 -19.5z" glyph-name="four" horiz-adv-x="692" unicode="4"/><glyph d="M403 637q82 -41 89 -117q12 -61 -15 -153q-59 -154 -192 -261q-80 -66 -158 -83q-104 -31 -156 6q-82 53 29 204q12 18 35 3q12 -8 4 -21q-59 -84 -59 -123q4 -33 42.5 -42t65.5 3q78 10 168 82q137 115 182 271q18 106 -6 153q-20 37 -65 54.5t-93 13.5q-2 0 -127 -29 q-10 -10 -53 -10q-14 0 -21 5t-3 15q14 88 73 250q6 20 21.5 61.5t21.5 61.5q4 10 15 55q4 8 6 25.5t4 23.5q0 6 11 6.5t14 -6.5q14 -18 10 -44.5t-15 -49.5q-10 -45 -38 -123q-72 -227 -74 -235q14 0 24 4q43 14 64 20q122 29 196 -20zM674 1174q2 -14 -15.5 -20.5 t-23.5 5.5h-6h-19q-12 0 -34.5 -3t-34.5 -3q-74 -6 -148 -18q-35 -4 -98.5 -13.5t-83.5 -11.5q-20 -4 -58 -13.5t-44 -11.5q-37 0 -39 9q-2 4 0 10q0 14 18 14q66 20 197 41q29 2 82 9.5t79 9.5q70 14 148 14q14 6 45 3t35 -21zM639 1159z" glyph-name="five" horiz-adv-x="536" unicode="5"/><glyph d="M487 362q23 -113 -79 -241q-102 -141 -222 -166q-72 -16 -129 19.5t-67 107.5q-14 92 43 287l6 18q39 127 137 373q41 94 119 270q8 18 78 158q2 6 14 29.5t22.5 38t22.5 20.5q10 8 22.5 2t12.5 -16q2 -4 -1 -9.5t-7 -6.5t-6 1q-16 -39 -21 -39q-2 -8 -18 -41 q-4 -12 -16.5 -36.5t-18.5 -36.5q-10 -18 -29.5 -56.5t-30.5 -56.5q-57 -127 -98 -240q-78 -182 -123 -325q-20 -47 -24 -84l20 18q18 18 22.5 21.5t21 17.5t24.5 19.5t21.5 15.5t26.5 16t26 11q104 39 167 10q66 -23 84 -99zM442 293q8 100 -45 129q-68 37 -166 -21 q-51 -27 -143 -118q-12 -10 -29 -4q-20 -92 -24 -134q0 -98 43 -137q43 -35 108 -14q125 49 207 190q43 56 49 109z" glyph-name="six" horiz-adv-x="495" unicode="6"/><glyph d="M702 1159q10 0 18.5 -10t2.5 -21q-145 -168 -236 -319q-98 -158 -192 -354q-104 -225 -143 -334q-31 -74 -39 -103q-2 -10 -7.5 -27.5t-7.5 -27.5v-8q20 -20 0 -35h-20q-61 -6 16 182q41 121 137 328q88 190 201 379q104 162 227 315q-57 0 -270 -34q-4 0 -27 -5 q-145 -18 -143 13q0 2 2 6q6 14 25 14h20q4 -4 8 -4h7q4 2 19 4t24 6q18 2 51 7.5t47 7.5q10 2 94 12t93 9t93 -1z" glyph-name="seven" horiz-adv-x="555" unicode="7"/><glyph d="M516 1233q326 -45 -45 -600q-10 -16 -43 -63.5t-49 -73.5q31 -137 35 -189q14 -190 -70 -313q-45 -82 -119 -88q-70 -10 -112 57q-43 76 30 227q47 106 181 314q-4 27 -12.5 54.5t-19.5 59t-18 50.5q-102 223 -49 352q37 80 102.5 138.5t143.5 64.5q10 0 16 -6 q9 22 29 16zM369 283q-6 74 -29 163q-35 -59 -70 -108q-82 -135 -112 -236q-25 -59 -11 -108q16 -31 44 -42t59 7q57 29 90 127q37 74 29 197zM330 651q23 -72 35 -98q164 240 221 375q43 121 32 176q-10 76 -116 94q-6 0 -10 4v-4q0 -16 -15 -31q-16 -10 -24 -2q-2 4 0 9v4 q-66 -18 -119 -78t-68 -123q-8 -27 -9 -57.5t1 -52t13.5 -59.5t16.5 -51.5t22.5 -56.5t19.5 -49z" glyph-name="eight" horiz-adv-x="667" unicode="8"/><glyph d="M403 1286q8 16 30 12t20 -22q-4 -14 -14.5 -44t-16.5 -44q-55 -174 -176 -699q-12 -47 -40 -167.5t-44 -186.5q-10 -31 -25.5 -88t-31 -106.5t-31.5 -90.5q-4 -12 -17.5 -14t-22.5 5t-5 20q8 18 24 78q66 207 154 595t123 517q-4 -6 -19.5 -33t-22.5 -38t-23.5 -32.5 t-28 -35t-29 -27t-35.5 -21.5q-51 -27 -97 5t-46 87q0 113 90 211q53 55 112 66q33 4 54.5 -14.5t19.5 -51.5q0 -10 -13 -12t-18 8q0 10 -6 22.5t-12 12.5q-25 0 -56.5 -18.5t-47.5 -40.5q-33 -37 -58 -99q-25 -82 -16 -112q8 -20 27.5 -30.5t37.5 -0.5q37 12 78 70 q45 53 74 118q45 72 108 201z" glyph-name="nine" horiz-adv-x="413" unicode="9"/><glyph d="M152 578v-9q0 -6 -5 -10l-10 -6h-14h-10q-4 6 -4 10q-6 4 -7 21q16 16 35 10l6 -6q5 -4 9 -10zM137 559zM158 893q12 -12 4 -21q0 -4 -6 -8l-9 -6q-10 0 -14 6h-6q-14 0 -18 8q-6 6 -7 17q2 0 11 14q6 10 24 10q21 -12 21 -20z" glyph-name="colon" horiz-adv-x="225" unicode=":"/><glyph d="M158 893q12 -12 4 -21q0 -4 -6 -8l-9 -6q-10 0 -14 6h-6q-14 0 -18 8q-6 6 -7 17q2 0 11 14q6 10 24 10q21 -12 21 -20zM162 578q0 -8 -4 -9q-8 -23 -25 -45q-2 -4 -39 -45q-10 -4 -22.5 0t-16.5 12.5t4 18.5q27 14 43 53q2 2 8.5 9.5t10.5 11.5t12 8t14 2q2 -2 7.5 -6 t7.5 -10z" glyph-name="semicolon" horiz-adv-x="225" unicode=";"/><glyph d="M379 254q8 -8 0 -21q-2 -2 -8 -6t-13 -8q-29 0 -28 14v11q-47 55 -154.5 194.5t-171.5 208.5q-8 8 0 21q49 68 148 215q94 133 157 192q12 12 33 -2q6 -6 2 -12q-2 -6 -13.5 -24.5t-15.5 -30.5q-12 -8 -20 -5q-16 -25 -54 -73.5t-55 -73.5q-14 -20 -40.5 -61t-49 -74 t-43.5 -62q68 -76 185.5 -226t140.5 -177z" glyph-name="less" horiz-adv-x="491" unicode="&lt;"/><glyph d="M246 637q-6 2 -27.5 3t-37 6t-19.5 22q-2 12 7 17t17 -3v-6h7h14h59q31 4 87.5 9t74.5 7q31 0 85 2t81 2q18 2 51 7.5t47 7.5q25 -4 23 -25q0 -14 -17 -14q-92 -4 -290 -25q-27 0 -81 -5t-81 -5zM193 672zM815 520q25 -12 16 -28q-2 -6 -10 -7q-10 -2 -29.5 -9t-29.5 -11 q-6 4 -12.5 13t-8.5 11q-53 0 -77 -4q-348 -29 -383 -30q-86 -16 -144 -9h-43q-2 2 -6 5q-10 0 -10 4q-8 12 -8 16q10 18 28 8h21q6 0 26.5 -2t30.5 -2q94 8 361 39q27 0 84 3t88 3q53 6 106 0zM98 479zM98 475z" glyph-name="equal" horiz-adv-x="874" unicode="="/><glyph d="M526 707q6 -8 -6 -21q-201 -168 -362 -471q-4 -12 -24.5 -13t-20.5 13q-4 31 20 88q12 12 25 4q156 262 313 393q-27 33 -92.5 100.5t-109.5 123t-72 112.5q-10 20 10 29q4 0 10 1t9 1h7.5t8.5 -2t8 -10t6 -11q6 -6 0 -14q41 -72 148.5 -188.5t121.5 -134.5z" glyph-name="greater" horiz-adv-x="589" unicode=">"/><glyph d="M389 1423q55 10 98 -35t43 -102q14 -125 -98 -256q-76 -123 -186 -137q-2 -70 -18.5 -190.5t-20.5 -167.5q0 -4 1 -22.5t1 -30t-2 -33t-5 -31.5t-10.5 -25.5t-17.5 -14.5t-27 3q-14 -2 -12 8q0 10 12 23v4v14q4 16 5 55q4 12 4 42t6 46q39 195 39 324q-4 16 20 31 q29 0 94 35q125 117 152 239q20 63 4 129q-18 53 -63 53q-49 -6 -78 -45q-68 -63 -88 -102q-66 -129 -60 -211q18 -10 11 -20v-5l-7 -6q-4 -8 -24 -8q-18 2 -26.5 17.5t-6.5 38t6 40t8 31.5q10 29 32 81t32 77q35 45 54.5 68.5t56 51t71.5 31.5zM147 412h21h-21zM137 209 q10 0 15 -8v-6q0 -4 -5 -15v-4q-4 -16 -24 -16q-20 12 -21 16v8v11q2 2 4.5 6t5.5 6t7 2q4 6 8 6zM143 176z" glyph-name="question" horiz-adv-x="516" unicode="?"/><glyph d="M319 602q-12 -12 -45 -53q-2 -4 -8 -15.5t-9 -21.5t-1 -16q2 -10 35 -11q31 16 78 74q2 4 20 49q8 14 30.5 50t33.5 59q8 10 25.5 7t17.5 -17q-6 -39 -29 -80q-16 -33 -53 -82q-12 -43 4 -56l6 -6q2 -2 4 -1t4 3q10 4 31 25q63 57 127 186q23 45 28 95q12 68 -14 106 q-37 59 -151 16q-106 -45 -187 -147q-123 -150 -147 -291q-12 -98 14 -147q45 -84 123 -84q14 0 30.5 2t30 4t32 9t29.5 10t30.5 14.5t27.5 15.5t29.5 17.5t27 16.5t28 17.5t24.5 16.5q14 12 33 0q14 -10 -3 -25q-154 -115 -266 -133q-78 -10 -139 20.5t-86 102.5 q-51 127 39 301q80 150 172 231q109 90 207 103q115 20 157 -64q35 -96 -20 -217q-68 -131 -127 -190q-45 -45 -74 -50q-43 -8 -69 39q0 4 -4 4q-59 -55 -115 -38q-27 8 -36 26.5t-2 42t18.5 44t25.5 34.5q27 35 68 70q33 16 41 14q23 -8 14 -31q-10 -14 -25 -14l-14 -14 q-17 -11 -21 -21z" glyph-name="at" horiz-adv-x="772" unicode="@"/><glyph d="M963 987q12 4 19 -8t-3 -23q-47 -35 -70 -38q-18 -4 -25 11t11 23q-221 -16 -256 -20q0 -6 -2 -14.5t-2 -10.5q-92 -692 -115 -923q-25 -203 -24 -355q0 -74 10 -102q0 -4 3 -8t3 -6l4 -11q16 0 19.5 -15t-15.5 -19q2 2 -4 0h-10h-14q-2 2 -21 14q-10 35 -14 45 q-14 74 -4 162q0 70 5 150.5t9 133t17.5 153.5t16.5 131t20.5 152.5t19.5 135.5q6 61 23.5 189t25.5 194q-27 -2 -81 -9.5t-81 -11.5q-72 -8 -123 -18q-16 -45 -48 -138.5t-50 -142.5q-14 -47 -84 -235q-49 -168 -70 -252q-2 -10 -11 -44t-13 -54q-4 -14 -4 -54l-5 -10 q10 -4 16.5 -13t-1.5 -16q-41 -20 -55 15q-6 33 6 78q10 72 49 202q33 131 108 338q43 141 107 320q-12 -2 -33.5 -7.5t-34.5 -7.5q-127 -25 -227 -24q-4 0 -9 5t-6 11t7 8q8 6 18 10.5t24.5 6.5t20.5 4q4 2 9.5 0t6.5 -5t-1 -5q10 0 29.5 2t29.5 2q53 8 109 24q14 4 39.5 6 t33.5 5q45 129 103 245q74 160 151 226q39 39 94 55q51 10 64 -6q10 -14 10 -58q0 -51 -10 -108q-23 -225 -35 -305q150 20 320 20zM442 942q18 4 152 21q33 197 41 362q4 31 4 84h-10q-23 -10 -39 -20q-80 -49 -158 -197q-80 -164 -113 -264q14 2 56 7t67 7z" glyph-name="A" horiz-adv-x="722" unicode="A"/><glyph d="M1022 1356q59 -45 20 -148q-25 -82 -104 -178q-25 -29 -76 -82t-71 -76q-106 -106 -162 -165q-29 -29 -89.5 -82.5t-72.5 -65.5l-133 -133q33 2 158 39q14 2 43.5 10t44.5 10q139 25 182 4q35 -18 35 -57t-20.5 -72.5t-43.5 -56.5q-29 -35 -65.5 -71.5t-63 -61.5t-73 -66 t-68.5 -61q-53 -43 -207 -168q0 -20 -3 -56t-3 -52q0 -68 -4 -107q0 -37 -13 -43q-4 -2 -8 -2q-25 -4 -24 43v6q0 78 6 119v53q-10 -8 -109 -78q-41 -29 -84 -49q-37 -20 -59 -20q-14 4 -24.5 14t-4.5 21q10 10 15 10h10q4 0 10 -6h2q4 2 8 6q68 29 166 106q37 25 74 56 q0 18 3 61t3 66q6 131 39 481q31 348 39 483q0 6 2 24.5t2 28.5l-98 -73q-31 -20 -191 -127q-88 -68 -178 -148q-29 -31 -88 -90q-25 -25 -35 -33q10 -10 10 -16v-8q-2 -4 -7 -6t-7 -4q-20 -8 -36.5 5t-2.5 33q6 12 43 50q10 10 27.5 29.5t27.5 29.5q139 129 265 215 q193 139 270 193q6 45 6 137q4 20 4 63q0 12 15 21q20 4 45 -29l4 -6v-10q0 -8 -15 -9q0 -23 -2 -67.5t-2 -65.5q129 78 281 148q143 61 211 78q125 37 176 6zM334 858q-6 -70 -18.5 -204t-16.5 -203l6 4q37 41 158 157q63 49 172 162q131 135 156 164q100 98 143 162 q90 123 74 196q-16 51 -95 29q-6 0 -112 -29q-236 -92 -412 -196q-4 -4 -10 -8.5t-15.5 -8.5t-15.5 -8q-8 -135 -14 -217zM266 -6q-6 -20 -6 -60q8 6 28.5 23.5t35.5 26.5q238 197 340 305q123 150 73 166q-29 14 -63 6q-47 -8 -99 -15q-197 -55 -221 -59q-6 0 -27.5 -3 t-31.5 -3q-23 -209 -29 -387z" glyph-name="B" horiz-adv-x="929" unicode="B"/><glyph d="M727 725q12 18 35 2q14 -10 4 -20q-29 -37 -107 -179q-55 -100 -139 -274q-80 -156 -98 -186q-84 -160 -141 -211q-63 -72 -129 -66q-57 8 -107 84q-27 45 -38 98.5t-10 101.5t3 105q10 215 20 275q27 256 103 512q57 168 102 250q80 127 154 157q55 29 120.5 19.5 t110.5 -54.5q72 -78 113 -264q8 -18 -16 -22q-20 -2 -23 12l-11 44t-14.5 50.5t-16.5 45t-20.5 48t-25.5 38t-35 34.5q-51 35 -104.5 32t-98.5 -42q-74 -61 -127 -197q-37 -72 -88 -250q-63 -238 -90 -516q-2 -23 -4 -66.5t-4 -66.5q0 -27 -3 -83t-3 -83q12 -102 39 -147 q47 -94 108 -70q27 10 50.5 28.5t43 46.5t32 47t30.5 55t27 48q20 33 51 94.5t37 73.5l133 260q67 140 137 236z" glyph-name="C" horiz-adv-x="735" unicode="C"/><glyph d="M913 1044q29 -207 -73 -509q-80 -258 -226 -492q-225 -342 -491 -453q-12 -4 -22.5 2.5t-10.5 15.5t12 17q307 133 533 545q125 225 190 473q37 129 45 264q8 160 -30 246q-37 80 -116 110.5t-160 20.5t-167 -43q4 -8 6.5 -25.5t4.5 -23.5q2 -43 -1.5 -94t-7.5 -84 t-13 -95.5t-13 -84.5q-2 -35 -7.5 -97.5t-9.5 -115t-8 -97.5q-25 -301 -24 -309q0 -12 -1 -33.5t-1 -40t2 -35.5v-34l6 -4q12 -8 8 -21.5t-23 -13.5q-29 0 -41 53q-8 68 7 231q4 55 13 166t15 164q20 211 35 309q23 190 10 267q-281 -139 -413 -359h6q10 6 18 -6 q4 -4 -4 -10q-35 -25 -49 -49q-8 -12 -25.5 -5t-13.5 21q29 74 107 172q80 82 172 162q94 68 192 113q0 8 -6 23t-8 22q-8 18 7 27t28 -3q16 -23 24 -24q6 -14 0 -21v-4q86 37 186 43q156 10 246 -74q78 -70 92 -207z" glyph-name="D" horiz-adv-x="997" unicode="D"/><glyph d="M752 152q10 -8 10 -17.5t-7 -13.5t-18 0q-98 29 -241 -39q-92 -39 -230 -123q-29 -18 -98.5 -60t-104.5 -67q-41 -35 -59 -49q-25 -113 -88 -158q-10 -8 -25.5 -4t-13.5 19q0 72 74 157q4 0 4 10l31 148q8 66 23.5 138.5t34.5 158.5t30 135q8 35 20 106.5t19 104.5 q-63 -10 -84 10q-18 10 -4 25q4 10 28 10q6 -6 10 -6h7h4q35 0 49 6q27 123 39 215q14 68 35 197q2 12 7 36.5t7 36.5v11q-4 4 -4 14q18 39 43 21q6 -6 6 -46q-47 -311 -84 -477q27 4 77 13.5t56 11.5q74 20 176 45q12 2 41 7t41 6t37 -3q18 -4 14 -19.5t-20 -15.5h-4h-15 q-6 0 -12 -2t-12 -2q-12 -4 -37 -8t-37 -8q-33 -8 -93 -22.5t-93 -20.5q-80 -20 -123 -25q-12 -55 -34.5 -168.5t-35.5 -171.5q-72 -371 -73 -383q-2 -4 -4.5 -16t-6.5 -19q6 0 11 7q47 35 217 137q160 96 254 133q168 70 256 25zM856 1286.5q33 -18.5 -6 -53.5 q-10 -10 -25 2q-8 8 0 16v6q-10 4 -28 5q-51 0 -109 -11q-86 -10 -280 -39q-51 -6 -154.5 -19t-155.5 -19q-47 -8 -123 -15q-66 0 -69 19q0 14 20 14h11h24q8 0 28.5 3t30.5 3l49 7t54 7q233 37 389 54q154 31 250 30q61 9 94 -9.5z" glyph-name="E" horiz-adv-x="600" unicode="E"/><glyph d="M1110 1405q12 0 17.5 -10.5t-1.5 -20.5q-8 -12 -34 -24q-8 -4 -18.5 3t-6.5 17q-31 -6 -84 -6q-229 -16 -741 -107q-78 -14 -281 -45q-6 0 -20.5 -1t-26.5 -1t-23 2q-8 0 -15 7.5t-3 17.5q2 2 4 6t4 4q10 4 21 4q20 0 28 6q10 0 11 -6q88 10 185 26.5t213 37t181 31.5 q229 39 424 53q57 10 109 10q39 0 57 -4zM614 725q14 0 21.5 -10t4.5 -20.5t-15 -12.5q-8 0 -18.5 -2t-21 -6t-16.5 -6q-8 -6 -24 4q-25 -4 -236 -54q-16 -10 -35 -10q-8 -98 -18 -153q-2 -14 -14.5 -115.5t-16.5 -129.5t-17 -112t-22.5 -129t-25 -110.5t-33.5 -120.5 q-4 -16 -22.5 -16.5t-20.5 16.5q-4 8 -6 24.5t-4 20.5q0 18 20 18q63 242 117 670q6 35 14 123q-6 -2 -31.5 -7t-35.5 -9q-115 -10 -144 -5q-10 4 -8 12.5t14 12.5q23 6 69 11t69 9q12 2 36.5 9.5t36.5 9.5q14 104 25 203q10 160 10 190q2 20 3 84t5 98q0 10 8.5 14.5 t16.5 1.5t10 -11q6 -8 6 -39v-4v-154q-2 -33 -7 -96.5t-9 -94.5q-8 -119 -18 -178q8 0 19 3t15 3q207 60 299 68z" glyph-name="F" horiz-adv-x="593" unicode="F"/><glyph d="M1077 721q8 4 16.5 -4t-1.5 -17q-41 -27 -134 -38q-59 -14 -137 -25q0 -2 -3 -4t-3 -6q-6 -8 -18 -78q-6 -43 -15 -119q-6 -68 -6 -211q0 -446 21 -618q0 -16 -18.5 -18.5t-26.5 7.5q-10 10 -11 25v10q-14 92 -14 285v323q0 43 10 218q0 35 4 53q-61 -125 -106 -205 q-14 -25 -81 -136.5t-108 -168.5q-82 -117 -127 -158q-74 -61 -126 -39q-51 27 -70 99q-20 49 -29 157q-31 410 152 819q82 170 151 271q94 133 183 192q104 66 178 15q78 -53 102 -246q0 -6 -9 -10t-18.5 -1t-11.5 11q-23 109 -45 147q-18 53 -53 74q-61 33 -158 -53 q-82 -76 -176 -228q-205 -340 -242 -731q-8 -156 -4 -211q0 -102 19 -178q23 -92 59 -92q33 0 70 33q10 14 33.5 39.5t29.5 34.5q29 39 62 89t49 76.5t56 99t48 85.5q94 162 105 182q39 82 88 162q-35 -6 -113 -6q-4 2 -25.5 6t-33.5 10q-23 23 10 33q8 6 17.5 4t7.5 -12h4 h6h14q4 -6 19 -6q41 0 59 6q45 0 123 8q25 6 129 24q96 21 98 21z" glyph-name="G" horiz-adv-x="1060" unicode="G"/><glyph d="M1176 1012q12 0 18 -12.5t-4 -22.5q-2 -2 -5 -4t-7 -4t-9 -6q-8 -8 -21 -5t-13 13q-123 -4 -467 -49q-4 -102 -25 -344q-4 -74 -16.5 -229.5t-16.5 -237.5q-4 -43 -9 -123t-7 -117q0 -8 -1 -31.5t-2 -39t-8.5 -34t-21.5 -24.5q-18 -8 -31 10q-8 14 11 21q4 4 4 67 q4 23 6 60t4 49q6 70 14 231q4 74 16.5 224.5t18.5 228.5q6 47 21 280q-139 -23 -306 -45q-8 -113 -38 -393q-39 -412 -45 -457q-10 -150 -11 -161q0 -100 41 -154q12 -16 -12 -22q-18 -4 -29 8q-29 37 -39 88q-6 88 -6 114.5t9.5 113.5t11.5 112q6 53 16 152.5t18.5 180 t14.5 152.5q2 25 24 262q-141 -16 -260 -16q-8 -2 -13 3t-5 13q-4 2 -4 9.5t8 9.5q25 10 35 10q6 2 12 -1t6 -9q43 0 123 7t98 7q10 109 11 188q4 45 6 127t4 109q4 39 4 117v35q0 2 -2 10t-2 10q-2 10 4 14t16 4h4q27 0 21 -24q0 -2 2 -6t2 -8v-43q-4 -78 -20 -474 q0 -6 -2.5 -24.5t-2.5 -24.5q170 16 306 45q2 14 4 65.5t6 76.5v168q0 12 2 36.5t2 36.5q0 4 2 22.5t8 26.5q4 6 17.5 4t17.5 -8q6 -27 -6 -65v-78q0 -119 -4 -182q0 -18 -3 -49t-3 -50q336 50 508 56z" glyph-name="H" horiz-adv-x="796" unicode="H"/><glyph d="M752 1360q25 0 24 -29q0 -6 -10 -16q-4 -4 -8 -4v-4q-4 -16 -24.5 -16.5t-24.5 16.5q-8 6 0 14q-160 -6 -404 -59q0 -35 -6 -50q-12 -78 -14 -94q-6 -33 -15.5 -96.5t-13.5 -93.5q-29 -143 -63 -383q-18 -117 -70 -385q-6 -27 -14.5 -79t-13.5 -85t-17 -77t-29 -79 q-4 -6 -15 -9t-20 1q-33 10 -24 49q6 14 30 15q14 39 25.5 86t22 107.5t16.5 90.5q12 68 34.5 199t33.5 190q41 254 59 383q14 59 35 187q2 18 7 50t7 44q0 2 3 6t3 8q-74 -14 -221 -55q-29 -4 -80 -15.5t-93 -18.5t-79 -9q-8 -2 -14 2t-5 12t9 11q45 8 131 25.5t131 27.5 q8 2 225 59q0 20 4 29q4 12 19.5 9t15.5 -13v-15q246 58 443 64zM467 -150q14 -2 19.5 -10t0 -16t-19.5 -8q-35 -2 -101.5 -2t-99.5 -2q-74 -4 -213 -25q-113 -18 -196 -29q-12 -2 -34 -7t-34 -9q-41 0 -49 6q-10 8 -4 16.5t18 8.5q2 -4 27.5 0t32.5 4q18 8 77 20 q33 6 96.5 15.5t96.5 13.5q31 6 190 20q158 10 193 4z" glyph-name="I" unicode="I"/><glyph d="M1028 711q8 6 19.5 4t14.5 -10.5t-5 -18.5q-111 -82 -175.5 -132t-152.5 -131t-149 -159q-12 -55 -37 -160.5t-37 -158.5q-76 -303 -141 -449q-37 -90 -74 -117q-35 -18 -55 -6q-35 25 -35 90q0 68 45 240q55 205 172 399q55 102 119 177q29 150 32 217q35 258 17 456 q-4 88 -7.5 127t-18.5 108.5t-40 119.5q-37 88 -98 106q-43 18 -107 -18q-98 -66 -172 -217q-74 -154 -73 -324q0 -109 28 -192q14 -51 39 -89q25 -59 39 -53q20 4 27 -16q6 -16 -10 -19q-25 -6 -47.5 10.5t-34 37t-23.5 45.5q-2 8 -4 10q-45 88 -55 186q-14 164 35 321.5 t157 268.5q111 123 217 84q125 -43 166 -256q31 -154 31 -377q4 -184 -41 -467q70 70 80 78q135 135 354 285zM477 18q25 92 39 166q-8 -10 -39 -63q-115 -180 -172 -379q-49 -156 -59 -236q0 -2 -2 -33.5t2 -33.5q0 -29 14 -35l6 4q0 6 4 6q12 14 23.5 35t17.5 34t17.5 42 t15.5 37q84 229 133 456z" glyph-name="J" horiz-adv-x="1028" unicode="J"/><glyph d="M659 735q18 14 33 -6q10 -12 -4 -22q-358 -285 -600 -394q0 -10 -2 -27.5t-2 -27.5q0 -55 -4 -214t-2 -247v-66.5v-72.5t-1 -65.5t-4 -73t-9.5 -65.5t-14.5 -70q-2 -10 -16.5 -11.5t-22.5 6.5q-27 18 -20 43q0 8 6 21.5t8 19.5q0 14 16 15q10 72 11.5 154.5t-1.5 179 t-1 151.5q4 70 6 199t4 170q-6 53 0 104q10 287 10 510v232q2 14 4 60t6 73q10 66 25 84q8 8 23.5 4t15.5 -15q0 -4 -4 -4q-16 -66 -17 -133q-4 -59 -4 -178q-4 -156 -4 -467q43 109 142 238q66 96 202 245q68 68 103 99q43 49 88 82q4 4 13 4t11 -4q10 0 11 -9 q2 -4 -15 -45q-4 -4 -13 -4t-11 4q-10 -8 -27.5 -24.5t-28.5 -24.5q-90 -94 -92 -98q-106 -113 -203 -236q-160 -229 -186 -389v-84q37 18 78 41t70.5 39.5t76.5 48t67.5 45t74 52.5t65.5 48t72.5 55t66.5 50zM635 1251z" glyph-name="K" horiz-adv-x="649" unicode="K"/><glyph d="M442 176q43 14 105.5 0t46.5 -74q-4 -14 -23.5 -13t-19.5 17q2 33 -27.5 38.5t-52.5 -3.5q-70 -16 -127 -35q-242 -70 -442 -217q-6 0 -15 -8q-8 -27 -24.5 -73t-20.5 -60q-8 -18 -24.5 -62t-26.5 -69t-28.5 -57.5t-36.5 -57.5q-41 -59 -98.5 -59t-65.5 39q-8 31 16 88 q18 47 53 104q80 131 217 232q0 4 2.5 11t2.5 13q31 94 122 451q53 221 84 438q31 190 60 447q14 78 14 139q0 29 -6 43q0 6 -4 10q-10 0 -10 4q-27 25 -2 41q20 16 41 -6q25 -23 24 -78q4 -33 -4 -129q-20 -133 -25 -205q-20 -154 -69 -448q-18 -98 -103 -436 q-51 -209 -63 -252q96 72 240 133q163 67 290 94zM-266 -389q45 100 84 215q-68 -59 -133 -148q-4 -8 -24.5 -42.5t-29.5 -55.5q-29 -66 -24 -88q0 -10 10 -10q29 0 39 10q41 31 78 119z" glyph-name="L" horiz-adv-x="196" unicode="L"/><glyph d="M963 1163q51 -14 41 -102q-2 -16 -25 -213q-8 -63 -31.5 -222t-34.5 -245q-43 -369 -49 -481q-8 -158 -4 -236q0 -70 4 -102l10 -35q0 -4 3.5 -6t3.5 -4q12 -8 7 -21.5t-24 -13.5h-14q-6 2 -25 45q-10 61 -10 78q-4 37 -4 221q16 250 45 481q18 158 68 473q14 98 30 232 q0 12 2 38.5t2 39.5q0 25 -4 28q-98 -160 -196 -524q-10 -41 -70 -262q-51 -170 -84 -246q-10 -49 -35 -53q-12 -6 -32 0q-14 4 -31 45q-10 49 -10 205q10 231 34 409q45 291 50 492q0 63 -5 98q0 12 -10 33v10h-4q-27 -16 -49 -39q-47 -45 -80 -112q-25 -43 -45 -94.5 t-33.5 -88.5t-31 -103.5t-23.5 -93t-22.5 -105.5t-20.5 -95q-49 -203 -84 -393q-12 -61 -42 -218t-46 -245q-2 -12 -16.5 -16.5t-24.5 1t-8 19.5v20q39 313 67 959q14 297 21 364q4 43 4 142q-10 51 -14 59l-4 14q-16 0 -25.5 9.5t0.5 21.5q-4 10 4 14.5t21 4.5q10 4 38 -25 q25 -41 25 -113q4 -51 -4 -137q-14 -174 -21 -375q-4 -166 -24 -491q31 162 84 385q6 31 23.5 111.5t27.5 122.5t27.5 106.5t39 119t48.5 105.5q37 80 73 123q57 68 99 82q37 16 55 -11.5t25 -70.5q4 -88 -7 -221q-4 -76 -24 -262q-2 -18 -8 -53t-10.5 -64t-6.5 -55 q-8 -141 -14 -205q-16 -131 -10 -252q0 -59 10 -88q43 106 80 250q49 164 82 286q76 262 94 310q20 53 70 151q2 6 39 70q16 22 43 14zM881 -483zM870 -483h-6h6z" glyph-name="M" horiz-adv-x="1056" unicode="M"/><glyph d="M786 -512q6 0 12.5 -4t9.5 -9t4 -10.5t-3 -10.5t-12 -7q-33 -2 -56.5 26.5t-32 55.5t-16.5 61q-14 59 -39 330q-29 416 -14 801q6 248 20 432q4 39 5 119q-2 6 -4.5 26.5t-6.5 32.5q0 2 -2 6t-2 9q-78 -57 -162 -252q-86 -186 -122 -299q-45 -123 -123 -369 q-31 -98 -80 -295q-33 -158 -99 -348q-8 -16 -26.5 -16t-22.5 16q-8 33 -11 67.5t-1 77.5t4 67.5t9.5 78t9.5 71.5q4 29 20 179q2 16 11.5 75.5t13.5 89.5q18 184 53 429q18 121 29 210q4 20 6 56.5t4 48.5q0 10 2 28.5t2 35t-4 28.5q-8 18 14.5 21.5t30.5 -15.5 q4 -12 4 -94q-10 -86 -10 -98q-6 -53 -29 -217q-35 -233 -53 -418q-2 -25 -6 -54.5t-10.5 -65.5t-8.5 -56q-14 -145 -20 -176q-27 -219 -25 -267q41 123 60 217q35 147 59 236q29 109 98 313q45 147 103 287q92 217 127 285q41 72 90 127q53 45 76 41q12 -4 22 -17 q25 -25 25 -98q6 -61 0 -123q-14 -188 -21 -428q-14 -377 14 -801q12 -188 35 -299q6 -57 29 -104q0 -18 16 -29zM786 -512z" glyph-name="N" horiz-adv-x="811" unicode="N"/><glyph d="M983 725q6 8 18.5 4t16.5 -13t-6 -20q-10 -12 -34 -29.5t-30 -23.5q-170 -129 -235 -168q-6 -18 -23.5 -78.5t-25.5 -93.5q-109 -309 -207 -453q-152 -221 -295 -151q-98 51 -127 231q-14 102 -6 310q18 184 41 288q-43 68 -60 168q-10 143 46.5 294t154.5 272 q160 205 358 211q76 4 127.5 -40t69.5 -118q35 -102 25 -221q0 -164 -25 -334q-6 -37 -18.5 -113t-20.5 -112q6 2 12 7t13 7q118 80 231 176zM59 700q6 -51 25 -102q45 178 98 291q55 133 103 201q27 37 55 49q18 4 38.5 -5.5t14.5 -29.5q-8 -20 -28 -10q-10 0 -17 6 q-14 -18 -24 -35q-41 -63 -68 -127q-14 -27 -33.5 -73t-25.5 -60q-33 -100 -35 -113q-25 -86 -39 -157q35 -53 70 -74q115 -86 274 -45q66 14 207 84q0 29 10 53q39 211 53 393q18 160 0 271q-8 106 -49 163q-33 47 -84 54q-88 10 -178 -40.5t-156 -127.5 q-106 -125 -157 -271q-68 -158 -54 -295zM467 -41q61 115 102 231q51 125 90 256q-147 -72 -256 -79q-154 -16 -270 84q-12 18 -24 24q-20 -115 -31 -246q-16 -203 6 -309q35 -176 127 -196q63 -12 129 53q64 65 127 182z" glyph-name="O" horiz-adv-x="987" unicode="O"/><glyph d="M-4 -522zM864 1262q4 -4 0 -23.5t-4 -21.5q-2 -4 -4 -19.5t-6 -23.5q-20 -94 -84 -179q-12 -18 -52 -76.5t-65 -89.5q-72 -88 -143 -153q-143 -125 -270 -176q-45 -23 -99 -29q-45 -311 -53 -389q-2 -39 -9 -118t-12 -118q-2 -18 -8 -91.5t-6 -114.5v-113q0 -4 -2 -25.5 t-7 -36t-15 -18.5q-23 -10 -29 10q-8 8 0 21q4 4 8 4l-8 -4q0 14 4 24v117q0 80 10 168q27 309 49 481q6 35 15.5 102.5t13.5 94.5q-23 0 -59 14q-76 47 -15 207q10 25 37 12q14 -8 8 -22q-39 -115 -16 -150q12 -18 35 -22h20q12 80 54.5 316.5t58.5 367.5q-39 -20 -109 -70 q-90 -61 -116 -112q-8 -8 -22.5 -7.5t-22.5 13.5q-6 12 6 24q25 41 106 103q70 49 164 98q2 14 4 47t4 47q0 12 3 36t3 32q0 6 2.5 12t2.5 12q14 14 24 11q14 0 21 -4q10 -4 9 -12.5t-9 -12.5q0 -20 -7 -25q0 -12 -2 -34.5t-2 -34.5q0 -35 -4 -49q117 55 221 84 q133 37 222 28q102 -8 141 -74q10 -22 14 -38zM274 1430zM242 1405zM801 1163q2 4 6 19.5t5 22.5t3 21.5t1 22.5t-4 19.5t-11 21.5q-18 29 -53 35q-70 25 -193 -4q-98 -16 -240 -80q-8 -4 -26.5 -13t-28.5 -16v0q-4 -63 -24 -176q-33 -211 -84 -473q0 -25 -9 -53 q68 12 142 59q152 86 295 246q72 84 122 172q83 110 99 176z" glyph-name="P" horiz-adv-x="659" unicode="P"/><glyph d="M1253 -307q6 10 19.5 11t22 -6t3.5 -20q-18 -33 -98 -10q-86 31 -168 74q-262 145 -457 301q-6 6 -16 13t-14 12q-172 -256 -359 -228q-211 33 -141 439q41 201 102 364q10 10 11 25q-43 279 73 481q86 160 207 231q133 76 236 9q117 -72 137 -279q25 -160 -20 -403 q-63 -322 -201 -562q-2 -8 -10.5 -23.5t-10.5 -19.5q244 -188 439 -295q119 -70 182 -94q2 0 24.5 -7t34.5 -7q0 -6 4 -6zM365 1266q-94 -102 -136.5 -238.5t-31.5 -277.5q61 117 137 206q6 6 15 7.5t16.5 -4t7.5 -17.5q0 -6 3 -15t3 -14q0 -14 -13.5 -17t-21.5 1 q-82 -100 -137 -235q6 -55 29 -117q55 -162 129 -246q68 -82 172 -168q2 10 24 45q57 117 103 246q61 166 88 334q43 236 6 407q-49 205 -168 217q-110 5 -225 -114zM389 -55q55 49 123 151q-61 49 -139 123q-96 109 -127 182q-49 100 -70 183q-4 -10 -12 -35t-12 -35 q-72 -223 -78 -408q0 -178 88 -217q98 -50 227 56z" glyph-name="Q" horiz-adv-x="884" unicode="Q"/><glyph d="M520 809q-57 -74 -196 -201l20 -20q96 -72 152 -133q119 -125 172 -236q61 -109 0 -108q-12 -2 -18.5 8t-0.5 16v10q0 4 -1 8.5t-2 7.5l-3 9t-4 10q-6 10 -26.5 47t-32.5 56q-109 160 -271 280q-6 8 -18 15q-102 -88 -133 -107q-31 -23 -39 -25q-80 -645 -70 -989 q2 -14 -14 -16q-27 2 -31 22q-4 29 -4 82q0 387 70 881h-7q-47 0 -59 29q-10 31 16 94q23 61 74 88q18 139 33 330q10 57 10 94q-8 -8 -28 -41q-14 -18 -31 -8q-2 0 -15 8l-4 8t-4 7t-2 5q0 20 21 21q4 0 10 4q18 29 59 78q12 141 19 301q0 14 20.5 16t24.5 -12v-53v-6 q0 -25 -6 -33q0 -104 -4 -154q43 45 94 88q164 129 299 148q166 23 192 -99q18 -98 -49 -221q-96 -172 -213 -309zM664 145h4h-4zM653 141l-4 -6q4 0 4 6zM664 145q-4 0 -5 -4zM659 141h-6h6zM70 465q0 6 4 6v25q10 61 10 77q-10 -14 -31 -63q0 -6 -2 -21.5t-2 -17.5v-6h4 h17zM182 539q57 47 68 59q-53 33 -113 20q-2 -18 -7 -59t-7 -63q10 8 29.5 22.5t29.5 20.5zM324 668q111 102 213 229q90 137 102 158q59 92 78 147q59 174 -43 197q-66 14 -158 -25q-68 -20 -162 -88q-98 -82 -161 -158q-8 -113 -50 -471q37 6 78 0q35 -8 64 -24 q23 17 39 35z" glyph-name="R" horiz-adv-x="692" unicode="R"/><glyph d="M1092 725q8 -4 8 -12t-8 -13q-264 -160 -517 -401q70 -61 120 -113.5t99.5 -123t67 -133t1 -134t-76.5 -135.5q-166 -176 -421 -192q-129 -8 -197 38q-78 55 -59 172q23 123 137 295q100 158 241 295l25 25q-18 16 -136 110.5t-175 149.5q-115 100 -156 197 q-55 131 0 262q55 125 176 218t266 144q137 47 279 39q88 0 154 -33q33 -14 53 -49q18 -31 -15 -31q-4 -2 -10 1.5t-9 7.5t-1 6q-6 10 -8 10q-4 4 -9.5 7t-7.5 3q-4 6 -39 21q-41 12 -88 18q-80 10 -147 -4q-137 -18 -305 -113q-133 -82 -213 -201.5t-43 -250.5 q29 -100 143 -211q102 -96 197 -168q92 -76 123 -102q258 256 520 401q17 16 31 0zM821 -184q8 74 -26.5 151.5t-76.5 125.5t-108 112q-10 10 -32.5 29.5t-32.5 29.5q-16 -14 -45 -45t-37 -39q-147 -166 -221 -305q-61 -125 -70 -151q-29 -68 -14 -119q8 -49 46 -74t92 -26 t100 6.5t91 19.5q115 33 201 98q115 89 133 187z" glyph-name="S" horiz-adv-x="1060" unicode="S"/><glyph d="M193 1454zM1081 1468q23 -16 4 -34q-14 -10 -49 -21q-10 -2 -20 10.5t-4 20.5q-18 0 -56 -7t-43 -7q-57 -10 -176 -31q-205 -37 -407 -88q-61 -12 -144 -39q-2 -12 -7 -45t-7 -53q-6 -41 -18.5 -120t-16.5 -116q-12 -72 -38.5 -228.5t-39.5 -238.5q-49 -365 -55 -467 q-14 -139 -14 -237v-123v-54v-24q6 -4 6 -15v-20q-8 -14 -25 -14q-10 0 -24 14q-6 14 -6 39v49v94q0 33 10 201q18 274 123 934q27 135 39 231q20 117 24 183q-12 -4 -96 -29t-129 -35q-66 -27 -197 -63q-18 -4 -50 -14.5t-48 -16.5q-37 -6 -74 -19q-20 -6 -28 11 q-6 12 8 18q27 16 80 25q16 6 53 17t53 18q41 10 118 34.5t89 28.5q39 10 114.5 31.5t112.5 31.5q0 59 4 89q0 74 15 84q8 8 22.5 -0.5t8.5 -18.5v0v-6v-10v-39q0 -14 -3.5 -41t-3.5 -43q25 4 74 17.5t74 17.5q295 70 442 94q25 4 79 13t83 16q102 11 143 -5z" glyph-name="T" horiz-adv-x="210" unicode="T"/><glyph d="M807 1434q4 -41 -6 -95q-8 -25 -25 -112q-27 -141 -49 -232q-43 -225 -74 -446q-70 -481 -49 -905q4 -16 -18 -19q-25 -2 -25 19q-27 381 43 909q47 297 80 459q41 213 43 225l10 35q-14 -43 -38.5 -132t-39.5 -134q-150 -410 -167 -457q-10 -27 -57.5 -139.5 t-76.5 -169.5q-109 -213 -182 -291q-2 -2 -18.5 -19.5t-23.5 -23.5t-21.5 -14.5t-28.5 -10.5q-49 0 -64 43q-10 25 -20 113q-6 70 0 139q4 205 98 565q8 39 36 152t42 176q20 90 25 139q0 2 10 49v9v6q-6 16 14 24l17 -6q14 -4 14 -24v-15q-6 -39 -14 -102q-20 -98 -70 -295 q-106 -438 -123 -600q-16 -133 0 -260q0 -2 3 -15.5t6 -23.5t8.5 -20.5t11.5 -14.5q10 4 20 14q37 27 54 50q80 96 172 290q25 47 139 334q102 264 162 447q12 37 35.5 123t47 149.5t54.5 116.5q4 8 15 10t20.5 -4t9.5 -16zM211 1266v6v-6z" glyph-name="U" horiz-adv-x="786" unicode="U"/><glyph d="M1018 1606q12 -18 -14 -21q-16 -2 -25 6q0 4 -6 4h-4l-11 -4q-4 -2 -45 -39q-10 -10 -26.5 -33.5t-26.5 -35.5q-27 -35 -69.5 -105.5t-49.5 -81.5q-96 -180 -204 -413q-84 -186 -203 -506q-14 -37 -152 -453q-14 -39 -35.5 -116.5t-44 -134t-57.5 -103.5q-14 -20 -41 0 q-33 45 -33 164v225q8 160 19 236q16 172 55 477q29 246 74 477q33 135 33 186q0 35 16 39q25 14 39 -18q6 -12 -6 -21q0 -25 -4 -39q-2 -20 -10.5 -52t-10.5 -46q-29 -131 -43 -242q-31 -199 -63 -477q-49 -459 -50 -475v-237q0 -117 9 -142q25 39 42 89t33.5 113.5 t28.5 96.5q172 535 309 856q90 203 144 305q137 279 229 408q66 92 105 117q59 41 98 -4z" glyph-name="V" horiz-adv-x="638" unicode="V"/><glyph d="M1169 1567q20 0 21 -17q0 -18 -25 -18h6h-2l-10 -10q-8 -10 -18 -35q-27 -51 -45 -123q-20 -68 -41 -148.5t-32 -137t-31.5 -156t-28.5 -142.5q-84 -449 -123 -628q-8 -33 -20.5 -97.5t-18.5 -91.5q-35 -137 -84 -221q-29 -37 -66 -52.5t-82 9.5q-35 27 -43 92 q-4 16 -20 133q-18 213 -19 365q-10 186 5 344q27 274 28 305q6 33 6 106q-59 -100 -118 -303q-33 -111 -84 -368q-10 -49 -31 -139.5t-37 -164t-31 -139.5q-53 -227 -53 -231q-8 -53 -29 -74q-31 -31 -45 -31q-31 6 -39 60q-6 39 -6 129q-4 43 -4 141v197q0 162 29 477 q10 168 31 320q6 78 18 172q4 12 9 36.5t7 36.5q0 39 15 49q14 14 37 0q14 -8 2 -20q-4 -4 -7.5 -14.5t-4.5 -24.5t-3 -18q-10 -41 -10 -80q-20 -121 -25 -183q-20 -225 -28 -337q-25 -244 -25 -488q2 -51 2 -154.5t2 -154.5q0 -6 2 -39t9 -49q4 4 4 10q2 6 20 78 q23 90 57.5 257t45.5 214q45 186 88 389q66 258 108 365q16 33 45 81q2 4 9.5 21.5t14.5 30t15 18.5q16 10 32.5 2t20.5 -26q6 -25 6 -78q-4 -25 -6 -70t-4 -59q-23 -219 -28 -305q-12 -141 0 -377q0 -84 4 -123q10 -88 10 -98q0 -47 10 -105q8 -88 25 -127q16 -20 28 -24 q8 -10 15 0q33 14 55 53q29 53 43 108q20 63 55 226q72 338 113 557q82 436 133 618q25 121 64 201q32 80 77 80z" glyph-name="W" horiz-adv-x="1046" unicode="W"/><glyph d="M752 1518q14 -8 14 -26.5t-11.5 -45.5t-23.5 -47.5t-18 -28.5q-80 -141 -152 -256q-74 -113 -215 -321.5t-203 -303.5q31 -190 54 -270q55 -164 98 -215q49 -49 78 -49q37 -6 104 39q12 12 29 -2q8 -10 0 -19q-59 -59 -127 -59q-61 10 -105 49q-61 57 -116 232 q-16 55 -56 241q-299 -455 -520 -708q-8 -12 -24.5 -10.5t-20.5 16.5q-4 23 10 53q8 14 35 4q223 279 422 576q16 23 45 66.5t45 66.5q-12 53 -45 241q-20 147 -29 226q-4 31 -13 88t-11 80q0 2 -2 21.5t0 31.5t10 20q31 18 55 -24q2 -8 -4 -14.5t-16 -6.5v-10q4 -8 6 -23.5 t4 -19.5q0 -35 10 -70q2 -20 7.5 -57t7.5 -51q4 -59 24 -166q18 -135 35 -213q20 35 63.5 99.5t59.5 92.5q12 16 211 310q18 31 80.5 127t95.5 149q8 14 59 107q14 39 15 45q-8 18 6 28q6 15 29 7z" glyph-name="X" horiz-adv-x="491" unicode="X"/><glyph d="M987 717q23 4 31 -15q4 -10 -10 -16q-233 -90 -463 -319q-14 -55 -46 -165t-46 -165q-10 -33 -34 -110t-43.5 -131t-41.5 -103q-80 -211 -197 -275q-66 -39 -108 11q-35 41 -25 141q20 174 143 364q76 131 226 310q92 102 133 137q18 74 69 246q76 272 142 452 q10 25 45 119q-35 -43 -64 -88q-190 -279 -266 -369q-51 -63 -127 -133q-74 -74 -123 -69q-55 0 -78.5 45t-21.5 92t12 94q6 27 24.5 103.5t24.5 117.5q2 10 8.5 50t6.5 63v24q-10 10 -11 21v4v6q0 14 25 15h10l11 -7q4 -4 4 -14q4 -4 4 -25q0 -31 -8 -88q-14 -111 -25 -147 q-31 -98 -35 -158q-14 -102 14 -141q37 -47 119 29q68 61 127 137q115 131 266 364q147 215 162 240q16 74 53 123q8 12 26 6t13 -20q-18 -59 -57 -134q-20 -57 -31 -88q-53 -129 -88 -256q-68 -184 -157 -499q0 -4 -6.5 -23.5t-8.5 -32.5q197 191 422 277zM330 -209 q80 227 151 512q-160 -178 -245 -305q-133 -197 -177 -354q-25 -127 0 -181q20 -53 93 19q102 92 178 309z" glyph-name="Y" horiz-adv-x="983" unicode="Y"/><glyph d="M870 717q20 0 19 -19q-4 -16 -25 -16l-8 -6q-20 -8 -31 -14q-57 -39 -161 -134q-43 -37 -84 -77q-4 -35 -25 -119q-20 -111 -88 -289q-63 -168 -133 -309q-84 -184 -158 -266q-111 -137 -201 -123q-49 10 -73.5 62t-24.5 110q0 109 103 305q72 113 167 225 q160 199 390 418q16 158 -60 227q-55 53 -146 60.5t-163 -11.5q-14 0 -23.5 9.5t2.5 19.5q92 66 232 197q176 166 190 176q-176 -25 -303 -25q-111 0 -143 10q-18 4 -27.5 7.5t-18.5 13.5t-7 25q0 18 21.5 16t21.5 -16q-4 -6 0 -7l6 -4q4 -2 19.5 -4t23.5 -6h133 q109 6 340 35q12 0 21.5 -12.5t-3.5 -22.5q-33 -20 -68.5 -49t-57 -49.5t-62.5 -59.5t-57 -53q-63 -70 -177 -158q113 12 172 -10q57 -14 102.5 -54t59.5 -93q23 -61 15 -117q96 86 168 141q85 62 122 66zM457 135q51 147 69 266l-73 -73q-240 -240 -379 -443 q-125 -184 -148 -315q-10 -76 0 -113q27 -74 60 -78q29 -4 92 43q63 55 94 105q63 84 152 285q22 49 133 323z" glyph-name="Z" horiz-adv-x="860" unicode="Z"/><glyph d="M186 1718q59 0 88 -4q10 2 38 2t32 2q18 8 25 -8q4 -14 -17 -20h-4q-10 -6 -36.5 -8.5t-30.5 -2.5q-25 4 -74 4q10 -143 10 -176q0 -35 -5 -107.5t-5 -109.5q-10 -270 -10 -481q-6 -270 -21 -477q0 -18 -8 -191.5t-6 -265.5q-4 -14 -4 -35q53 12 92 6q14 -2 17 -12 t-5 -17t-20 -5q-35 4 -95 -11q-29 -8 -28 11q-6 156 14 462q6 88 10 248t9 228q0 74 10 483q6 78 6 229v197v45q0 14 18 14z" glyph-name="bracketleft" horiz-adv-x="413" unicode="["/><glyph d="M-20 1468q4 6 16 9.5t21.5 -0.5t7.5 -15q-10 -29 -11 -78q14 -41 15 -88q31 -121 45 -182q76 -276 98 -373q10 -47 83 -331.5t99 -436.5q2 -12 -8 -17t-23.5 -2t-17.5 15q0 10 -9 32t-11 28q0 2 2 4t4 5t4 5q-29 135 -93.5 377t-82.5 321q-23 113 -94 377q-4 18 -21.5 85 t-23.5 108q-2 6 -6.5 29.5t-6.5 37t-3 31.5t3.5 33.5t12.5 25.5z" glyph-name="backslash" horiz-adv-x="403" unicode="\"/><glyph d="M274 1708q20 0 21 -14q0 -6 -2 -20.5t-2 -22.5q-16 -174 -17 -197q-8 -141 -14 -231q-4 -156 -24 -482q-2 -78 -9.5 -236.5t-9.5 -240.5q0 -238 -20 -463q0 -14 -29 -14q-76 12 -94 10q-12 -2 -20.5 5.5t-6.5 17.5t16 12q39 4 95 -6v35q8 90 18 463q16 410 21 475 q20 334 24 483q2 23 4 99.5t6 115.5q2 31 9.5 90.5t9.5 87.5q-49 0 -74 -6q-57 0 -67 6q-23 2 -16 19.5t26 9.5h67q31 4 88 4z" glyph-name="bracketright" horiz-adv-x="403" unicode="]"/><glyph d="M270 1511q35 -35 35 -49q0 -12 -13 -15t-22 1q-6 6 -21.5 23.5t-23.5 25.5q-4 6 -16 17.5t-16 17.5q-41 -37 -50 -45q-23 -33 -45 -33q-6 -2 -11 -2t-8 3t-1 7q-2 10 9 25.5t22 19.5l59 60q12 23 39 4q8 -8 30.5 -29t32.5 -31z" glyph-name="asciicircum" horiz-adv-x="407" unicode="^"/><glyph d="M1057 381q16 -4 16 -19.5t-16 -19.5q-33 0 -84 -10q-18 0 -19 16q-18 2 -36.5 2t-39 -1t-32.5 -1q-29 -2 -506 -24q-33 0 -97.5 -3.5t-99.5 -3.5q-84 0 -84 31q0 23 29 14l6 -2q-8 0 -6 -4h25h84q31 2 481 25q41 0 118.5 3t116.5 3q115 0 144 -6z" glyph-name="underscore" horiz-adv-x="1159" unicode="_"/><glyph d="M348 1479q20 -20 0 -21q-23 -10 -98 21q-78 39 -92 49q-6 0 -6 14q0 10 6 10l10 4h8l21 -14q8 -4 26.5 -11t26.5 -13q12 -6 48 -18.5t50 -20.5zM152 1542v0v0z" glyph-name="grave" horiz-adv-x="477" unicode="`"/><glyph d="M319 707q10 18 31 8q14 -6 8 -19q-14 -25 -38.5 -79t-38.5 -78q0 -2 -10.5 -17.5t-13.5 -19.5t-12 -17.5t-15.5 -18.5t-16.5 -12.5t-20.5 -10.5t-20.5 -3q-6 0 -11 2t-9.5 5.5t-9.5 9.5t-7 10t-7 12t-5 10q-10 31 -10 95v59q-51 -100 -101.5 -150.5t-85.5 3.5 q-23 20 -4 67q29 70 49 99q37 63 68 79q41 23 55 -6q6 -12 -6 -17t-18 3h-7l-24 -25q-16 -23 -49 -78q-27 -45 -35 -83q-4 -8 -2 -19.5t8 -11.5q14 0 43 35q18 23 49 84q8 12 74 143q4 6 15.5 9t19.5 -1t6 -14q-16 -131 -16 -148q0 -102 24 -137q23 6 35 29q14 18 45 69 q36 93 63 134z" glyph-name="a" horiz-adv-x="333" unicode="a"/><glyph d="M358 823q39 -6 39 -73q0 -59 -24 -103q-39 -117 -142 -225q-104 -115 -178 -119q-23 -4 -28 19q-6 16 14 16q49 4 108 63q63 55 119 134q57 98 74 151q18 76 0 105q-51 4 -119 -74q-68 -82 -123 -193q-53 -106 -88 -211v-6q-14 -84 -30 -201q0 -16 -17.5 -17t-25.5 13 q-8 12 -10.5 26.5t-2.5 23t3 31t3 26.5q2 8 7.5 28.5t9.5 30.5q14 47 14 49q2 18 28.5 206t45.5 286q51 317 98 639q4 37 16.5 119t18.5 127q0 12 2 36.5t2 36.5v25v14q16 16 35 0q4 -8 4 -32q0 -16 -2 -42t-2 -38q-25 -182 -35 -246q-45 -338 -94 -639q-27 -145 -43 -313 q68 152 151 249q96 96 172 78z" glyph-name="b" horiz-adv-x="477" unicode="b"/><glyph d="M197 707q10 12 30.5 7t14.5 -22q-41 -61 -123 -108q-90 -53 -133 -21q-51 41 10 158q96 129 156 74q14 -12 -7 -21q-12 -6 -22 0q-23 18 -60 -33q-23 -25 -38 -65q-14 -27 -15 -68l4 -14l6 -6q25 0 93 39q57 41 84 80z" glyph-name="c" horiz-adv-x="217" unicode="c"/><glyph d="M575 1778q0 -55 -45 -187v-10q-12 -72 -33.5 -213t-33.5 -209q-82 -526 -90 -944q-6 -266 6 -457q2 -25 7 -68.5t7 -64.5q0 -90 -14 -108q-12 -16 -35 -6q-18 10 -4 26q6 10 7 32.5t-3 35.5q0 59 -4 94q-2 37 -7 110.5t-9 110.5q-12 453 49 952q27 184 69 449 q0 -10 -4 -10q-111 -322 -188 -506q-53 -158 -113 -246q-70 -109 -137 -59q-16 12 -29 53q-6 20 -6 59q12 78 39 113q41 49 80 49q47 8 74 -49q4 -8 -1 -15.5t-14.5 -6t-15.5 7.5q-20 53 -57 30q-39 -25 -56 -73q-18 -59 -4 -115q10 -45 39 -33q16 10 53 58q41 70 56 104 q66 154 84 207q170 471 190 534q10 27 27.5 80t27.5 82q8 74 29 221q6 16 25 17q34 0 34 -45z" glyph-name="d" horiz-adv-x="477" unicode="d"/><glyph d="M266 864q18 -113 -84 -227q-29 -39 -88 -92q-53 -35 -80 -41h-4q20 -102 84 -127q20 -8 14 -23.5t-24 -11.5q-119 41 -119 203q0 133 74 284q47 98 108 123q41 16 76 -12.5t43 -75.5zM147 651q96 119 78 207q-4 23 -24 55q-2 0 -10.5 7.5t-14.5 7.5h-4q-2 0 -4 -3t-6 -3 q-10 -4 -25 -19q-55 -51 -92 -168q-43 -113 -35 -207q59 29 137 123z" glyph-name="e" horiz-adv-x="315" unicode="e"/><glyph d="M649 1124q6 -10 0 -18t-16 -8t-19 6v0h-39q-74 0 -112 -4q-238 -20 -350 -39q-57 -240 -103 -621q-45 -373 -45 -884q0 -18 -21.5 -16.5t-21.5 16.5q0 451 29 737q39 403 88 649q10 63 24 113q-23 0 -63 -11q-88 -6 -193 -28q-6 -2 -26.5 -4t-30.5 -6l-6 -5h-4 q-4 -8 -17.5 -9t-17.5 9q-4 4 -4 9.5t3 8.5t8 6t12.5 6t13.5 4t12 3t8 2q25 6 154 29q31 6 93.5 15.5t68.5 9.5q25 102 78 245q47 127 90 183q33 59 73 80q25 8 43.5 12t31.5 -12.5t22.5 -32t14.5 -44t8 -52t4 -55.5t1 -51t-1 -41.5t-1 -29.5q0 -14 -20.5 -14t-20.5 14 q0 180 -14 232l-14 49q-10 4 -15 4h2h-8h-4l-10 -10q-27 -16 -49 -53q-66 -98 -117 -267q-27 -66 -45 -151q47 6 133 15t123 13q98 10 182 11q76 16 88 -15z" glyph-name="f" horiz-adv-x="182" unicode="f"/><glyph d="M516 731q6 6 17.5 4t14.5 -10t-3 -18q-129 -125 -303 -306v-217q0 -160 -17 -344q-6 -176 -49 -319q-41 -156 -141 -250q-92 -86 -187 -98q-72 -4 -113.5 35.5t-52 110.5t-8.5 128t11 119q16 106 104 284q68 137 172 281q119 158 236 281v43q-10 287 -11 340 q-8 -16 -28 -54q-57 -102 -113 -123q-51 -20 -65 19q-6 45 10 84q43 109 143 158q10 0 17.5 -5.5t1.5 -15.5v-14q0 -10 -10.5 -11.5t-18.5 7.5q-55 -47 -74 -84q-47 -70 -29 -113q31 6 50 33q31 39 53 80q57 123 70 157q2 8 12 11.5t19 -1.5t7 -16q-4 -90 5 -348 q0 -70 6 -104q147 157 274 276zM193 -12q4 123 4 368q-14 -14 -39 -49q-158 -164 -260 -344q-41 -66 -84 -151q-49 -98 -64 -148q-20 -57 -31 -137q-8 -125 0 -172q14 -141 105 -148q88 0 176 88q104 104 143 261q27 115 50 432z" glyph-name="g" horiz-adv-x="520" unicode="g"/><glyph d="M727 717q4 6 15.5 5t16.5 -8t-1 -18q-41 -63 -129 -143q-100 -88 -162 -107q-61 -29 -102 0q-41 25 -60 89q-4 18 -11 54t-13 54l-2 8q-2 6 -3.5 8.5t-4.5 8.5l-4 8t-5 7t-7 6t-8 2t-11 1q-27 -6 -68 -59q-31 -35 -80 -113q-12 -23 -31.5 -62.5t-37 -71.5t-33.5 -58 q-8 -8 -23.5 -4t-15.5 14q0 178 28 330q8 41 24.5 127t25.5 127l73 368q76 346 127 533q35 125 56 172q2 8 6 17t12 19.5t16.5 10.5t18.5 -14q12 -10 -10 -19q-12 -33 -15 -35q-8 -23 -35 -112q-59 -250 -81 -355q-74 -301 -109 -512q-82 -399 -94 -573q4 4 10 16.5t10 16.5 q45 88 92 157q92 135 158 109q25 -6 41 -28.5t21.5 -43t12.5 -55.5l9 -45q25 -72 53 -78q39 -12 109 33q119 80 221 213z" glyph-name="h" horiz-adv-x="727" unicode="h"/><glyph d="M-10 711q8 18 26.5 9t18.5 -28q0 -12 -10 -90q-27 -207 -29 -235q0 -18 -22.5 -18.5t-22.5 18.5v24q4 66 24 182q2 10 4.5 43t6.5 52q0 4 2 13t2 15v4v7v4zM39 868l-10 -10h6h-6l-4 -4q-4 -6 -21 -6q0 2 -7 6t-7 10q0 8 6 8v0q0 10 8 11l6 6v0q14 0 19 -6l6 -4 q0 -4 2 -6.5t2 -4.5zM25 854z" glyph-name="i" horiz-adv-x="108" unicode="i"/><glyph d="M379 700q18 16 33 -2q10 -10 -4 -22q-227 -207 -338 -324q0 -272 -41 -446q-23 -141 -82 -252q-43 -78 -107.5 -129t-130.5 -12q-119 70 -63 278q41 147 153 305q88 129 221 271q0 59 -6 88q0 133 -18 227q0 12 -10 74q0 10 -6 18v6q10 -10 24 -10q-12 -2 -21.5 4 t-9.5 16.5t13 14.5q27 8 38 -18.5t15 -63.5v-6q20 -143 24 -228v-77q107 104 316 288zM-20 774zM-25 -129q45 182 45 432q-12 -8 -20 -20q-168 -197 -225 -310q-104 -197 -99 -309q10 -117 74 -127q53 -10 123 82q65 90 102 252zM-53 977q-8 4 -10.5 9t4.5 9q10 16 20 21 q12 4 25 -4q6 -16 -6 -25h-5v0l-4 -6q-4 -8 -13 -8t-11 4z" glyph-name="j" horiz-adv-x="378" unicode="j"/><glyph d="M569 696q18 16 35 0q8 -6 0 -14q-102 -133 -147 -162q-102 -68 -191 8q-37 31 -73 90q-37 66 -60 82q-53 -51 -98 -73q0 -43 -6 -68q-6 -80 -25.5 -243.5t-28.5 -247.5q-2 -59 -10 -168t-10 -142q-8 -82 -8 -129v-28q14 -10 8 -21q-8 -16 -24.5 -20t-24.5 16q-4 10 -4 64 q6 145 20 266q2 35 7 97.5t9.5 113.5t8.5 98q2 25 9 83t9 89q20 145 25 225q-2 2 -6 5.5t-4 5.5v49q0 6 3 15t3 13q6 31 24 70q6 86 19 186q29 221 59 383q10 74 39 222q0 8 10 69q6 4 6 15h4v10q8 20 29 10q6 0 21 -14q14 -25 -15 -25q0 -20 -6 -31q-2 -10 -10 -58t-14 -75 q-47 -262 -68 -418q-2 -16 -21 -180q6 12 23.5 34t26.5 34q47 47 94 59q18 8 39.5 0t27.5 -28q6 -29 -14 -80q-18 -39 -67 -109q-20 -29 -41 -49q43 -35 73 -92q100 -158 193 -94q18 10 34.5 24.5t34 33.5t27.5 30.5t29.5 36t25.5 32.5zM147 1645zM186 946q-39 -35 -77 -88 q-16 -18 -56 -88q0 -2 -2 -9t-2 -11q14 0 25 6q4 0 45 -11q20 20 33 46q49 57 65 98q23 51 14 67v7h-6h-4q-8 -1 -35 -17zM39 672q35 25 59 49q-27 6 -49 -10h-4q0 -25 -6 -39z" glyph-name="k" horiz-adv-x="575" unicode="k"/><glyph d="M324 711q8 10 19 10t16.5 -8t-1.5 -21q-98 -152 -215 -403q-6 -12 -25.5 -54t-33.5 -65q-41 -53 -70 -49q-27 0 -45 23.5t-22 50.5q-12 61 0 161q0 41 3 84t10 91.5t12 80t16.5 89t15.5 79.5q25 152 66 447q0 18 19.5 17t19.5 -17q-10 -158 -60 -436q-6 -47 -23.5 -135.5 t-26.5 -159t-9 -134.5q0 -18 -3 -52t-3 -60.5t6 -48.5q8 -23 24 -41q4 4 8.5 6t6.5 4q23 29 41 64.5t36.5 79.5t30.5 67q105 215 187 330z" glyph-name="l" horiz-adv-x="329" unicode="l"/><glyph d="M526 352q6 -12 -1 -19t-18 -7t-20 6q-14 20 -19 45.5t-7 63.5t-4 48q0 59 -4 95q0 35 -11 43q-12 -12 -14 -19q-27 -27 -55 -69q-68 -100 -107 -127q-29 -10 -41 10q-29 76 -8 229q8 70 14 105v28q-23 -20 -55 -77q-41 -61 -82 -154q-72 -143 -123 -303q-2 -10 -13 -11 t-20.5 5t-7.5 14q23 104 54.5 335.5t60.5 352.5q0 14 16 8q12 -4 13 -12q-16 -84 -35 -243.5t-29 -223.5q29 70 49 103q0 2 12.5 26.5t14.5 28.5t13.5 26.5t15.5 29.5t14 26.5t16.5 28t17.5 23.5t19 24.5t19.5 20.5t23.5 22q18 18 31 0q18 -14 18 -60q0 -41 -8 -106 q-23 -152 -6 -207q25 25 35 39t29.5 43.5t29.5 44.5q8 8 25.5 30.5t28.5 32.5q4 2 15 8.5t15 8.5q8 4 25 -6q29 -6 29 -50q10 -72 10 -88q0 -70 4 -98q16 -70 20 -74z" glyph-name="m" horiz-adv-x="600" unicode="m"/><glyph d="M281 141q8 4 17 -1t9 -14t-8 -15q-29 -16 -53 -5q-43 14 -60 113q-10 74 -10 217q0 41 10 226v108q-10 -10 -10 -20q-8 -10 -49 -88q-25 -51 -71 -157t-70 -157q-4 -8 -14.5 -11t-17.5 1t-7 14q-8 123 39 310q6 66 28 118q8 16 24.5 20.5t24.5 -16.5q4 -8 -1 -13t-13 -5 q-10 -25 -10 -41q-8 -23 -17.5 -65t-11.5 -52q-4 -29 -11 -81t-9 -76q66 166 129 284q37 63 57 74q16 8 32.5 1t16.5 -26q12 -57 0 -151q-8 -160 -8 -232q0 -137 14 -206q8 -37 25 -54q0 -4 6 -6h-2q11 0 21 6z" glyph-name="n" horiz-adv-x="299" unicode="n"/><glyph d="M250 707q10 10 26 0q10 -6 5 -15q-45 -74 -134 -90q-2 0 -9 -2t-11 -2q-8 -20 -8 -25q-45 -76 -99 -63q-43 12 -55 68q-8 63 6 108q8 23 29 31q18 72 74 78q35 6 52 -17.5t21 -60.5q0 -55 -10 -84q70 17 113 74zM88 766q-23 0 -43 -35q-35 -70 -6 -98q10 -6 45 -6h10 q14 43 15 84q-2 4 -4.5 18t-6.5 25.5t-10 11.5zM14 692h6h-6zM14 549q16 -18 38 3t26 42h6q-39 0 -59 14q-18 8 -25 19q0 -58 14 -78z" glyph-name="o" horiz-adv-x="256" unicode="o"/><glyph d="M225 995q74 -18 49 -127q-20 -109 -102 -206q-63 -90 -152 -99q0 -18 -10 -157q-4 -61 -15 -186.5t-15 -186.5q-18 -244 -19 -324q-8 -59 0 -108v-35l4 -10v-5q12 -12 -6 -22q-14 -6 -22 2q-10 8 -15.5 24.5t-6.5 29t0 35t1 24.5q0 102 7 209.5t22.5 255t19.5 204.5 q2 41 9.5 127t11.5 129q-6 4 -6 9q0 25 6 34q0 14 2 47t2 48q0 18 2 67l3 73.5t5 69t8 74t10.5 67.5t16.5 70q0 8 10 8.5t14 -8.5q14 -20 15 -43q0 -14 -21 -6q-10 -70 -24 -260v-20l30 73q72 148 166 123zM-35 -449zM236 879q12 49 -5 73q-14 27 -55 11q-47 -25 -82 -99 q-45 -86 -69 -202v-19q18 0 10 -20q-10 -16 -10 -25q14 0 28 10q94 47 148 166q31 64 35 105z" glyph-name="p" horiz-adv-x="309" unicode="p"/><glyph d="M84 -66q-14 -109 -35 -333q-10 -158 -10 -193q0 -49 6 -74q0 -6 2 -14t2 -10q6 12 29.5 58t41 74t38.5 54q10 16 30 2q12 -10 5 -20q-23 -29 -42.5 -62.5t-42 -79t-34.5 -65.5q0 -10 -21 -10q-43 0 -53 84q-6 74 0 151q2 37 7 105.5t7 101.5q6 53 18.5 156.5t16.5 152.5 q27 260 53 404q20 113 25 162q0 -18 -14 -39q-33 -66 -64 -78q-45 -18 -74 10q-25 23 -24 68q-4 86 49 206q4 4 24.5 33t34.5 41q25 20 64 21q0 4 4 4q10 6 25 0q2 4 6 16t10 19q4 12 21.5 10t17.5 -17q0 -20 -10 -116q-8 -90 -36 -250t-34 -213q-29 -177 -43 -359zM109 643 q4 20 13 65.5t15 65.5q0 4 3 16.5t3 18.5h-30q-18 -8 -60 -53q-29 -47 -43 -99q-20 -70 -20 -104q0 -53 14 -64q31 -14 55 35q21 29 50 119z" glyph-name="q" horiz-adv-x="260" unicode="q"/><glyph d="M176 741q12 -12 2 -23t-26 -7q-4 6 -9 0q-8 -2 -24 -25q-27 -31 -49 -78q-55 -100 -60 -153q-6 -25 -33 -19q-14 4 -12 19q4 29 6 83t4 70q0 8 2.5 38t5.5 49.5t13 35.5q8 18 31 8q14 -6 8 -18q-10 -14 -10 -49q-4 -25 -5 -70q4 16 25 45q10 18 21.5 34.5t32 40 t37.5 26.5t40 -7z" glyph-name="r" horiz-adv-x="176" unicode="r"/><glyph d="M309 711q14 14 33 0q10 -8 2 -19q-41 -53 -140.5 -128t-129.5 -103v-15q10 -70 4 -94q-4 -18 -13.5 -30.5t-25.5 -8.5q-41 0 -68 39q-23 51 58 123q-4 25 -15 53q-2 16 -9 48t-9 47q-27 55 -21 112q8 78 70 99q55 27 127 -19q18 -14 -2 -24q-14 -6 -23 0q-66 33 -98 4 q-41 -35 -29 -99q2 -27 15.5 -75t17.5 -68q10 -25 10 -49q10 10 15 10q20 16 59 46t62.5 48.5t54 47t55.5 55.5zM35 342zM39 348zM35 348q8 20 0 74v4q-33 -33 -25 -53q7 -19 25 -25z" glyph-name="s" horiz-adv-x="329" unicode="s"/><glyph d="M520 1143q27 6 31 -17q4 -14 -14 -16q-63 -6 -186.5 -18.5t-178.5 -16.5q-20 -4 -58 -6t-51 -4q-4 -82 -59 -797q-10 -158 -29 -387q0 -20 -2 -60t-2 -59q0 -10 4 -20v-4q10 -10 4 -20.5t-23 -10.5t-19 10q-10 16 -11 31q0 78 4 117q6 164 31 471t29 375q6 59 15 174.5 t15 175.5q-246 -20 -368 -41q-59 0 -109 -14h-6l-4 -5q0 -12 -14.5 -16t-24.5 6q-12 16 -3 27.5t28 17.5q41 12 98 19q31 4 93.5 11t92.5 13q41 4 114 11.5t103 9.5v10q4 39 5 123v39v4q0 12 4 14q18 18 34 -4q6 -10 7 -35v-127v-20q337 33 450 39zM49 1272q-14 0 -20 4 q6 -4 20 -4zM-471 1012v-6v6zM-59 -262z" glyph-name="t" horiz-adv-x="122" unicode="t"/><glyph d="M207 377q23 -8 10 -25q-16 -14 -33.5 -8t-25.5 23q-14 43 -15 98v168q-2 -4 -7 -14.5t-9 -16.5q-63 -100 -102 -117q-39 -20 -64 4q-18 14 -10 60q2 20 14 59t15 49q20 29 20 60v14q4 12 20.5 12t24.5 -12v-10v-4v-6q0 -6 -10 -43q-29 -88 -31 -95q-18 -45 -14 -59 q6 0 10 6l20 8q31 29 82 115q51 98 56 107q10 23 35 14q12 -6 8 -19q-14 -135 -15 -235q0 -70 11 -104q0 -18 4 -29h6z" glyph-name="u" horiz-adv-x="290" unicode="u"/><glyph d="M422 717q16 14 31 -2q8 -10 0 -19q-94 -94 -172 -53q-8 4 -21.5 15.5t-17.5 13.5t-9.5 7t-7.5 7q8 -4 -8 -14q-10 -16 -35 -74q-8 -31 -18 -91.5t-17 -90.5q-23 -143 -49 -201q-16 -25 -39 -6q-37 57 -55 158q-8 119 -14 178q-2 33 -2 96.5t-2 93.5q0 80 18 94q6 4 31 5 q10 -4 10 -19l-10 -16v-4q-6 -20 -6 -60q4 -31 4 -88t2 -84q10 -156 14 -176q8 -74 25 -119q4 12 20 74q2 18 9.5 50t9.5 48q25 154 39 187q12 39 38.5 70.5t59.5 9.5q10 -4 24.5 -16.5t28.5 -18.5t31 -4q45 6 88 49z" glyph-name="v" horiz-adv-x="421" unicode="v"/><glyph d="M575 721q10 10 27 -2q8 -6 -2 -12q-53 -57 -116.5 -83t-135.5 3q-8 -20 -43 -152q-23 -88 -45 -119q-20 -16 -35 6q-14 33 -24.5 73t-12.5 70t-6 77t-6 69q-12 -55 -14 -63q-47 -170 -60 -207q-43 -131 -98 -137q-45 -6 -68.5 32.5t-23.5 85.5q0 53 12.5 115t25.5 105 t38.5 113.5t36.5 103.5q4 10 17 9t21 -9q6 -4 7 -39q4 -4 -4.5 -6t-12.5 2q-51 -145 -67 -207q-20 -74 -25 -127q-12 -66 0 -105q10 -23 19 -34q6 -4 10 -9h6l18 19q18 33 21 35q45 94 78 235q10 35 30 113q4 20 25 69q4 10 19.5 10.5t19.5 -10.5q12 -51 18 -161.5 t21 -167.5q16 37 24 88q35 131 45 158q2 10 16.5 11t22.5 -5q14 -14 29.5 -20.5t34 -4.5t33 5t35 14.5t31.5 18.5t31.5 21.5t26.5 18.5z" glyph-name="w" horiz-adv-x="585" unicode="w"/><glyph d="M408 707q8 8 22 0.5t8 -21.5q-18 -23 -58 -73t-61 -74q-84 -92 -143 -99q-55 -4 -113 60q-2 -2 -14 -21q-2 -2 -7 -9t-9 -12t-10.5 -13.5t-12.5 -12.5t-12 -7t-12 -3t-11 4q-8 8 0 14q-2 2 5 6v5q0 4 6 4l4 6q8 6 14 18q6 10 18.5 24.5t16.5 20.5q0 2 3 4t3 7q0 2 -3 4 t-3 6q-53 117 -49 180q0 18 19.5 17t19.5 -17q8 -80 45 -152q12 29 39 64q53 82 80 108q37 49 67 54q12 6 21 -4q4 -8 -7 -15q-33 -27 -67 -73q-25 -31 -80 -119q-10 -10 -33 -49q39 -82 92 -64q16 8 36 23.5t29 24.5t32.5 36t25.5 29q8 10 27.5 37.5t36.5 47.5t35 34z" glyph-name="x" horiz-adv-x="417" unicode="x"/><glyph d="M600 707q14 14 27 -2q8 -10 -2 -19q-109 -102 -285 -348q-10 -12 -22.5 -33.5t-18.5 -30.5q-2 -25 -4 -78t-4 -79q-27 -211 -55 -408q-29 -188 -60 -276q-39 -131 -106 -162q-33 -23 -68 -11.5t-47 50.5q-16 82 10 211q55 340 162 540q70 125 129 218q6 219 0 438 q-27 -37 -70 -108.5t-59 -98.5q-27 -51 -57 -98q-33 -47 -60 -60q-27 -8 -40 -1t-16 39t-2 51.5t3 37.5l31 148q10 61 10 69v49q2 10 14.5 14.5t18.5 -3.5q10 -23 6 -35v-4q4 -59 -31 -193q-18 -88 -8 -127v-16q8 12 8 16q47 51 109 166q10 18 31.5 55t35 58.5t35 51.5 t41.5 52q4 6 13.5 8.5t16.5 -3t9 -15.5q8 -313 4 -428q6 8 19.5 27.5t21.5 27.5q149 216 260 310zM221 -111q23 166 29 316q-76 -119 -131 -246q-45 -106 -80 -260q-39 -180 -43 -252q-6 -33 -6 -106q2 -4 4 -11.5t3 -12.5t4 -11t6 -9.5t7 -5.5q0 -10 15 0q31 8 41 19 q18 16 43 74q31 72 49 148.5t36.5 203t22.5 153.5z" glyph-name="y" horiz-adv-x="593" unicode="y"/><glyph d="M575 707q6 6 14.5 7t13.5 -6.5t1 -15.5q-119 -180 -176 -256q-82 -109 -143 -182q0 -12 -2 -34.5t-2 -35.5q-18 -104 -60 -225q-47 -137 -69 -176q-18 -45 -36 -75t-50.5 -60.5t-69.5 -28.5q-43 2 -57.5 39t-7 73t19.5 66q35 109 123 240q53 80 172 227v4q0 129 -39 172 q-51 63 -172 35q-27 0 -29 14q0 6 4 11q10 12 73.5 93t102.5 118q-45 -14 -108 -25q-59 -10 -88 -4q-14 6 -15 18v17q0 12 15 18q23 0 30 -14v-4q12 -6 50 4q10 0 34.5 7t28.5 7q20 6 62.5 18.5t64.5 16.5q12 0 22.5 -12.5t-1.5 -22.5q-76 -47 -203 -215q68 6 119 -20 q66 -41 77 -109q10 -41 11 -74q45 53 55 70q14 19 235 320zM133 -164q88 229 103 354q-12 -18 -37 -49.5t-37 -48.5q-104 -137 -158 -266q-29 -78 -29 -117q0 -29 11.5 -47t33.5 -2q18 14 37 37.5t28 41t25.5 52.5t22.5 45z" glyph-name="z" horiz-adv-x="575" unicode="z"/><glyph d="M143 795q82 90 82 256q0 43 -4 92t-13 113.5t-11 93.5q0 193 34 284q33 82 93 115q33 23 66.5 12.5t47.5 -47.5q2 -6 -7 -10t-13 0q-45 33 -64 25q-10 -4 -20 -13.5t-21.5 -22t-17.5 -18.5q-37 -76 -45 -129q-10 -61 0 -270q29 -215 16 -299q-12 -111 -73 -182 q49 -39 49 -177q0 -72 -31 -251q0 -2 -5 -41t-5 -46.5t-3 -41t-3 -46t-1 -42t1 -46t4 -40t7 -44t11 -40.5q8 -41 57 -99q59 -59 95 -59q18 0 28 24q6 18 33 11q12 -4 8 -17q-31 -59 -90 -53q-37 4 -92 59q-39 31 -70 84q-31 74 -39 191q0 61 35 315q23 190 11 264 q0 51 -46 74q-8 0 -8 8.5t4 12.5z" glyph-name="braceleft" horiz-adv-x="505" unicode="{"/><glyph d="M186 1262q10 -41 11 -74q-6 -41 0 -84q-2 -27 -2 -82t-2 -84q-6 -104 -7 -326q-8 -412 -39 -639q-4 -20 -28 -18q-18 2 -17 18q10 61 17.5 122t11.5 139.5t5 117.5t4 142.5t3 123.5q0 51 2 158t2 162q0 106 5 162q-6 45 0 84q0 8 -3.5 33.5t-1.5 39.5q4 18 29 17 q14 0 10 -12z" glyph-name="bar" horiz-adv-x="305" unicode="|"/><glyph d="M389 774q4 -4 0 -11t-10 -7q-41 -18 -49 -74q-16 -66 -6 -266q23 -229 16 -314q-10 -113 -49 -192q-25 -41 -74 -84q-51 -51 -98 -59q-61 -6 -84 55q-8 12 12 16q23 4 27 -12q10 -25 28 -25q35 0 95 60q49 49 69 98q29 82 32 192.5t-7 196.5q-20 164 -17 250 q0 2 2.5 20.5t3.5 24.5t4 23.5t5 25.5t7 22.5t11 24t14.5 19.5t18.5 16q-23 27 -38 58.5t-20.5 69.5t-8.5 66.5t1.5 76t7.5 70t12 75.5t11 67q29 176 19 271q-6 66 -39 127q-33 47 -54 53q-25 10 -63 -25q-4 -4 -13.5 0.5t-7.5 10.5q14 37 49 47t64 -12q51 -29 88 -113 q33 -100 17 -285q-4 -23 -17.5 -92.5t-19.5 -116.5t-9 -92q-8 -170 70 -256z" glyph-name="braceright" horiz-adv-x="495" unicode="}"/><glyph d="M246 795q31 -23 10 -45q-16 -23 -49 -9q-10 0 -27.5 2t-27.5 2q-8 2 -10.5 -1t-5.5 -9t-9 -10h-18q-10 12 -8.5 27.5t12.5 21.5q12 6 55 6q6 0 24.5 -5t28.5 -5v21q11 10 25 4z" glyph-name="asciitilde" horiz-adv-x="348" unicode="~"/><glyph d="M88 180q-14 84 6 250q8 53 17.5 149.5t11.5 112.5q16 289 45 541q4 18 26.5 15t22.5 -21q-14 -109 -49 -541q-2 -16 -25 -256q-16 -119 -16 -211q6 -4 6 -10v-29q-4 -16 -22.5 -17t-22.5 17zM172 1405q-12 12 -4 18q0 4 2 7.5t6 5.5t6 2q10 0 15 -4h4q16 0 20 -11 q4 -4 4 -14q-2 -2 -4 -7t-4 -7q-6 -10 -24 -11q-21 9 -21 21z" glyph-name="exclamdown" horiz-adv-x="294" unicode=""/><glyph d="M344 651q18 12 31 -2q6 -8 -2 -16q-14 -18 -68 -55q-47 -33 -112 -58q-6 0 -31 -10q-4 -18 -11.5 -61t-13.5 -62q0 -10 -2 -29.5t-2 -29.5v-15q6 -8 0 -20q-14 -10 -20 -10q-18 0 -19 16q-10 8 -10 43q4 49 25 147q0 4 2 8.5t2 6.5q-88 0 -88 59q-4 43 34 99q49 61 88 83 q16 6 21 11l43 221q0 18 25 18h6q10 0 16 -8t2 -16q0 -12 -10 -29q0 -10 -29 -172h25q33 -8 45 -30.5t-10 -47.5q-8 -4 -16.5 -4t-8.5 8q0 29 -14 35q-16 6 -31 0q-29 -119 -39 -178q6 2 22.5 10t22.5 10q94 55 127 78zM102 313zM74 553q18 -14 45 -14q4 29 16 80t17 77 q-2 -2 -5 -6q-2 -4 -4 -4q-39 -29 -59 -74q-18 -45 -10 -59z" glyph-name="cent" horiz-adv-x="428" unicode=""/><glyph d="M717 293q55 -4 94 -28.5t29 -74.5q-4 -14 -23.5 -12t-19.5 17v6q4 25 -12.5 38t-47 16t-50 2t-44.5 -3q-133 -6 -299 -74q-12 -8 -36.5 -19t-37.5 -20q-10 -45 -39 -123q-23 -59 -40 -95t-52 -81t-76 -65q-23 -10 -34 10q-41 57 -19 137q33 104 183 211q4 4 38 25 q10 37 33 99.5t31 88.5q14 37 94 270q2 8 9.5 31t9.5 33q-14 0 -19 -6q-10 0 -31.5 -3t-39 -3t-27.5 6h-6v0q-23 14 0 31q14 4 55 4q14 4 34.5 6t28.5 4h19q74 225 168 358q63 102 127 80q35 -12 55 -59q2 -12 7 -37t7 -37q2 -6 -1 -44t6 -44q12 -18 -11 -25q-20 -6 -28 9 q-8 14 -10.5 28.5t-2.5 35t-2 30.5q0 39 -14 74q-2 4 -5 11t-7 13t-9 10h-10q-25 -12 -53 -55q-31 -43 -64 -102q-66 -125 -98 -236q45 10 64 10q147 25 147 -24q0 -14 -18.5 -16.5t-20.5 10.5h-6h-39q-20 0 -56 -6.5t-46 -8.5q-6 0 -22.5 -2t-22.5 -2q-12 -37 -31.5 -102.5 t-37 -118.5t-34.5 -98q-47 -137 -63 -172q96 41 137 53q187 49 289 39zM147 -55q39 78 60 147q-61 -51 -70 -59q-119 -119 -78 -207q53 41 88 119z" glyph-name="sterling" horiz-adv-x="899" unicode=""/><glyph d="M88 1454q14 0 21 -10v-10v-4q0 -16 -21 -17q-18 0 -18 17v4q-9 20 18 20zM207 1444v-10q0 -4 -6 -4v-7q0 -2 -2 -4l-6 -6q-16 0 -25 6q-6 0 -6 4q-4 6 -4 15l4 6q14 8 14 10q15 6 31 -10zM197 1444z" glyph-name="dieresis" horiz-adv-x="309" unicode=""/><glyph d="M397 1247q4 10 17.5 12.5t17.5 -8.5q14 -27 -5 -50t-48 -38q-78 -45 -123 -39q-35 2 -43 31t12 57q47 70 80 74q16 4 28.5 -6t0.5 -29q-12 -12 -25 -4v-6q-2 -2 -5 -4t-5 -5t-4 -5q-4 -6 -11.5 -14.5t-13.5 -14.5q-12 -29 -10 -35v0h10q10 0 21 4q102 33 106 80z M256 1163zM545 1339q41 -84 20 -155q-31 -68 -94 -115q-115 -82 -240 -68q-59 12 -100 56.5t-37 101.5q6 115 107 215q49 49 73 49q6 6 17 7q-4 0 -4 5t4 9q47 43 98 31.5t93.5 -50.5t62.5 -86zM516 1188q20 55 -4 123q-43 84 -84 108q-51 39 -113 0q14 -10 15 -30 q-4 -6 -13.5 -7.5t-11.5 2.5q-2 2 -5 4.5t-5 4.5t-4 2l-6 -6q-23 -6 -39 -29q-55 -55 -84 -123q-25 -70 -19 -102q12 -61 68 -84q104 -43 227 49q60 45 78 88z" glyph-name="copyright" horiz-adv-x="653" unicode=""/><glyph d="M551 1370q43 -80 18 -153q-20 -57 -92 -113q-127 -90 -241 -68q-57 10 -98.5 55.5t-39.5 100.5q6 106 109 217q41 45 74 49h14q-8 8 0 15q47 47 99 35.5t94.5 -50.5t62.5 -88zM520 1217q20 55 -4 122q-35 76 -84 115q-49 31 -113 0v-6q16 -6 11 -25q0 -8 -8.5 -10 t-12.5 6q-8 0 -14 11l-4 -7q-16 -4 -41 -28q-53 -57 -82 -123q-27 -57 -21 -109q18 -63 70 -84q100 -39 225 56q55 29 78 82zM389 1223q39 -29 39 -49q0 -10 -12.5 -14.5t-22.5 -0.5q-8 4 -20.5 16.5t-18.5 16.5q-18 20 -49 31q-6 0 -10 4q0 -18 10 -35q2 -12 -6 -17.5 t-19.5 -4.5t-19.5 8q-18 31 -10 88q4 10 6 24.5t4 20.5q0 25 10 28q63 45 103 21q41 -33 24 -78q-8 -20 -32 -45q8 -8 24 -14zM299 1251l6 6q49 16 49 54q-6 31 -45 4q-10 -46 -10 -64z" glyph-name="registered" horiz-adv-x="643" unicode=""/><glyph d="M270 1462q10 -27 -7 -51.5t-46 -36.5q-23 -10 -52.5 -1t-31.5 36q-14 61 53 78q8 4 15 2q4 -2 6 -2q43 10 63 -25zM197 1409q12 4 22 15.5t6 23.5v6h-4q-4 2 -6 1t-8 -5t-10 -6h-11q-14 -8 -14 -25q5 -16 25 -10z" glyph-name="degree" horiz-adv-x="403" unicode=""/><glyph d="M575 461q37 -18 -6 -49q-6 -6 -19 -3t-13 17v0h-21h-39q-31 -4 -84 -4q-29 -2 -86 -8t-86 -8q-20 -4 -24 18q-6 16 14 16q168 20 246 21q25 4 69.5 4t48.5 -4zM684 868q12 0 19.5 -9t-1.5 -19q-14 -27 -59 -35q-10 -4 -21.5 4t-7.5 14q-127 -8 -186 -18q0 -47 7 -132 t7 -104q2 -12 -8 -17t-22.5 -1t-14.5 12q-18 102 -18 236q-100 -10 -242 -43q-14 0 -18 4q-8 6 -11.5 8t1.5 6q0 12 18 21q117 29 252 45q0 141 18 204q4 18 24.5 15.5t20.5 -19.5q0 -14 -4 -24q-10 -88 -10 -172q143 24 256 24z" glyph-name="plusminus" horiz-adv-x="796" unicode=""/><glyph d="M182 1507q12 4 17.5 -6t-6.5 -18q-10 -4 -30 -11.5t-30 -13.5q-16 -6 -35 -24l-8 -4q-8 -4 -12 -11q-6 -8 -16.5 -5t-8.5 16q0 18 6 24q0 2 11 8q10 14 32 25q49 20 80 20z" glyph-name="acute" horiz-adv-x="235" unicode=""/><glyph d="M201 682v-20q0 -10 -8 -19l-21 -10h-25h-20q-8 10 -8 18q-6 2 -9.5 6.5t-3.5 9.5v8v7l3 4q33 37 63 21l10 -11q11 -10 19 -14zM172 643z" glyph-name="periodcentered" horiz-adv-x="382" unicode=""/><glyph d="M225 -371q16 -39 0 -78q-18 -43 -49 -49q-23 -4 -38 14.5t-19 45.5q0 10 14 11t19 -7q14 -23 16 -25q4 4 8 10q6 4 6 19q8 33 4 41q-4 10 -24 4q-12 -4 -22.5 1t-6.5 19q12 82 14 89q8 12 21.5 10t13.5 -17q6 -25 -6 -63q39 0 49 -25z" glyph-name="cedilla" horiz-adv-x="315" unicode=""/><glyph d="M250 166q-55 -10 -98 35t-43 102q-14 125 98 256q76 123 186 137q2 70 18.5 191t20.5 168q0 4 -1 22.5t-1 29.5t2 32.5t5 32t10.5 25.5t17.5 14t27 -3q14 2 12 -8q0 -10 -12 -22v-4v-15q-4 -16 -5 -55q-4 -12 -4 -42t-6 -46q-39 -195 -39 -324q4 -16 -20 -30 q-29 0 -94 -35q-125 -117 -152 -240q-20 -63 -4 -129q18 -53 63 -53q49 6 78 45q68 63 88 102q66 129 60 211q-18 10 -11 21v4l7 6q4 8 24 8q18 -2 26.5 -17.5t6.5 -38t-6 -40t-8 -31.5q-10 -29 -32 -81t-32 -77q-35 -45 -54.5 -68.5t-56 -51t-71.5 -31.5zM492 1178h-21h21z M502 1380q-10 0 -15 9v6q0 4 5 14v4q4 16 24 17q20 -12 21 -17v-8v-10q-2 -2 -4.5 -6.5t-5.5 -6.5t-7 -2q-4 -6 -8 -6zM496 1413z" glyph-name="questiondown" horiz-adv-x="516" unicode=""/><glyph d="M963 987q12 4 19 -8t-3 -23q-47 -35 -70 -38q-18 -4 -25 11t11 23q-221 -16 -256 -20q0 -6 -2 -14.5t-2 -10.5q-92 -692 -115 -923q-25 -203 -24 -355q0 -74 10 -102q0 -4 3 -8t3 -6l4 -11q16 0 19.5 -15t-15.5 -19q2 2 -4 0h-10h-14q-2 2 -21 14q-10 35 -14 45 q-14 74 -4 162q0 70 5 150.5t9 133t17.5 153.5t16.5 131t20.5 152.5t19.5 135.5q6 61 23.5 189t25.5 194q-27 -2 -81 -9.5t-81 -11.5q-72 -8 -123 -18q-16 -45 -48 -138.5t-50 -142.5q-14 -47 -84 -235q-49 -168 -70 -252q-2 -10 -11 -44t-13 -54q-4 -14 -4 -54l-5 -10 q10 -4 16.5 -13t-1.5 -16q-41 -20 -55 15q-6 33 6 78q10 72 49 202q33 131 108 338q43 141 107 320q-12 -2 -33.5 -7.5t-34.5 -7.5q-127 -25 -227 -24q-4 0 -9 5t-6 11t7 8q8 6 18 10.5t24.5 6.5t20.5 4q4 2 9.5 0t6.5 -5t-1 -5q10 0 29.5 2t29.5 2q53 8 109 24q14 4 39.5 6 t33.5 5q45 129 103 245q74 160 151 226q39 39 94 55q51 10 64 -6q10 -14 10 -58q0 -51 -10 -108q-23 -225 -35 -305q150 20 320 20zM442 942q18 4 152 21q33 197 41 362q4 31 4 84h-10q-23 -10 -39 -20q-80 -49 -158 -197q-80 -164 -113 -264q14 2 56 7t67 7zM733 1528 q16 -20 0 -21q-23 -10 -98 21q-74 35 -94 49q-4 0 -4 14q0 10 4 11l10 4h10q2 -2 9.5 -7.5t9.5 -7.5q8 -4 27.5 -11t27.5 -13q12 -6 49 -18.5t49 -20.5zM537 1591zM537 1591zM537 1591z" glyph-name="Agrave" horiz-adv-x="722" unicode=""/><glyph d="M963 987q12 4 19 -8t-3 -23q-47 -35 -70 -38q-18 -4 -25 11t11 23q-221 -16 -256 -20q0 -6 -2 -14.5t-2 -10.5q-92 -692 -115 -923q-25 -203 -24 -355q0 -74 10 -102q0 -4 3 -8t3 -6l4 -11q16 0 19.5 -15t-15.5 -19q2 2 -4 0h-10h-14q-2 2 -21 14q-10 35 -14 45 q-14 74 -4 162q0 70 5 150.5t9 133t17.5 153.5t16.5 131t20.5 152.5t19.5 135.5q6 61 23.5 189t25.5 194q-27 -2 -81 -9.5t-81 -11.5q-72 -8 -123 -18q-16 -45 -48 -138.5t-50 -142.5q-14 -47 -84 -235q-49 -168 -70 -252q-2 -10 -11 -44t-13 -54q-4 -14 -4 -54l-5 -10 q10 -4 16.5 -13t-1.5 -16q-41 -20 -55 15q-6 33 6 78q10 72 49 202q33 131 108 338q43 141 107 320q-12 -2 -33.5 -7.5t-34.5 -7.5q-127 -25 -227 -24q-4 0 -9 5t-6 11t7 8q8 6 18 10.5t24.5 6.5t20.5 4q4 2 9.5 0t6.5 -5t-1 -5q10 0 29.5 2t29.5 2q53 8 109 24q14 4 39.5 6 t33.5 5q45 129 103 245q74 160 151 226q39 39 94 55q51 10 64 -6q10 -14 10 -58q0 -51 -10 -108q-23 -225 -35 -305q150 20 320 20zM442 942q18 4 152 21q33 197 41 362q4 31 4 84h-10q-23 -10 -39 -20q-80 -49 -158 -197q-80 -164 -113 -264q14 2 56 7t67 7zM618 1577 q63 33 89 20q10 -4 6 -16q-2 -4 -4 -7t-6.5 -5t-7.5 -3t-8 -2t-9 -3q-39 -16 -64 -25q-43 -16 -63 -29q-39 -20 -55 -10q-8 0 -9 6v4q-2 6 -2 8.5t5.5 6.5t5.5 6q34 14 122 49z" glyph-name="Aacute" horiz-adv-x="722" unicode=""/><glyph d="M963 987q12 4 19 -8t-3 -23q-47 -35 -70 -38q-18 -4 -25 11t11 23q-221 -16 -256 -20q0 -6 -2 -14.5t-2 -10.5q-92 -692 -115 -923q-25 -203 -24 -355q0 -74 10 -102q0 -4 3 -8t3 -6l4 -11q16 0 19.5 -15t-15.5 -19q2 2 -4 0h-10h-14q-2 2 -21 14q-10 35 -14 45 q-14 74 -4 162q0 70 5 150.5t9 133t17.5 153.5t16.5 131t20.5 152.5t19.5 135.5q6 61 23.5 189t25.5 194q-27 -2 -81 -9.5t-81 -11.5q-72 -8 -123 -18q-16 -45 -48 -138.5t-50 -142.5q-14 -47 -84 -235q-49 -168 -70 -252q-2 -10 -11 -44t-13 -54q-4 -14 -4 -54l-5 -10 q10 -4 16.5 -13t-1.5 -16q-41 -20 -55 15q-6 33 6 78q10 72 49 202q33 131 108 338q43 141 107 320q-12 -2 -33.5 -7.5t-34.5 -7.5q-127 -25 -227 -24q-4 0 -9 5t-6 11t7 8q8 6 18 10.5t24.5 6.5t20.5 4q4 2 9.5 0t6.5 -5t-1 -5q10 0 29.5 2t29.5 2q53 8 109 24q14 4 39.5 6 t33.5 5q45 129 103 245q74 160 151 226q39 39 94 55q51 10 64 -6q10 -14 10 -58q0 -51 -10 -108q-23 -225 -35 -305q150 20 320 20zM442 942q18 4 152 21q33 197 41 362q4 31 4 84h-10q-23 -10 -39 -20q-80 -49 -158 -197q-80 -164 -113 -264q14 2 56 7t67 7zM717 1581 q35 -31 35 -49q0 -14 -13.5 -17.5t-21.5 3t-22.5 24t-20.5 25.5l-35 35q-8 -8 -25.5 -23.5t-23.5 -22.5q-25 -35 -45 -34q-6 -4 -14.5 0t-4.5 10q-4 10 7.5 24.5t21.5 20.5q10 10 29.5 28.5t29.5 28.5q14 23 39 6q8 -8 31 -27.5t33 -31.5z" glyph-name="Acircumflex" horiz-adv-x="722" unicode=""/><glyph d="M963 987q12 4 19 -8t-3 -23q-47 -35 -70 -38q-18 -4 -25 11t11 23q-221 -16 -256 -20q0 -6 -2 -14.5t-2 -10.5q-92 -692 -115 -923q-25 -203 -24 -355q0 -74 10 -102q0 -4 3 -8t3 -6l4 -11q16 0 19.5 -15t-15.5 -19q2 2 -4 0h-10h-14q-2 2 -21 14q-10 35 -14 45 q-14 74 -4 162q0 70 5 150.5t9 133t17.5 153.5t16.5 131t20.5 152.5t19.5 135.5q6 61 23.5 189t25.5 194q-27 -2 -81 -9.5t-81 -11.5q-72 -8 -123 -18q-16 -45 -48 -138.5t-50 -142.5q-14 -47 -84 -235q-49 -168 -70 -252q-2 -10 -11 -44t-13 -54q-4 -14 -4 -54l-5 -10 q10 -4 16.5 -13t-1.5 -16q-41 -20 -55 15q-6 33 6 78q10 72 49 202q33 131 108 338q43 141 107 320q-12 -2 -33.5 -7.5t-34.5 -7.5q-127 -25 -227 -24q-4 0 -9 5t-6 11t7 8q8 6 18 10.5t24.5 6.5t20.5 4q4 2 9.5 0t6.5 -5t-1 -5q10 0 29.5 2t29.5 2q53 8 109 24q14 4 39.5 6 t33.5 5q45 129 103 245q74 160 151 226q39 39 94 55q51 10 64 -6q10 -14 10 -58q0 -51 -10 -108q-23 -225 -35 -305q150 20 320 20zM442 942q18 4 152 21q33 197 41 362q4 31 4 84h-10q-23 -10 -39 -20q-80 -49 -158 -197q-80 -164 -113 -264q14 2 56 7t67 7zM684 1567 q33 -23 8 -45q-12 -20 -49 -11q-8 0 -25.5 3.5t-27.5 3.5q-6 2 -10.5 0t-4.5 -5.5t-3 -7.5t-7 -8h-20q-10 10 -8 25.5t14 23.5q10 6 53 6q6 0 25.5 -5t29.5 -5v19q9 12 25 6z" glyph-name="Atilde" horiz-adv-x="722" unicode=""/><glyph d="M963 987q12 4 19 -8t-3 -23q-47 -35 -70 -38q-18 -4 -25 11t11 23q-221 -16 -256 -20q0 -6 -2 -14.5t-2 -10.5q-92 -692 -115 -923q-25 -203 -24 -355q0 -74 10 -102q0 -4 3 -8t3 -6l4 -11q16 0 19.5 -15t-15.5 -19q2 2 -4 0h-10h-14q-2 2 -21 14q-10 35 -14 45 q-14 74 -4 162q0 70 5 150.5t9 133t17.5 153.5t16.5 131t20.5 152.5t19.5 135.5q6 61 23.5 189t25.5 194q-27 -2 -81 -9.5t-81 -11.5q-72 -8 -123 -18q-16 -45 -48 -138.5t-50 -142.5q-14 -47 -84 -235q-49 -168 -70 -252q-2 -10 -11 -44t-13 -54q-4 -14 -4 -54l-5 -10 q10 -4 16.5 -13t-1.5 -16q-41 -20 -55 15q-6 33 6 78q10 72 49 202q33 131 108 338q43 141 107 320q-12 -2 -33.5 -7.5t-34.5 -7.5q-127 -25 -227 -24q-4 0 -9 5t-6 11t7 8q8 6 18 10.5t24.5 6.5t20.5 4q4 2 9.5 0t6.5 -5t-1 -5q10 0 29.5 2t29.5 2q53 8 109 24q14 4 39.5 6 t33.5 5q45 129 103 245q74 160 151 226q39 39 94 55q51 10 64 -6q10 -14 10 -58q0 -51 -10 -108q-23 -225 -35 -305q150 20 320 20zM442 942q18 4 152 21q33 197 41 362q4 31 4 84h-10q-23 -10 -39 -20q-80 -49 -158 -197q-80 -164 -113 -264q14 2 56 7t67 7zM575 1556 q14 0 19 -10v-10v-4q0 -14 -19 -14q-20 0 -20 14v4q-7 20 20 20zM692 1546v-10q0 -4 -4 -4v-4q0 -4 -10 -10q-14 0 -25 4q-4 0 -4 6q-6 4 -6 14l6 4q2 4 7.5 6t7.5 4q16 6 28 -10zM684 1546z" glyph-name="Adieresis" horiz-adv-x="722" unicode=""/><glyph d="M963 987q12 4 19 -8t-3 -23q-47 -35 -70 -38q-18 -4 -25 11t11 23q-221 -16 -256 -20q0 -6 -2 -14.5t-2 -10.5q-92 -692 -115 -923q-25 -203 -24 -355q0 -74 10 -102q0 -4 3 -8t3 -6l4 -11q16 0 19.5 -15t-15.5 -19q2 2 -4 0h-10h-14q-2 2 -21 14q-10 35 -14 45 q-14 74 -4 162q0 70 5 150.5t9 133t17.5 153.5t16.5 131t20.5 152.5t19.5 135.5q6 61 23.5 189t25.5 194q-27 -2 -81 -9.5t-81 -11.5q-72 -8 -123 -18q-16 -45 -48 -138.5t-50 -142.5q-14 -47 -84 -235q-49 -168 -70 -252q-2 -10 -11 -44t-13 -54q-4 -14 -4 -54l-5 -10 q10 -4 16.5 -13t-1.5 -16q-41 -20 -55 15q-6 33 6 78q10 72 49 202q33 131 108 338q43 141 107 320q-12 -2 -33.5 -7.5t-34.5 -7.5q-127 -25 -227 -24q-4 0 -9 5t-6 11t7 8q8 6 18 10.5t24.5 6.5t20.5 4q4 2 9.5 0t6.5 -5t-1 -5q10 0 29.5 2t29.5 2q53 8 109 24q14 4 39.5 6 t33.5 5q45 129 103 245q74 160 151 226q39 39 94 55q51 10 64 -6q10 -14 10 -58q0 -51 -10 -108q-23 -225 -35 -305q150 20 320 20zM442 942q18 4 152 21q33 197 41 362q4 31 4 84h-10q-23 -10 -39 -20q-80 -49 -158 -197q-80 -164 -113 -264q14 2 56 7t67 7zM702 1595 q10 -27 -7 -51t-46 -37q-23 -10 -52.5 -0.5t-31.5 35.5q-14 57 53 78h21q43 10 63 -25zM629 1542q37 10 30 39v4h-6q0 2 -24 -8h-11q-14 -10 -14 -25q7 -18 25 -10z" glyph-name="Aring" horiz-adv-x="722" unicode=""/><glyph d="M1372 1272q39 -20 0 -55q-8 -4 -17 -3.5t-13.5 6t-0.5 13.5l7 4q-10 4 -31 4q-35 0 -113 -8q-47 -6 -140 -17.5t-140 -17.5q-27 -6 -79 -13t-79 -11q0 -4 -2 -8.5t-2 -6.5q4 0 4 -6q6 -6 6 -43q-6 -43 -18.5 -122t-16.5 -109q184 18 310 18q16 0 21 -11.5t-7 -21.5 q-31 -35 -68 -41q-18 -4 -23 11.5t13 23.5q-135 -6 -256 -18q-2 -16 -7 -51t-7 -54q-76 -545 -109 -846v-8q31 20 154 92q158 94 254 138q168 66 256 20q12 -4 12 -12t-8 -13.5t-19 -3.5q-92 29 -241 -41q-63 -27 -230 -122q-29 -18 -91 -55.5t-91 -57.5q-14 -137 -14 -289 q0 -70 8 -104q0 -10 6 -15v-10q18 0 22.5 -15.5t-18.5 -19.5h-6h2h-6q-8 0 -14 6q-12 0 -19 15q-16 16 -16 39q-8 55 -8 168q2 31 4 92t4 90l-10.5 -10.5t-14.5 -10.5q-25 -113 -82 -157q-12 -8 -28.5 -2t-16.5 22q0 74 78 152v10l31 147q10 66 25.5 138.5t34 159.5 t28.5 135q12 61 39.5 204.5t44.5 219.5q0 8 2 22t2 21q-27 -2 -81 -9.5t-81 -9.5q-20 -2 -62 -7t-65 -9q-39 -102 -94 -285q-68 -182 -84 -235q-16 -49 -43 -141.5t-31 -108.5q-2 -18 -9 -50t-9 -45q-10 -35 -10 -59v-10q31 -8 10 -29q-8 -6 -18.5 -7t-19.5 4t-11 17 q-4 10 -4 24.5t2 31t2 24.5q8 39 25.5 107.5t23.5 93.5q0 2 112 344q98 291 109 316q-8 -2 -32.5 -7.5t-37.5 -9.5q-133 -25 -225 -24q-12 0 -19.5 11t3.5 19q10 4 69 15q14 6 15 -11q10 0 29.5 3.5t29.5 3.5q8 2 48 10t61 14q49 8 67 8q90 215 105 246q6 12 18 36.5 t21 37.5q-57 -12 -64 16q-2 4 0 8t7 6.5t7 0.5h15h20q8 0 19.5 2t15.5 2q49 76 98 118q39 39 88 54q47 16 68 -4q6 -8 6 -60q0 -49 -6 -74q45 6 131 19.5t131 19.5q236 29 254 31q72 0 90 -10zM678 1296q-47 -27 -109 -112q49 8 74 14q29 0 80 10v25v82h-6q-29 -9 -39 -19z M541 -164l10 10q2 31 9 92.5t9 90.5q-6 -45 -28 -164q0 -4 -2 -14.5t-2 -18.5zM684 868q18 139 33 299q-72 -8 -103 -14q-8 -2 -31.5 -4t-37.5 -6q-2 -4 -8.5 -13.5t-10.5 -16.5t-6 -13q-39 -70 -117 -266q37 6 123 14q74 14 158 20z" glyph-name="AE" horiz-adv-x="1249" unicode=""/><glyph d="M727 725q12 18 35 2q14 -10 4 -20q-29 -37 -107 -179q-55 -100 -139 -274q-80 -156 -98 -186q-84 -160 -141 -211q-63 -72 -129 -66q-57 8 -107 84q-27 45 -38 98.5t-10 101.5t3 105q10 215 20 275q27 256 103 512q57 168 102 250q80 127 154 157q55 29 120.5 19.5 t110.5 -54.5q72 -78 113 -264q8 -18 -16 -22q-20 -2 -23 12l-11 44t-14.5 50.5t-16.5 45t-20.5 48t-25.5 38t-35 34.5q-51 35 -104.5 32t-98.5 -42q-74 -61 -127 -197q-37 -72 -88 -250q-63 -238 -90 -516q-2 -23 -4 -66.5t-4 -66.5q0 -27 -3 -83t-3 -83q12 -102 39 -147 q47 -94 108 -70q27 10 50.5 28.5t43 46.5t32 47t30.5 55t27 48q20 33 51 94.5t37 73.5l133 260q67 140 137 236zM225 -371q16 -39 0 -78q-18 -43 -49 -49q-23 -4 -38 14.5t-19 45.5q0 10 14 11t19 -7q14 -23 16 -25q4 4 8 10q6 4 6 19q8 33 4 41q-4 10 -24 4q-12 -4 -22.5 1 t-6.5 19q12 82 14 89q8 12 21.5 10t13.5 -17q6 -25 -6 -63q39 0 49 -25z" glyph-name="Ccedilla" horiz-adv-x="747" unicode=""/><glyph d="M752 152q10 -8 10 -17.5t-7 -13.5t-18 0q-98 29 -241 -39q-92 -39 -230 -123q-29 -18 -98.5 -60t-104.5 -67q-41 -35 -59 -49q-25 -113 -88 -158q-10 -8 -25.5 -4t-13.5 19q0 72 74 157q4 0 4 10l31 148q8 66 23.5 138.5t34.5 158.5t30 135q8 35 20 106.5t19 104.5 q-63 -10 -84 10q-18 10 -4 25q4 10 28 10q6 -6 10 -6h7h4q35 0 49 6q27 123 39 215q14 68 35 197q2 12 7 36.5t7 36.5v11q-4 4 -4 14q18 39 43 21q6 -6 6 -46q-47 -311 -84 -477q27 4 77 13.5t56 11.5q74 20 176 45q12 2 41 7t41 6t37 -3q18 -4 14 -19.5t-20 -15.5h-4h-15 q-6 0 -12 -2t-12 -2q-12 -4 -37 -8t-37 -8q-33 -8 -93 -22.5t-93 -20.5q-80 -20 -123 -25q-12 -55 -34.5 -168.5t-35.5 -171.5q-72 -371 -73 -383q-2 -4 -4.5 -16t-6.5 -19q6 0 11 7q47 35 217 137q160 96 254 133q168 70 256 25zM856 1286.5q33 -18.5 -6 -53.5 q-10 -10 -25 2q-8 8 0 16v6q-10 4 -28 5q-51 0 -109 -11q-86 -10 -280 -39q-51 -6 -154.5 -19t-155.5 -19q-47 -8 -123 -15q-66 0 -69 19q0 14 20 14h11h24q8 0 28.5 3t30.5 3l49 7t54 7q233 37 389 54q154 31 250 30q61 9 94 -9.5zM516 1370q20 -20 0 -20q-23 -10 -98 20 q-82 41 -94 49q-4 0 -5 15q0 10 5 10l10 4h10q2 -2 21 -14q8 -4 26.5 -11.5t26.5 -13.5q12 -6 49 -18.5t49 -20.5zM319 1434v0v0z" glyph-name="Egrave" horiz-adv-x="600" unicode=""/><glyph d="M752 152q10 -8 10 -17.5t-7 -13.5t-18 0q-98 29 -241 -39q-92 -39 -230 -123q-29 -18 -98.5 -60t-104.5 -67q-41 -35 -59 -49q-25 -113 -88 -158q-10 -8 -25.5 -4t-13.5 19q0 72 74 157q4 0 4 10l31 148q8 66 23.5 138.5t34.5 158.5t30 135q8 35 20 106.5t19 104.5 q-63 -10 -84 10q-18 10 -4 25q4 10 28 10q6 -6 10 -6h7h4q35 0 49 6q27 123 39 215q14 68 35 197q2 12 7 36.5t7 36.5v11q-4 4 -4 14q18 39 43 21q6 -6 6 -46q-47 -311 -84 -477q27 4 77 13.5t56 11.5q74 20 176 45q12 2 41 7t41 6t37 -3q18 -4 14 -19.5t-20 -15.5h-4h-15 q-6 0 -12 -2t-12 -2q-12 -4 -37 -8t-37 -8q-33 -8 -93 -22.5t-93 -20.5q-80 -20 -123 -25q-12 -55 -34.5 -168.5t-35.5 -171.5q-72 -371 -73 -383q-2 -4 -4.5 -16t-6.5 -19q6 0 11 7q47 35 217 137q160 96 254 133q168 70 256 25zM856 1286.5q33 -18.5 -6 -53.5 q-10 -10 -25 2q-8 8 0 16v6q-10 4 -28 5q-51 0 -109 -11q-86 -10 -280 -39q-51 -6 -154.5 -19t-155.5 -19q-47 -8 -123 -15q-66 0 -69 19q0 14 20 14h11h24q8 0 28.5 3t30.5 3l49 7t54 7q233 37 389 54q154 31 250 30q61 9 94 -9.5zM446 1430q63 33 89 20q10 -4 6 -16 q-2 -4 -4 -7.5t-6.5 -5.5t-7.5 -3t-8 -2t-9 -3q-39 -16 -64 -24q-43 -16 -63 -29q-39 -20 -55 -10q-8 0 -9 6v4q-2 6 -2 8t5.5 6t5.5 6q34 15 122 50z" glyph-name="Eacute" horiz-adv-x="600" unicode=""/><glyph d="M752 152q10 -8 10 -17.5t-7 -13.5t-18 0q-98 29 -241 -39q-92 -39 -230 -123q-29 -18 -98.5 -60t-104.5 -67q-41 -35 -59 -49q-25 -113 -88 -158q-10 -8 -25.5 -4t-13.5 19q0 72 74 157q4 0 4 10l31 148q8 66 23.5 138.5t34.5 158.5t30 135q8 35 20 106.5t19 104.5 q-63 -10 -84 10q-18 10 -4 25q4 10 28 10q6 -6 10 -6h7h4q35 0 49 6q27 123 39 215q14 68 35 197q2 12 7 36.5t7 36.5v11q-4 4 -4 14q18 39 43 21q6 -6 6 -46q-47 -311 -84 -477q27 4 77 13.5t56 11.5q74 20 176 45q12 2 41 7t41 6t37 -3q18 -4 14 -19.5t-20 -15.5h-4h-15 q-6 0 -12 -2t-12 -2q-12 -4 -37 -8t-37 -8q-33 -8 -93 -22.5t-93 -20.5q-80 -20 -123 -25q-12 -55 -34.5 -168.5t-35.5 -171.5q-72 -371 -73 -383q-2 -4 -4.5 -16t-6.5 -19q6 0 11 7q47 35 217 137q160 96 254 133q168 70 256 25zM856 1286.5q33 -18.5 -6 -53.5 q-10 -10 -25 2q-8 8 0 16v6q-10 4 -28 5q-51 0 -109 -11q-86 -10 -280 -39q-51 -6 -154.5 -19t-155.5 -19q-47 -8 -123 -15q-66 0 -69 19q0 14 20 14h11h24q8 0 28.5 3t30.5 3l49 7t54 7q233 37 389 54q154 31 250 30q61 9 94 -9.5zM520 1438q35 -31 35 -49 q0 -12 -13.5 -15.5t-21.5 0.5q-6 8 -20.5 25.5t-22.5 23.5l-35 35q-6 -6 -23.5 -21.5t-25.5 -23.5q-23 -33 -45 -33q-10 -8 -18 2q-2 2 0 7q-4 10 7 25.5t21 19.5l60 59q14 20 39 4q53 -47 63 -59z" glyph-name="Ecircumflex" horiz-adv-x="600" unicode=""/><glyph d="M752 152q10 -8 10 -17.5t-7 -13.5t-18 0q-98 29 -241 -39q-92 -39 -230 -123q-29 -18 -98.5 -60t-104.5 -67q-41 -35 -59 -49q-25 -113 -88 -158q-10 -8 -25.5 -4t-13.5 19q0 72 74 157q4 0 4 10l31 148q8 66 23.5 138.5t34.5 158.5t30 135q8 35 20 106.5t19 104.5 q-63 -10 -84 10q-18 10 -4 25q4 10 28 10q6 -6 10 -6h7h4q35 0 49 6q27 123 39 215q14 68 35 197q2 12 7 36.5t7 36.5v11q-4 4 -4 14q18 39 43 21q6 -6 6 -46q-47 -311 -84 -477q27 4 77 13.5t56 11.5q74 20 176 45q12 2 41 7t41 6t37 -3q18 -4 14 -19.5t-20 -15.5h-4h-15 q-6 0 -12 -2t-12 -2q-12 -4 -37 -8t-37 -8q-33 -8 -93 -22.5t-93 -20.5q-80 -20 -123 -25q-12 -55 -34.5 -168.5t-35.5 -171.5q-72 -371 -73 -383q-2 -4 -4.5 -16t-6.5 -19q6 0 11 7q47 35 217 137q160 96 254 133q168 70 256 25zM856 1286.5q33 -18.5 -6 -53.5 q-10 -10 -25 2q-8 8 0 16v6q-10 4 -28 5q-51 0 -109 -11q-86 -10 -280 -39q-51 -6 -154.5 -19t-155.5 -19q-47 -8 -123 -15q-66 0 -69 19q0 14 20 14h11h24q8 0 28.5 3t30.5 3l49 7t54 7q233 37 389 54q154 31 250 30q61 9 94 -9.5zM408 1405q14 0 20 -10v-11v-4 q0 -16 -20 -16q-18 0 -19 16v4q-8 21 19 21zM526 1395v-11q0 -4 -6 -4v-6q0 -2 -2 -4l-6 -6q-16 0 -25 6q-6 0 -6 4q-4 6 -4 15l4 6q14 8 15 10q14 6 30 -10zM516 1395z" glyph-name="Edieresis" horiz-adv-x="600" unicode=""/><glyph d="M752 1360q25 0 24 -29q0 -6 -10 -16q-4 -4 -8 -4v-4q-4 -16 -24.5 -16.5t-24.5 16.5q-8 6 0 14q-160 -6 -404 -59q0 -35 -6 -50q-12 -78 -14 -94q-6 -33 -15.5 -96.5t-13.5 -93.5q-29 -143 -63 -383q-18 -117 -70 -385q-6 -27 -14.5 -79t-13.5 -85t-17 -77t-29 -79 q-4 -6 -15 -9t-20 1q-33 10 -24 49q6 14 30 15q14 39 25.5 86t22 107.5t16.5 90.5q12 68 34.5 199t33.5 190q41 254 59 383q14 59 35 187q2 18 7 50t7 44q0 2 3 6t3 8q-74 -14 -221 -55q-29 -4 -80 -15.5t-93 -18.5t-79 -9q-8 -2 -14 2t-5 12t9 11q45 8 131 25.5t131 27.5 q8 2 225 59q0 20 4 29q4 12 19.5 9t15.5 -13v-15q246 58 443 64zM467 -150q14 -2 19.5 -10t0 -16t-19.5 -8q-35 -2 -101.5 -2t-99.5 -2q-74 -4 -213 -25q-113 -18 -196 -29q-12 -2 -34 -7t-34 -9q-41 0 -49 6q-10 8 -4 16.5t18 8.5q2 -4 27.5 0t32.5 4q18 8 77 20 q33 6 96.5 15.5t96.5 13.5q31 6 190 20q158 10 193 4zM408 1430q20 -20 0 -21q-23 -10 -99 21q-78 39 -92 49q-6 0 -6 14q0 10 6 10l8 4h11q2 -2 10 -7t10 -7q8 -4 26.5 -11t26.5 -14q12 -6 48.5 -18t50.5 -20zM211 1493v0v0z" glyph-name="Igrave" unicode=""/><glyph d="M752 1360q25 0 24 -29q0 -6 -10 -16q-4 -4 -8 -4v-4q-4 -16 -24.5 -16.5t-24.5 16.5q-8 6 0 14q-160 -6 -404 -59q0 -35 -6 -50q-12 -78 -14 -94q-6 -33 -15.5 -96.5t-13.5 -93.5q-29 -143 -63 -383q-18 -117 -70 -385q-6 -27 -14.5 -79t-13.5 -85t-17 -77t-29 -79 q-4 -6 -15 -9t-20 1q-33 10 -24 49q6 14 30 15q14 39 25.5 86t22 107.5t16.5 90.5q12 68 34.5 199t33.5 190q41 254 59 383q14 59 35 187q2 18 7 50t7 44q0 2 3 6t3 8q-74 -14 -221 -55q-29 -4 -80 -15.5t-93 -18.5t-79 -9q-8 -2 -14 2t-5 12t9 11q45 8 131 25.5t131 27.5 q8 2 225 59q0 20 4 29q4 12 19.5 9t15.5 -13v-15q246 58 443 64zM467 -150q14 -2 19.5 -10t0 -16t-19.5 -8q-35 -2 -101.5 -2t-99.5 -2q-74 -4 -213 -25q-113 -18 -196 -29q-12 -2 -34 -7t-34 -9q-41 0 -49 6q-10 8 -4 16.5t18 8.5q2 -4 27.5 0t32.5 4q18 8 77 20 q33 6 96.5 15.5t96.5 13.5q31 6 190 20q158 10 193 4zM309 1503q45 25 80 23q18 -2 14 -19q-2 -6 -34 -20q-51 -20 -64 -25q-43 -16 -63 -28q-41 -20 -56 -11q-10 0 -10 7v4q-2 4 10 20q25 12 123 49z" glyph-name="Iacute" unicode=""/><glyph d="M752 1360q25 0 24 -29q0 -6 -10 -16q-4 -4 -8 -4v-4q-4 -16 -24.5 -16.5t-24.5 16.5q-8 6 0 14q-160 -6 -404 -59q0 -35 -6 -50q-12 -78 -14 -94q-6 -33 -15.5 -96.5t-13.5 -93.5q-29 -143 -63 -383q-18 -117 -70 -385q-6 -27 -14.5 -79t-13.5 -85t-17 -77t-29 -79 q-4 -6 -15 -9t-20 1q-33 10 -24 49q6 14 30 15q14 39 25.5 86t22 107.5t16.5 90.5q12 68 34.5 199t33.5 190q41 254 59 383q14 59 35 187q2 18 7 50t7 44q0 2 3 6t3 8q-74 -14 -221 -55q-29 -4 -80 -15.5t-93 -18.5t-79 -9q-8 -2 -14 2t-5 12t9 11q45 8 131 25.5t131 27.5 q8 2 225 59q0 20 4 29q4 12 19.5 9t15.5 -13v-15q246 58 443 64zM467 -150q14 -2 19.5 -10t0 -16t-19.5 -8q-35 -2 -101.5 -2t-99.5 -2q-74 -4 -213 -25q-113 -18 -196 -29q-12 -2 -34 -7t-34 -9q-41 0 -49 6q-10 8 -4 16.5t18 8.5q2 -4 27.5 0t32.5 4q18 8 77 20 q33 6 96.5 15.5t96.5 13.5q31 6 190 20q158 10 193 4zM373 1473q35 -31 35 -50q0 -12 -13.5 -15t-21.5 1q-8 8 -22.5 25.5t-20.5 23.5l-35 35q-8 -6 -24.5 -21.5t-24.5 -23.5q-25 -35 -45 -35q-6 -4 -14.5 0t-4.5 10q-4 10 7.5 24.5t21.5 20.5l18.5 18.5t22.5 23t18 18.5 q14 20 39 4q8 -8 31 -27.5t33 -31.5z" glyph-name="Icircumflex" unicode=""/><glyph d="M752 1360q25 0 24 -29q0 -6 -10 -16q-4 -4 -8 -4v-4q-4 -16 -24.5 -16.5t-24.5 16.5q-8 6 0 14q-160 -6 -404 -59q0 -35 -6 -50q-12 -78 -14 -94q-6 -33 -15.5 -96.5t-13.5 -93.5q-29 -143 -63 -383q-18 -117 -70 -385q-6 -27 -14.5 -79t-13.5 -85t-17 -77t-29 -79 q-4 -6 -15 -9t-20 1q-33 10 -24 49q6 14 30 15q14 39 25.5 86t22 107.5t16.5 90.5q12 68 34.5 199t33.5 190q41 254 59 383q14 59 35 187q2 18 7 50t7 44q0 2 3 6t3 8q-74 -14 -221 -55q-29 -4 -80 -15.5t-93 -18.5t-79 -9q-8 -2 -14 2t-5 12t9 11q45 8 131 25.5t131 27.5 q8 2 225 59q0 20 4 29q4 12 19.5 9t15.5 -13v-15q246 58 443 64zM467 -150q14 -2 19.5 -10t0 -16t-19.5 -8q-35 -2 -101.5 -2t-99.5 -2q-74 -4 -213 -25q-113 -18 -196 -29q-12 -2 -34 -7t-34 -9q-41 0 -49 6q-10 8 -4 16.5t18 8.5q2 -4 27.5 0t32.5 4q18 8 77 20 q33 6 96.5 15.5t96.5 13.5q31 6 190 20q158 10 193 4zM256 1458q14 0 18 -10v-10v-4q0 -14 -18 -15q-20 0 -20 15v4q-7 20 20 20zM373 1448v-10q0 -4 -4 -4v-4q0 -4 -11 -11q-14 0 -24 4q-4 0 -4 7q-6 4 -6 14l6 4q2 4 7 6t7 4q17 6 29 -10zM365 1448z" glyph-name="Idieresis" unicode=""/><glyph d="M786 -512q6 0 12.5 -4t9.5 -9t4 -10.5t-3 -10.5t-12 -7q-33 -2 -56.5 26.5t-32 55.5t-16.5 61q-14 59 -39 330q-29 416 -14 801q6 248 20 432q4 39 5 119q-2 6 -4.5 26.5t-6.5 32.5q0 2 -2 6t-2 9q-78 -57 -162 -252q-86 -186 -122 -299q-45 -123 -123 -369 q-31 -98 -80 -295q-33 -158 -99 -348q-8 -16 -26.5 -16t-22.5 16q-8 33 -11 67.5t-1 77.5t4 67.5t9.5 78t9.5 71.5q4 29 20 179q2 16 11.5 75.5t13.5 89.5q18 184 53 429q18 121 29 210q4 20 6 56.5t4 48.5q0 10 2 28.5t2 35t-4 28.5q-8 18 14.5 21.5t30.5 -15.5 q4 -12 4 -94q-10 -86 -10 -98q-6 -53 -29 -217q-35 -233 -53 -418q-2 -25 -6 -54.5t-10.5 -65.5t-8.5 -56q-14 -145 -20 -176q-27 -219 -25 -267q41 123 60 217q35 147 59 236q29 109 98 313q45 147 103 287q92 217 127 285q41 72 90 127q53 45 76 41q12 -4 22 -17 q25 -25 25 -98q6 -61 0 -123q-14 -188 -21 -428q-14 -377 14 -801q12 -188 35 -299q6 -57 29 -104q0 -18 16 -29zM786 -512zM516 1511q12 -6 16.5 -18t-6.5 -25q-14 -20 -49 -10q-10 0 -27.5 2t-27.5 2q-10 2 -11 0t-4.5 -8t-9.5 -10h-18q-10 10 -8 25.5t12 23.5q8 4 55 4 q6 0 24.5 -5t29.5 -5v20q12 12 24 4z" glyph-name="Ntilde" horiz-adv-x="811" unicode=""/><glyph d="M983 725q6 8 18.5 4t16.5 -13t-6 -20q-10 -12 -34 -29.5t-30 -23.5q-170 -129 -235 -168q-6 -18 -23.5 -78.5t-25.5 -93.5q-109 -309 -207 -453q-152 -221 -295 -151q-98 51 -127 231q-14 102 -6 310q18 184 41 288q-43 68 -60 168q-10 143 46.5 294t154.5 272 q160 205 358 211q76 4 127.5 -40t69.5 -118q35 -102 25 -221q0 -164 -25 -334q-6 -37 -18.5 -113t-20.5 -112q6 2 12 7t13 7q118 80 231 176zM59 700q6 -51 25 -102q45 178 98 291q55 133 103 201q27 37 55 49q18 4 38.5 -5.5t14.5 -29.5q-8 -20 -28 -10q-10 0 -17 6 q-14 -18 -24 -35q-41 -63 -68 -127q-14 -27 -33.5 -73t-25.5 -60q-33 -100 -35 -113q-25 -86 -39 -157q35 -53 70 -74q115 -86 274 -45q66 14 207 84q0 29 10 53q39 211 53 393q18 160 0 271q-8 106 -49 163q-33 47 -84 54q-88 10 -178 -40.5t-156 -127.5 q-106 -125 -157 -271q-68 -158 -54 -295zM467 -41q61 115 102 231q51 125 90 256q-147 -72 -256 -79q-154 -16 -270 84q-12 18 -24 24q-20 -115 -31 -246q-16 -203 6 -309q35 -176 127 -196q63 -12 129 53q64 65 127 182z" glyph-name="Ograve" horiz-adv-x="987" unicode=""/><glyph d="M983 725q6 8 18.5 4t16.5 -13t-6 -20q-10 -12 -34 -29.5t-30 -23.5q-170 -129 -235 -168q-6 -18 -23.5 -78.5t-25.5 -93.5q-109 -309 -207 -453q-152 -221 -295 -151q-98 51 -127 231q-14 102 -6 310q18 184 41 288q-43 68 -60 168q-10 143 46.5 294t154.5 272 q160 205 358 211q76 4 127.5 -40t69.5 -118q35 -102 25 -221q0 -164 -25 -334q-6 -37 -18.5 -113t-20.5 -112q6 2 12 7t13 7q118 80 231 176zM59 700q6 -51 25 -102q45 178 98 291q55 133 103 201q27 37 55 49q18 4 38.5 -5.5t14.5 -29.5q-8 -20 -28 -10q-10 0 -17 6 q-14 -18 -24 -35q-41 -63 -68 -127q-14 -27 -33.5 -73t-25.5 -60q-33 -100 -35 -113q-25 -86 -39 -157q35 -53 70 -74q115 -86 274 -45q66 14 207 84q0 29 10 53q39 211 53 393q18 160 0 271q-8 106 -49 163q-33 47 -84 54q-88 10 -178 -40.5t-156 -127.5 q-106 -125 -157 -271q-68 -158 -54 -295zM467 -41q61 115 102 231q51 125 90 256q-147 -72 -256 -79q-154 -16 -270 84q-12 18 -24 24q-20 -115 -31 -246q-16 -203 6 -309q35 -176 127 -196q63 -12 129 53q64 65 127 182zM530 1595q31 23 74 25q25 0 21 -18q-4 -12 -35 -21 q-37 -18 -64 -25q-8 -4 -63 -28q-41 -20 -55 -10q-10 0 -11 4v6q-2 6 11 18q42 22 122 49z" glyph-name="Oacute" horiz-adv-x="987" unicode=""/><glyph d="M983 725q6 8 18.5 4t16.5 -13t-6 -20q-10 -12 -34 -29.5t-30 -23.5q-170 -129 -235 -168q-6 -18 -23.5 -78.5t-25.5 -93.5q-109 -309 -207 -453q-152 -221 -295 -151q-98 51 -127 231q-14 102 -6 310q18 184 41 288q-43 68 -60 168q-10 143 46.5 294t154.5 272 q160 205 358 211q76 4 127.5 -40t69.5 -118q35 -102 25 -221q0 -164 -25 -334q-6 -37 -18.5 -113t-20.5 -112q6 2 12 7t13 7q118 80 231 176zM59 700q6 -51 25 -102q45 178 98 291q55 133 103 201q27 37 55 49q18 4 38.5 -5.5t14.5 -29.5q-8 -20 -28 -10q-10 0 -17 6 q-14 -18 -24 -35q-41 -63 -68 -127q-14 -27 -33.5 -73t-25.5 -60q-33 -100 -35 -113q-25 -86 -39 -157q35 -53 70 -74q115 -86 274 -45q66 14 207 84q0 29 10 53q39 211 53 393q18 160 0 271q-8 106 -49 163q-33 47 -84 54q-88 10 -178 -40.5t-156 -127.5 q-106 -125 -157 -271q-68 -158 -54 -295zM467 -41q61 115 102 231q51 125 90 256q-147 -72 -256 -79q-154 -16 -270 84q-12 18 -24 24q-20 -115 -31 -246q-16 -203 6 -309q35 -176 127 -196q63 -12 129 53q64 65 127 182zM668 1616q35 -31 34 -49q0 -14 -13 -17.5t-21 2.5 l-43 50q-4 4 -17.5 16t-17.5 16q-6 -8 -23.5 -22.5t-25.5 -20.5q-25 -35 -45 -35q-6 -4 -14.5 0.5t-4.5 10.5q-4 10 7.5 24.5t21.5 18.5q6 6 18.5 18t22.5 22.5t18 18.5q14 20 39 6q10 -10 33 -30.5t31 -28.5z" glyph-name="Ocircumflex" horiz-adv-x="987" unicode=""/><glyph d="M983 725q6 8 18.5 4t16.5 -13t-6 -20q-10 -12 -34 -29.5t-30 -23.5q-170 -129 -235 -168q-6 -18 -23.5 -78.5t-25.5 -93.5q-109 -309 -207 -453q-152 -221 -295 -151q-98 51 -127 231q-14 102 -6 310q18 184 41 288q-43 68 -60 168q-10 143 46.5 294t154.5 272 q160 205 358 211q76 4 127.5 -40t69.5 -118q35 -102 25 -221q0 -164 -25 -334q-6 -37 -18.5 -113t-20.5 -112q6 2 12 7t13 7q118 80 231 176zM59 700q6 -51 25 -102q45 178 98 291q55 133 103 201q27 37 55 49q18 4 38.5 -5.5t14.5 -29.5q-8 -20 -28 -10q-10 0 -17 6 q-14 -18 -24 -35q-41 -63 -68 -127q-14 -27 -33.5 -73t-25.5 -60q-33 -100 -35 -113q-25 -86 -39 -157q35 -53 70 -74q115 -86 274 -45q66 14 207 84q0 29 10 53q39 211 53 393q18 160 0 271q-8 106 -49 163q-33 47 -84 54q-88 10 -178 -40.5t-156 -127.5 q-106 -125 -157 -271q-68 -158 -54 -295zM467 -41q61 115 102 231q51 125 90 256q-147 -72 -256 -79q-154 -16 -270 84q-12 18 -24 24q-20 -115 -31 -246q-16 -203 6 -309q35 -176 127 -196q63 -12 129 53q64 65 127 182zM649 1616q33 -23 10 -45q-14 -20 -49 -10 q-10 0 -27.5 3t-27.5 3q-8 2 -11 -1t-5 -9.5t-9 -10.5h-18q-12 12 -10 26.5t14 22.5q12 6 53 7q8 0 26.5 -5.5t29.5 -5.5v19q8 12 24 6z" glyph-name="Otilde" horiz-adv-x="987" unicode=""/><glyph d="M983 725q6 8 18.5 4t16.5 -13t-6 -20q-10 -12 -34 -29.5t-30 -23.5q-170 -129 -235 -168q-6 -18 -23.5 -78.5t-25.5 -93.5q-109 -309 -207 -453q-152 -221 -295 -151q-98 51 -127 231q-14 102 -6 310q18 184 41 288q-43 68 -60 168q-10 143 46.5 294t154.5 272 q160 205 358 211q76 4 127.5 -40t69.5 -118q35 -102 25 -221q0 -164 -25 -334q-6 -37 -18.5 -113t-20.5 -112q6 2 12 7t13 7q118 80 231 176zM59 700q6 -51 25 -102q45 178 98 291q55 133 103 201q27 37 55 49q18 4 38.5 -5.5t14.5 -29.5q-8 -20 -28 -10q-10 0 -17 6 q-14 -18 -24 -35q-41 -63 -68 -127q-14 -27 -33.5 -73t-25.5 -60q-33 -100 -35 -113q-25 -86 -39 -157q35 -53 70 -74q115 -86 274 -45q66 14 207 84q0 29 10 53q39 211 53 393q18 160 0 271q-8 106 -49 163q-33 47 -84 54q-88 10 -178 -40.5t-156 -127.5 q-106 -125 -157 -271q-68 -158 -54 -295zM467 -41q61 115 102 231q51 125 90 256q-147 -72 -256 -79q-154 -16 -270 84q-12 18 -24 24q-20 -115 -31 -246q-16 -203 6 -309q35 -176 127 -196q63 -12 129 53q64 65 127 182zM530 1577q14 0 21 -10v-11v-4q0 -16 -21 -16 q-18 0 -18 16v4q-9 21 18 21zM649 1567v-11q0 -4 -6 -4v-6q0 -2 -2 -4l-6 -6q-16 0 -25 6q-6 0 -6 4q-4 6 -4 15l4 6q14 8 14 10q15 6 31 -10zM639 1567z" glyph-name="Odieresis" horiz-adv-x="987" unicode=""/><glyph d="M983 725q6 8 18.5 4t16.5 -13t-6 -20q-10 -12 -34 -29.5t-30 -23.5q-170 -129 -235 -168q-6 -18 -23.5 -78.5t-25.5 -93.5q-109 -309 -207 -453q-152 -221 -295 -151q-98 51 -127 231q-14 102 -6 310q18 184 41 288q-43 68 -60 168q-10 143 46.5 294t154.5 272 q160 205 358 211q76 4 127.5 -40t69.5 -118q35 -102 25 -221q0 -164 -25 -334q-6 -37 -18.5 -113t-20.5 -112q6 2 12 7t13 7q118 80 231 176zM59 700q6 -51 25 -102q45 178 98 291q55 133 103 201q27 37 55 49q18 4 38.5 -5.5t14.5 -29.5q-8 -20 -28 -10q-10 0 -17 6 q-14 -18 -24 -35q-41 -63 -68 -127q-14 -27 -33.5 -73t-25.5 -60q-33 -100 -35 -113q-25 -86 -39 -157q35 -53 70 -74q115 -86 274 -45q66 14 207 84q0 29 10 53q39 211 53 393q18 160 0 271q-8 106 -49 163q-33 47 -84 54q-88 10 -178 -40.5t-156 -127.5 q-106 -125 -157 -271q-68 -158 -54 -295zM467 -41q61 115 102 231q51 125 90 256q-147 -72 -256 -79q-154 -16 -270 84q-12 18 -24 24q-20 -115 -31 -246q-16 -203 6 -309q35 -176 127 -196q63 -12 129 53q64 65 127 182zM698 1546q29 -49 -20 -200q-6 -43 -17.5 -84 t-25.5 -89.5t-21 -72.5q-98 -307 -147 -492q-25 -82 -122 -401.5t-144 -493.5q0 -2 3 -8t3 -12q-25 -70 -25 -78q-6 -14 -21.5 -18.5t-26.5 4t-7 24.5q29 115 66.5 252t67.5 235.5t79 257t74 238.5q37 154 147 486q0 2 68 231q14 86 20 113q4 41 4 104q-2 12 7.5 16.5 t21.5 1t16 -13.5z" glyph-name="Oslash" horiz-adv-x="987" unicode=""/><glyph d="M807 1434q4 -41 -6 -95q-8 -25 -25 -112q-27 -141 -49 -232q-43 -225 -74 -446q-70 -481 -49 -905q4 -16 -18 -19q-25 -2 -25 19q-27 381 43 909q47 297 80 459q41 213 43 225l10 35q-14 -43 -38.5 -132t-39.5 -134q-150 -410 -167 -457q-10 -27 -57.5 -139.5 t-76.5 -169.5q-109 -213 -182 -291q-2 -2 -18.5 -19.5t-23.5 -23.5t-21.5 -14.5t-28.5 -10.5q-49 0 -64 43q-10 25 -20 113q-6 70 0 139q4 205 98 565q8 39 36 152t42 176q20 90 25 139q0 2 10 49v9v6q-6 16 14 24l17 -6q14 -4 14 -24v-15q-6 -39 -14 -102q-20 -98 -70 -295 q-106 -438 -123 -600q-16 -133 0 -260q0 -2 3 -15.5t6 -23.5t8.5 -20.5t11.5 -14.5q10 4 20 14q37 27 54 50q80 96 172 290q25 47 139 334q102 264 162 447q12 37 35.5 123t47 149.5t54.5 116.5q4 8 15 10t20.5 -4t9.5 -16zM211 1266v6v-6zM586 1458q16 -20 0 -20 q-23 -10 -99 20q-74 35 -94 49q-4 0 -4 15q0 10 4 10l10 4h11q2 -2 9 -6t9 -8q8 -4 27.5 -11.5t27.5 -13.5q12 -6 49.5 -18.5t49.5 -20.5zM389 1522v0v0z" glyph-name="Ugrave" horiz-adv-x="786" unicode=""/><glyph d="M807 1434q4 -41 -6 -95q-8 -25 -25 -112q-27 -141 -49 -232q-43 -225 -74 -446q-70 -481 -49 -905q4 -16 -18 -19q-25 -2 -25 19q-27 381 43 909q47 297 80 459q41 213 43 225l10 35q-14 -43 -38.5 -132t-39.5 -134q-150 -410 -167 -457q-10 -27 -57.5 -139.5 t-76.5 -169.5q-109 -213 -182 -291q-2 -2 -18.5 -19.5t-23.5 -23.5t-21.5 -14.5t-28.5 -10.5q-49 0 -64 43q-10 25 -20 113q-6 70 0 139q4 205 98 565q8 39 36 152t42 176q20 90 25 139q0 2 10 49v9v6q-6 16 14 24l17 -6q14 -4 14 -24v-15q-6 -39 -14 -102q-20 -98 -70 -295 q-106 -438 -123 -600q-16 -133 0 -260q0 -2 3 -15.5t6 -23.5t8.5 -20.5t11.5 -14.5q10 4 20 14q37 27 54 50q80 96 172 290q25 47 139 334q102 264 162 447q12 37 35.5 123t47 149.5t54.5 116.5q4 8 15 10t20.5 -4t9.5 -16zM211 1266v6v-6zM502 1536q29 20 71 25 q27 2 21 -19q-2 -8 -33 -20q-25 -12 -65 -25q-10 -6 -33 -15t-31 -14q-39 -20 -53 -10q-10 0 -10 4v6q-4 8 10 19q49 24 123 49z" glyph-name="Uacute" horiz-adv-x="786" unicode=""/><glyph d="M807 1434q4 -41 -6 -95q-8 -25 -25 -112q-27 -141 -49 -232q-43 -225 -74 -446q-70 -481 -49 -905q4 -16 -18 -19q-25 -2 -25 19q-27 381 43 909q47 297 80 459q41 213 43 225l10 35q-14 -43 -38.5 -132t-39.5 -134q-150 -410 -167 -457q-10 -27 -57.5 -139.5 t-76.5 -169.5q-109 -213 -182 -291q-2 -2 -18.5 -19.5t-23.5 -23.5t-21.5 -14.5t-28.5 -10.5q-49 0 -64 43q-10 25 -20 113q-6 70 0 139q4 205 98 565q8 39 36 152t42 176q20 90 25 139q0 2 10 49v9v6q-6 16 14 24l17 -6q14 -4 14 -24v-15q-6 -39 -14 -102q-20 -98 -70 -295 q-106 -438 -123 -600q-16 -133 0 -260q0 -2 3 -15.5t6 -23.5t8.5 -20.5t11.5 -14.5q10 4 20 14q37 27 54 50q80 96 172 290q25 47 139 334q102 264 162 447q12 37 35.5 123t47 149.5t54.5 116.5q4 8 15 10t20.5 -4t9.5 -16zM211 1266v6v-6zM580 1511q35 -35 34 -49 q0 -12 -13 -15t-21 1q-8 6 -22.5 23.5t-20.5 25.5l-35 35q-6 -6 -23.5 -21.5t-25.5 -23.5q-23 -33 -45 -33q-12 -6 -19 2q-2 2 0 6q-4 10 7.5 25.5t21.5 19.5l59 60q14 20 39 4q54 -48 64 -60z" glyph-name="Ucircumflex" horiz-adv-x="786" unicode=""/><glyph d="M807 1434q4 -41 -6 -95q-8 -25 -25 -112q-27 -141 -49 -232q-43 -225 -74 -446q-70 -481 -49 -905q4 -16 -18 -19q-25 -2 -25 19q-27 381 43 909q47 297 80 459q41 213 43 225l10 35q-14 -43 -38.5 -132t-39.5 -134q-150 -410 -167 -457q-10 -27 -57.5 -139.5 t-76.5 -169.5q-109 -213 -182 -291q-2 -2 -18.5 -19.5t-23.5 -23.5t-21.5 -14.5t-28.5 -10.5q-49 0 -64 43q-10 25 -20 113q-6 70 0 139q4 205 98 565q8 39 36 152t42 176q20 90 25 139q0 2 10 49v9v6q-6 16 14 24l17 -6q14 -4 14 -24v-15q-6 -39 -14 -102q-20 -98 -70 -295 q-106 -438 -123 -600q-16 -133 0 -260q0 -2 3 -15.5t6 -23.5t8.5 -20.5t11.5 -14.5q10 4 20 14q37 27 54 50q80 96 172 290q25 47 139 334q102 264 162 447q12 37 35.5 123t47 149.5t54.5 116.5q4 8 15 10t20.5 -4t9.5 -16zM211 1266v6v-6zM442 1454q14 0 21 -10v-10v-4 q0 -16 -20.5 -16.5t-20.5 16.5v4q-7 20 20 20zM561 1444v-10q0 -4 -6 -4v-7l-10 -10q-14 0 -25 6q-4 0 -4 4q-4 6 -4 15l4 6q2 2 7 4t7 6q15 6 31 -10zM551 1444z" glyph-name="Udieresis" horiz-adv-x="786" unicode=""/><glyph d="M987 717q23 4 31 -15q4 -10 -10 -16q-233 -90 -463 -319q-14 -55 -46 -165t-46 -165q-10 -33 -34 -110t-43.5 -131t-41.5 -103q-80 -211 -197 -275q-66 -39 -108 11q-35 41 -25 141q20 174 143 364q76 131 226 310q92 102 133 137q18 74 69 246q76 272 142 452 q10 25 45 119q-35 -43 -64 -88q-190 -279 -266 -369q-51 -63 -127 -133q-74 -74 -123 -69q-55 0 -78.5 45t-21.5 92t12 94q6 27 24.5 103.5t24.5 117.5q2 10 8.5 50t6.5 63v24q-10 10 -11 21v4v6q0 14 25 15h10l11 -7q4 -4 4 -14q4 -4 4 -25q0 -31 -8 -88q-14 -111 -25 -147 q-31 -98 -35 -158q-14 -102 14 -141q37 -47 119 29q68 61 127 137q115 131 266 364q147 215 162 240q16 74 53 123q8 12 26 6t13 -20q-18 -59 -57 -134q-20 -57 -31 -88q-53 -129 -88 -256q-68 -184 -157 -499q0 -4 -6.5 -23.5t-8.5 -32.5q197 191 422 277zM330 -209 q80 227 151 512q-160 -178 -245 -305q-133 -197 -177 -354q-25 -127 0 -181q20 -53 93 19q102 92 178 309zM516 1479q45 25 80 22q18 -2 14 -18q-2 -6 -35 -21q-51 -20 -63 -24q-41 -16 -66 -29q-39 -20 -53 -10q-10 0 -10 6v4q-2 4 10 21q41 18 123 49z" glyph-name="Yacute" horiz-adv-x="983" unicode=""/><glyph d="M379 1006q-12 -27 -33.5 -53.5t-37 -43t-48.5 -46t-43 -40.5q145 0 156 -254q8 -104 -15 -217q-25 -143 -39 -176q-39 -92 -108 -119q-37 -10 -69.5 13.5t-47.5 60.5q-45 88 -14 200.5t127 147.5q6 2 15 -3t9 -12t-10 -13q-72 -37 -95.5 -130.5t7.5 -164.5q6 -35 35 -50 q12 -16 29 -10q47 12 77 94q25 59 45 166q16 117 11 222q0 111 -45 167q-39 59 -123 25q-12 -4 -27.5 6t-1.5 23q20 23 90 88t101 108q41 57 24 123q-14 35 -53 25q-53 -8 -119 -82q-63 -106 -78 -168q-78 -197 -118 -471q-4 -37 -8.5 -97.5t-6.5 -84.5v-50q6 -6 6 -20 q-4 -12 -19 -16t-26 6q-6 6 -9 19.5t-3 23.5t1 23.5t1 17.5q4 31 11 90t10 92q47 305 112 477q18 45 30.5 73t39 72t51.5 69.5t60.5 46t74.5 20.5q66 0 86.5 -61.5t-12.5 -116.5z" glyph-name="germandbls" horiz-adv-x="462" unicode=""/><glyph d="M319 707q10 18 31 8q14 -6 8 -19q-14 -25 -38.5 -79t-38.5 -78q0 -2 -10.5 -17.5t-13.5 -19.5t-12 -17.5t-15.5 -18.5t-16.5 -12.5t-20.5 -10.5t-20.5 -3q-6 0 -11 2t-9.5 5.5t-9.5 9.5t-7 10t-7 12t-5 10q-10 31 -10 95v59q-51 -100 -101.5 -150.5t-85.5 3.5 q-23 20 -4 67q29 70 49 99q37 63 68 79q41 23 55 -6q6 -12 -6 -17t-18 3h-7l-24 -25q-16 -23 -49 -78q-27 -45 -35 -83q-4 -8 -2 -19.5t8 -11.5q14 0 43 35q18 23 49 84q8 12 74 143q4 6 15.5 9t19.5 -1t6 -14q-16 -131 -16 -148q0 -102 24 -137q23 6 35 29q14 18 45 69 q36 93 63 134zM158 844q10 -8 4 -16.5t-15 -4.5q-35 0 -59 25q-6 4 -49 16q-4 0 -4 4q-6 4 -6 11q-6 10 4 14t20 4q33 0 60 -25q41 -24 45 -28z" glyph-name="agrave" horiz-adv-x="333" unicode=""/><glyph d="M319 707q10 18 31 8q14 -6 8 -19q-14 -25 -38.5 -79t-38.5 -78q0 -2 -10.5 -17.5t-13.5 -19.5t-12 -17.5t-15.5 -18.5t-16.5 -12.5t-20.5 -10.5t-20.5 -3q-6 0 -11 2t-9.5 5.5t-9.5 9.5t-7 10t-7 12t-5 10q-10 31 -10 95v59q-51 -100 -101.5 -150.5t-85.5 3.5 q-23 20 -4 67q29 70 49 99q37 63 68 79q41 23 55 -6q6 -12 -6 -17t-18 3h-7l-24 -25q-16 -23 -49 -78q-27 -45 -35 -83q-4 -8 -2 -19.5t8 -11.5q14 0 43 35q18 23 49 84q8 12 74 143q4 6 15.5 9t19.5 -1t6 -14q-16 -131 -16 -148q0 -102 24 -137q23 6 35 29q14 18 45 69 q36 93 63 134zM133 928q12 4 17.5 -6.5t-7.5 -18.5q-10 -4 -29.5 -11t-29.5 -13q-27 -14 -35 -25q-2 -2 -9 -6t-11 -8q-6 -8 -16.5 -5t-8.5 13q0 20 6 24q0 4 10 11q10 14 33 24q49 21 80 21z" glyph-name="aacute" horiz-adv-x="333" unicode=""/><glyph d="M319 707q10 18 31 8q14 -6 8 -19q-14 -25 -38.5 -79t-38.5 -78q0 -2 -10.5 -17.5t-13.5 -19.5t-12 -17.5t-15.5 -18.5t-16.5 -12.5t-20.5 -10.5t-20.5 -3q-6 0 -11 2t-9.5 5.5t-9.5 9.5t-7 10t-7 12t-5 10q-10 31 -10 95v59q-51 -100 -101.5 -150.5t-85.5 3.5 q-23 20 -4 67q29 70 49 99q37 63 68 79q41 23 55 -6q6 -12 -6 -17t-18 3h-7l-24 -25q-16 -23 -49 -78q-27 -45 -35 -83q-4 -8 -2 -19.5t8 -11.5q14 0 43 35q18 23 49 84q8 12 74 143q4 6 15.5 9t19.5 -1t6 -14q-16 -131 -16 -148q0 -102 24 -137q23 6 35 29q14 18 45 69 q36 93 63 134zM123 921.5q2 -14.5 23.5 -36t21.5 -37.5q0 -8 -6 -12.5t-14.5 -3t-14.5 7.5q-16 14 -31 32q-8 0 -8 11q-31 -35 -45 -43q-8 -8 -20.5 -4t-8.5 18q4 12 12.5 24.5t26 30l19.5 19.5q8 8 25.5 8t19.5 -14.5z" glyph-name="acircumflex" horiz-adv-x="333" unicode=""/><glyph d="M319 707q10 18 31 8q14 -6 8 -19q-14 -25 -38.5 -79t-38.5 -78q0 -2 -10.5 -17.5t-13.5 -19.5t-12 -17.5t-15.5 -18.5t-16.5 -12.5t-20.5 -10.5t-20.5 -3q-6 0 -11 2t-9.5 5.5t-9.5 9.5t-7 10t-7 12t-5 10q-10 31 -10 95v59q-51 -100 -101.5 -150.5t-85.5 3.5 q-23 20 -4 67q29 70 49 99q37 63 68 79q41 23 55 -6q6 -12 -6 -17t-18 3h-7l-24 -25q-16 -23 -49 -78q-27 -45 -35 -83q-4 -8 -2 -19.5t8 -11.5q14 0 43 35q18 23 49 84q8 12 74 143q4 6 15.5 9t19.5 -1t6 -14q-16 -131 -16 -148q0 -102 24 -137q23 6 35 29q14 18 45 69 q36 93 63 134zM133 889q33 -23 10 -45q-14 -20 -49 -10q-10 0 -27.5 3t-27.5 3q-8 2 -11 -1t-5.5 -9.5t-8.5 -10.5h-18q-12 12 -10 26.5t14 22.5q8 4 53 4q8 0 26.5 -4t29.5 -4v19q8 12 24 6z" glyph-name="atilde" horiz-adv-x="333" unicode=""/><glyph d="M319 707q10 18 31 8q14 -6 8 -19q-14 -25 -38.5 -79t-38.5 -78q0 -2 -10.5 -17.5t-13.5 -19.5t-12 -17.5t-15.5 -18.5t-16.5 -12.5t-20.5 -10.5t-20.5 -3q-6 0 -11 2t-9.5 5.5t-9.5 9.5t-7 10t-7 12t-5 10q-10 31 -10 95v59q-51 -100 -101.5 -150.5t-85.5 3.5 q-23 20 -4 67q29 70 49 99q37 63 68 79q41 23 55 -6q6 -12 -6 -17t-18 3h-7l-24 -25q-16 -23 -49 -78q-27 -45 -35 -83q-4 -8 -2 -19.5t8 -11.5q14 0 43 35q18 23 49 84q8 12 74 143q4 6 15.5 9t19.5 -1t6 -14q-16 -131 -16 -148q0 -102 24 -137q23 6 35 29q14 18 45 69 q36 93 63 134zM39 858q14 0 20 -10v-8v-6q0 -14 -20 -15q-18 0 -19 15v6q-8 18 19 18zM158 848v-8q0 -6 -6 -6v-5q0 -2 -9 -10q-16 0 -24 4q-6 0 -6 6q-4 4 -4 15l4 4q4 4 8 6t6 4q13 8 31 -10zM147 848z" glyph-name="adieresis" horiz-adv-x="333" unicode=""/><glyph d="M319 707q10 18 31 8q14 -6 8 -19q-14 -25 -38.5 -79t-38.5 -78q0 -2 -10.5 -17.5t-13.5 -19.5t-12 -17.5t-15.5 -18.5t-16.5 -12.5t-20.5 -10.5t-20.5 -3q-6 0 -11 2t-9.5 5.5t-9.5 9.5t-7 10t-7 12t-5 10q-10 31 -10 95v59q-51 -100 -101.5 -150.5t-85.5 3.5 q-23 20 -4 67q29 70 49 99q37 63 68 79q41 23 55 -6q6 -12 -6 -17t-18 3h-7l-24 -25q-16 -23 -49 -78q-27 -45 -35 -83q-4 -8 -2 -19.5t8 -11.5q14 0 43 35q18 23 49 84q8 12 74 143q4 6 15.5 9t19.5 -1t6 -14q-16 -131 -16 -148q0 -102 24 -137q23 6 35 29q14 18 45 69 q36 93 63 134zM137 883q10 -27 -7 -51.5t-46 -36.5q-23 -10 -52.5 -1t-31.5 35q-14 57 53 78h21q43 11 63 -24zM63 829q37 10 31 39v4h-6q0 2 -25 -8h-10q-14 -10 -14 -24q6 -19 24 -11z" glyph-name="aring" horiz-adv-x="333" unicode=""/><glyph d="M242 643q-51 -51 -74 -55q6 -27 29 -60q20 -25 63 -32q18 -8 12 -21.5t-22 -9.5q-63 20 -88 49q-33 41 -39 94q0 2 -2 7.5t-2 7.5v39q-49 -84 -56 -93q-14 -25 -35.5 -45t-50 -29.5t-47.5 25.5q-16 23 0 74q10 35 50 98q2 2 11 14.5t16 20.5t19.5 21.5t21.5 18.5t20.5 9 t19.5 -1t14 -19q2 -6 -3 -11.5t-13 -4.5t-12 5h-4l-25 -24q-12 -14 -49 -78q-10 -16 -35 -84q0 -31 10 -31q8 0 43 35q4 8 14.5 24.5t19.5 32t15 27.5q14 27 38 77t32 67q8 12 25.5 10t17.5 -17q41 49 74 50q25 4 48.5 -7.5t25.5 -31.5q8 -47 -29 -84q-6 -12 -53 -64v-4z M246 805q-43 -25 -65.5 -76t-18.5 -102v-4l6 4q14 10 18 16l7 4q8 8 8 15h10q4 4 39 49q35 31 35 63q0 18 -10.5 28.5t-28.5 2.5z" glyph-name="ae" horiz-adv-x="368" unicode=""/><glyph d="M197 707q10 12 30.5 7t14.5 -22q-41 -61 -123 -108q-90 -53 -133 -21q-51 41 10 158q96 129 156 74q14 -12 -7 -21q-12 -6 -22 0q-23 18 -60 -33q-23 -25 -38 -65q-14 -27 -15 -68l4 -14l6 -6q25 0 93 39q57 41 84 80zM127 406q16 -39 0 -78q-18 -43 -49 -49 q-23 -2 -38 16t-20 43q0 10 14.5 11t18.5 -7q12 -20 17 -25q4 6 8 11q6 4 6 20q8 31 4 39q-4 12 -25 4q-12 -4 -22 1t-6 20q12 82 14 88q8 10 21.5 10t13.5 -14q6 -27 -6 -66q39 1 49 -24z" glyph-name="ccedilla" horiz-adv-x="217" unicode=""/><glyph d="M266 864q18 -113 -84 -227q-29 -39 -88 -92q-53 -35 -80 -41h-4q20 -102 84 -127q20 -8 14 -23.5t-24 -11.5q-119 41 -119 203q0 133 74 284q47 98 108 123q41 16 76 -12.5t43 -75.5zM147 651q96 119 78 207q-4 23 -24 55q-2 0 -10.5 7.5t-14.5 7.5h-4q-2 0 -4 -3t-6 -3 q-10 -4 -25 -19q-55 -51 -92 -168q-43 -113 -35 -207q59 29 137 123zM246 1026q10 -8 4 -16.5t-14 -3.5q-31 0 -60 24q-12 6 -49 14q-4 0 -4 7q-4 4 -4 10q-6 10 3 14t21 4q27 0 58 -24q6 -4 16 -8.5t17.5 -9.5t11.5 -11z" glyph-name="egrave" horiz-adv-x="315" unicode=""/><glyph d="M266 864q18 -113 -84 -227q-29 -39 -88 -92q-53 -35 -80 -41h-4q20 -102 84 -127q20 -8 14 -23.5t-24 -11.5q-119 41 -119 203q0 133 74 284q47 98 108 123q41 16 76 -12.5t43 -75.5zM147 651q96 119 78 207q-4 23 -24 55q-2 0 -10.5 7.5t-14.5 7.5h-4q-2 0 -4 -3t-6 -3 q-10 -4 -25 -19q-55 -51 -92 -168q-43 -113 -35 -207q59 29 137 123zM193 1100q12 4 17 -6.5t-9 -18.5q-8 -6 -28.5 -12t-29.5 -12q-25 -14 -34 -25q-2 -2 -9.5 -6t-11.5 -8q-8 -8 -17.5 -5t-7.5 13q0 20 7 24q0 2 8 11q18 18 35 24q49 21 80 21z" glyph-name="eacute" horiz-adv-x="315" unicode=""/><glyph d="M266 864q18 -113 -84 -227q-29 -39 -88 -92q-53 -35 -80 -41h-4q20 -102 84 -127q20 -8 14 -23.5t-24 -11.5q-119 41 -119 203q0 133 74 284q47 98 108 123q41 16 76 -12.5t43 -75.5zM147 651q96 119 78 207q-4 23 -24 55q-2 0 -10.5 7.5t-14.5 7.5h-4q-2 0 -4 -3t-6 -3 q-10 -4 -25 -19q-55 -51 -92 -168q-43 -113 -35 -207q59 29 137 123zM186 1110q2 -14 23.5 -36.5t21.5 -37t-13 -16.5t-21 6q-23 23 -29 35q-10 0 -10 8q-18 -25 -45 -43q-8 -8 -20.5 -4t-8.5 18q8 23 59 74q6 8 23.5 8t19.5 -12z" glyph-name="ecircumflex" horiz-adv-x="315" unicode=""/><glyph d="M266 864q18 -113 -84 -227q-29 -39 -88 -92q-53 -35 -80 -41h-4q20 -102 84 -127q20 -8 14 -23.5t-24 -11.5q-119 41 -119 203q0 133 74 284q47 98 108 123q41 16 76 -12.5t43 -75.5zM147 651q96 119 78 207q-4 23 -24 55q-2 0 -10.5 7.5t-14.5 7.5h-4q-2 0 -4 -3t-6 -3 q-10 -4 -25 -19q-55 -51 -92 -168q-43 -113 -35 -207q59 29 137 123zM113 1065q14 0 20 -10v-11v-4q0 -14 -20 -14q-18 0 -19 14v4q-8 21 19 21zM231 1055v-11q0 -4 -6 -4v-4q0 -2 -8 -10q-16 0 -24 4q-6 0 -7 6q-4 4 -4 15l4 4q4 4 8.5 6t6.5 4q14 6 30 -10zM221 1055z" glyph-name="edieresis" horiz-adv-x="315" unicode=""/><glyph d="M-10 711q8 18 26.5 9t18.5 -28q0 -12 -10 -90q-27 -207 -29 -235q0 -18 -22.5 -18.5t-22.5 18.5v24q4 66 24 182q2 10 4.5 43t6.5 52q0 4 2 13t2 15v4v7v4zM88 840q10 -8 4 -16.5t-14 -4.5q-33 0 -58 25q-12 6 -49 14q-6 0 -6 6q-4 4 -4 8q-6 8 -1 12.5t12.5 6.5t13.5 2 q25 0 59 -25q2 -2 19.5 -11t23.5 -17z" glyph-name="igrave" horiz-adv-x="108" unicode=""/><glyph d="M-10 711q8 18 26.5 9t18.5 -28q0 -12 -10 -90q-27 -207 -29 -235q0 -18 -22.5 -18.5t-22.5 18.5v24q4 66 24 182q2 10 4.5 43t6.5 52q0 4 2 13t2 15v4v7v4zM39 868l-10 -10h6h-6l-4 -4q-4 -6 -21 -6q0 2 -7 6t-7 10q0 8 6 8v0q0 10 8 11l6 6v0q14 0 19 -6l6 -4 q0 -4 2 -6.5t2 -4.5zM25 854z" glyph-name="iacute" horiz-adv-x="108" unicode=""/><glyph d="M-10 711q8 18 26.5 9t18.5 -28q0 -12 -10 -90q-27 -207 -29 -235q0 -18 -22.5 -18.5t-22.5 18.5v24q4 66 24 182q2 10 4.5 43t6.5 52q0 4 2 13t2 15v4v7v4zM45 872q2 -14 22.5 -35.5t20.5 -37.5q0 -8 -6 -12.5t-14.5 -3.5t-14.5 8q-18 18 -28 32q-10 0 -11 11 q-27 -33 -43 -43q-8 -8 -20 -4t-10 18q8 23 59 74q8 8 24.5 7.5t20.5 -14.5z" glyph-name="icircumflex" horiz-adv-x="108" unicode=""/><glyph d="M-10 711q8 18 26.5 9t18.5 -28q0 -12 -10 -90q-27 -207 -29 -235q0 -18 -22.5 -18.5t-22.5 18.5v24q4 66 24 182q2 10 4.5 43t6.5 52q0 4 2 13t2 15v4v7v4zM-29 848q14 0 19 -8v-11v-6q0 -14 -19 -14q-20 0 -20 14v6q-2 10 4 14.5t16 4.5zM88 840v-11q0 -6 -4 -6v-4 q0 -2 -4 -5t-6 -5q-14 0 -25 6q-4 0 -4 4q-6 4 -6 15l6 6q2 2 7 4t7 4q11 6 29 -8zM78 840z" glyph-name="idieresis" horiz-adv-x="108" unicode=""/><glyph d="M281 141q8 4 17 -1t9 -14t-8 -15q-29 -16 -53 -5q-43 14 -60 113q-10 74 -10 217q0 41 10 226v108q-10 -10 -10 -20q-8 -10 -49 -88q-25 -51 -71 -157t-70 -157q-4 -8 -14.5 -11t-17.5 1t-7 14q-8 123 39 310q6 66 28 118q8 16 24.5 20.5t24.5 -16.5q4 -8 -1 -13t-13 -5 q-10 -25 -10 -41q-8 -23 -17.5 -65t-11.5 -52q-4 -29 -11 -81t-9 -76q66 166 129 284q37 63 57 74q16 8 32.5 1t16.5 -26q12 -57 0 -151q-8 -160 -8 -232q0 -137 14 -206q8 -37 25 -54q0 -4 6 -6h-2q11 0 21 6zM176 913q12 -8 16.5 -21t-6.5 -24q-14 -20 -49 -10 q-10 0 -26.5 3t-26.5 3q-6 2 -10 0t-4 -5t-3.5 -7t-7.5 -8q-2 -2 -6 -2t-8 1t-6 1q-10 10 -8 25.5t14 23.5q8 4 53 4q6 0 24.5 -4t29.5 -4v18q12 12 24 6z" glyph-name="ntilde" horiz-adv-x="299" unicode=""/><glyph d="M250 707q10 10 26 0q10 -6 5 -15q-45 -74 -134 -90q-2 0 -9 -2t-11 -2q-8 -20 -8 -25q-45 -76 -99 -63q-43 12 -55 68q-8 63 6 108q8 23 29 31q18 72 74 78q35 6 52 -17.5t21 -60.5q0 -55 -10 -84q70 17 113 74zM88 766q-23 0 -43 -35q-35 -70 -6 -98q10 -6 45 -6h10 q14 43 15 84q-2 4 -4.5 18t-6.5 25.5t-10 11.5zM14 692h6h-6zM14 549q16 -18 38 3t26 42h6q-39 0 -59 14q-18 8 -25 19q0 -58 14 -78zM123 879q10 -8 4 -16.5t-14 -4.5q-31 0 -60 25q-12 6 -49 14q-4 0 -4 6q-4 4 -4 10q-6 10 3 14.5t21 4.5q27 0 58 -25q6 -4 16 -8t17.5 -9 t11.5 -11z" glyph-name="ograve" horiz-adv-x="256" unicode=""/><glyph d="M250 707q10 10 26 0q10 -6 5 -15q-45 -74 -134 -90q-2 0 -9 -2t-11 -2q-8 -20 -8 -25q-45 -76 -99 -63q-43 12 -55 68q-8 63 6 108q8 23 29 31q18 72 74 78q35 6 52 -17.5t21 -60.5q0 -55 -10 -84q70 17 113 74zM88 766q-23 0 -43 -35q-35 -70 -6 -98q10 -6 45 -6h10 q14 43 15 84q-2 4 -4.5 18t-6.5 25.5t-10 11.5zM14 692h6h-6zM14 549q16 -18 38 3t26 42h6q-39 0 -59 14q-18 8 -25 19q0 -58 14 -78zM133 928q12 4 17.5 -6.5t-7.5 -18.5q-10 -4 -29.5 -11t-29.5 -13q-27 -14 -35 -25q-2 -2 -9 -6t-11 -8q-6 -8 -16.5 -5t-8.5 13q0 20 6 24 q0 4 10 11q10 14 33 24q49 21 80 21z" glyph-name="oacute" horiz-adv-x="256" unicode=""/><glyph d="M250 707q10 10 26 0q10 -6 5 -15q-45 -74 -134 -90q-2 0 -9 -2t-11 -2q-8 -20 -8 -25q-45 -76 -99 -63q-43 12 -55 68q-8 63 6 108q8 23 29 31q18 72 74 78q35 6 52 -17.5t21 -60.5q0 -55 -10 -84q70 17 113 74zM88 766q-23 0 -43 -35q-35 -70 -6 -98q10 -6 45 -6h10 q14 43 15 84q-2 4 -4.5 18t-6.5 25.5t-10 11.5zM14 692h6h-6zM14 549q16 -18 38 3t26 42h6q-39 0 -59 14q-18 8 -25 19q0 -58 14 -78zM98 938q2 -14 23.5 -36.5t21.5 -37t-13 -16.5t-21 6q-25 25 -31 35q-8 0 -8 8q-27 -29 -45 -43q-8 -8 -20.5 -4t-8.5 18q4 12 12 24.5 t25.5 30l19.5 19.5q8 8 25.5 8t19.5 -12z" glyph-name="ocircumflex" horiz-adv-x="256" unicode=""/><glyph d="M250 707q10 10 26 0q10 -6 5 -15q-45 -74 -134 -90q-2 0 -9 -2t-11 -2q-8 -20 -8 -25q-45 -76 -99 -63q-43 12 -55 68q-8 63 6 108q8 23 29 31q18 72 74 78q35 6 52 -17.5t21 -60.5q0 -55 -10 -84q70 17 113 74zM88 766q-23 0 -43 -35q-35 -70 -6 -98q10 -6 45 -6h10 q14 43 15 84q-2 4 -4.5 18t-6.5 25.5t-10 11.5zM14 692h6h-6zM14 549q16 -18 38 3t26 42h6q-39 0 -59 14q-18 8 -25 19q0 -58 14 -78zM133 893q31 -23 10 -45q-16 -23 -49 -8q-10 0 -27.5 2t-27.5 2q-8 2 -11 -1t-5.5 -9.5t-8.5 -10.5h-18q-12 12 -10 27.5t14 22t53 6.5 q8 0 26.5 -5.5t29.5 -5.5v21q10 10 24 4z" glyph-name="otilde" horiz-adv-x="256" unicode=""/><glyph d="M250 707q10 10 26 0q10 -6 5 -15q-45 -74 -134 -90q-2 0 -9 -2t-11 -2q-8 -20 -8 -25q-45 -76 -99 -63q-43 12 -55 68q-8 63 6 108q8 23 29 31q18 72 74 78q35 6 52 -17.5t21 -60.5q0 -55 -10 -84q70 17 113 74zM88 766q-23 0 -43 -35q-35 -70 -6 -98q10 -6 45 -6h10 q14 43 15 84q-2 4 -4.5 18t-6.5 25.5t-10 11.5zM14 692h6h-6zM14 549q16 -18 38 3t26 42h6q-39 0 -59 14q-18 8 -25 19q0 -58 14 -78zM25 872q14 0 20 -8v-10v-6q0 -14 -20.5 -14t-20.5 14v6q-2 10 4.5 14t16.5 4zM143 864v-10q0 -6 -6 -6v-4l-10 -10q-14 0 -25 6q-4 0 -4 4 q-4 4 -4 14l4 6q2 2 7.5 4t7.5 4q12 6 30 -8zM133 864z" glyph-name="odieresis" horiz-adv-x="256" unicode=""/><glyph d="M860 1311q10 6 23.5 5t20.5 -9.5t1 -20.5q-51 -72 -123 -137q-123 -154 -389 -565l-55 -88t-59.5 -95.5t-54.5 -88t-57 -95.5t-49 -89t-52.5 -99t-44 -92.5t-41.5 -100.5q31 -8 16 -24q-12 -16 -41 -35q-12 -4 -25.5 4t-7.5 20q0 10 4 15q47 133 127 285.5t134.5 239.5 t166.5 261q197 315 305 463q-29 -16 -84 -25q8 -23 5 -34q-12 -63 -88 -123q-88 -61 -123 -15q-23 23 -4 64q6 55 49 98q41 55 82 55q10 4 24 5l6 -5q74 -29 191 64q4 4 10 9t9 9t5 7q25 29 70 80t49 57zM516 971l7 14t7 16q-14 0 -14 11q0 29 -4 39h-6q-14 0 -35 -21 q-31 -20 -57 -84q-10 -25 -11 -43q0 -14 5 -14h10q67 31 98 82zM487 465q68 -12 43 -117q-20 -115 -92 -133q-59 -20 -90 18q-20 29 -8 99q12 59 57 114q45 53 84 54q10 0 15.5 -11.5t-4.5 -17.5zM438 258q49 51 49 133q0 20 -6 31l-4 8h-6h-8v-4h-10q0 -4 -11 -4 q-6 -10 -14 -10q0 -6 -6 -6q-35 -70 -39 -93q0 -4 -1 -17t-1 -21.5t4 -15.5t12 -9q14 -6 41 8z" glyph-name="divide" horiz-adv-x="948" unicode=""/><glyph d="M250 707q-43 -57 -113 -74q10 29 10 84q-4 37 -21 60.5t-52 17.5q-55 -6 -74 -78q-20 -8 -29 -31q-14 -45 -6 -108q12 -55 55 -68q53 -12 99 63q0 4 8 25q4 0 11 2t9 2q88 16 134 90q6 8 -5 15q-16 10 -26 0zM88 766q6 0 10 -11.5t6 -25.5t5 -18q0 -41 -15 -84h-10 q-35 0 -45 6q-29 29 6 98q20 35 43 35zM14 692h6h-6zM14 549q-14 20 -14 78q6 -10 25 -19q20 -14 59 -14h-6q-4 -20 -26 -41.5t-38 -3.5zM119 903l4 -4t5 -8t-1 -8q-2 -2 -4 -9.5t-4 -9.5q-4 -47 -15.5 -100t-28 -115.5t-22.5 -95.5q-10 -76 -14 -92q-8 -39 -10 -45v-15 q16 0 0 -10q0 -10 -15 -10q-2 0 -3 3t-3 7t-4 6q-4 2 -4 29q2 18 7 54t7 55q8 41 38 163.5t42 190.5q0 14 15 14h10zM14 401z" glyph-name="oslash" horiz-adv-x="256" unicode=""/><glyph d="M207 377q23 -8 10 -25q-16 -14 -33.5 -8t-25.5 23q-14 43 -15 98v168q-2 -4 -7 -14.5t-9 -16.5q-63 -100 -102 -117q-39 -20 -64 4q-18 14 -10 60q2 20 14 59t15 49q20 29 20 60v14q4 12 20.5 12t24.5 -12v-10v-4v-6q0 -6 -10 -43q-29 -88 -31 -95q-18 -45 -14 -59 q6 0 10 6l20 8q31 29 82 115q51 98 56 107q10 23 35 14q12 -6 8 -19q-14 -135 -15 -235q0 -70 11 -104q0 -18 4 -29h6zM152 840q8 -6 7 -11.5t-6.5 -8.5t-9.5 -1q-35 0 -59 25q-12 6 -49 14q-6 0 -6 6q-4 4 -4 8q-6 8 -1 12.5t12 6.5t13 2q25 0 60 -25q2 -2 20.5 -11 t22.5 -17z" glyph-name="ugrave" horiz-adv-x="290" unicode=""/><glyph d="M207 377q23 -8 10 -25q-16 -14 -33.5 -8t-25.5 23q-14 43 -15 98v168q-2 -4 -7 -14.5t-9 -16.5q-63 -100 -102 -117q-39 -20 -64 4q-18 14 -10 60q2 20 14 59t15 49q20 29 20 60v14q4 12 20.5 12t24.5 -12v-10v-4v-6q0 -6 -10 -43q-29 -88 -31 -95q-18 -45 -14 -59 q6 0 10 6l20 8q31 29 82 115q51 98 56 107q10 23 35 14q12 -6 8 -19q-14 -135 -15 -235q0 -70 11 -104q0 -18 4 -29h6zM147 913q12 4 17.5 -7t-6.5 -17q-8 -4 -60 -25q-16 -10 -35 -24q-2 -2 -9 -6.5t-9 -10.5q-8 -6 -18.5 -3t-6.5 14q0 20 5 24q0 4 10 10q18 18 35 25 q48 20 77 20z" glyph-name="uacute" horiz-adv-x="290" unicode=""/><glyph d="M207 377q23 -8 10 -25q-16 -14 -33.5 -8t-25.5 23q-14 43 -15 98v168q-2 -4 -7 -14.5t-9 -16.5q-63 -100 -102 -117q-39 -20 -64 4q-18 14 -10 60q2 20 14 59t15 49q20 29 20 60v14q4 12 20.5 12t24.5 -12v-10v-4v-6q0 -6 -10 -43q-29 -88 -31 -95q-18 -45 -14 -59 q6 0 10 6l20 8q31 29 82 115q51 98 56 107q10 23 35 14q12 -6 8 -19q-14 -135 -15 -235q0 -70 11 -104q0 -18 4 -29h6zM133 932q2 -14 22.5 -36t20.5 -38q0 -12 -13 -15t-20 5q-20 20 -30 35q-10 0 -11 10q-20 -29 -43 -45q-8 -8 -20 -3t-10 19q4 12 13 24.5t25.5 29 l20.5 20.5q10 8 25.5 8t19.5 -14z" glyph-name="ucircumflex" horiz-adv-x="290" unicode=""/><glyph d="M207 377q23 -8 10 -25q-16 -14 -33.5 -8t-25.5 23q-14 43 -15 98v168q-2 -4 -7 -14.5t-9 -16.5q-63 -100 -102 -117q-39 -20 -64 4q-18 14 -10 60q2 20 14 59t15 49q20 29 20 60v14q4 12 20.5 12t24.5 -12v-10v-4v-6q0 -6 -10 -43q-29 -88 -31 -95q-18 -45 -14 -59 q6 0 10 6l20 8q31 29 82 115q51 98 56 107q10 23 35 14q12 -6 8 -19q-14 -135 -15 -235q0 -70 11 -104q0 -18 4 -29h6zM53 854q16 0 21 -10v-10v-5q0 -14 -21 -14q-18 0 -18 14v5q-4 10 3 15t15 5zM172 844v-10q0 -4 -4 -5v-6q0 -2 -4 -4t-6 -4q-14 0 -25 4q-6 0 -6 4 q-4 6 -4 17l4 4q2 0 7 3t9 7q13 6 29 -10zM162 844z" glyph-name="udieresis" horiz-adv-x="290" unicode=""/><glyph d="M600 707q14 14 27 -2q8 -10 -2 -19q-109 -102 -285 -348q-10 -12 -22.5 -33.5t-18.5 -30.5q-2 -25 -4 -78t-4 -79q-27 -211 -55 -408q-29 -188 -60 -276q-39 -131 -106 -162q-33 -23 -68 -11.5t-47 50.5q-16 82 10 211q55 340 162 540q70 125 129 218q6 219 0 438 q-27 -37 -70 -108.5t-59 -98.5q-27 -51 -57 -98q-33 -47 -60 -60q-27 -8 -40 -1t-16 39t-2 51.5t3 37.5l31 148q10 61 10 69v49q2 10 14.5 14.5t18.5 -3.5q10 -23 6 -35v-4q4 -59 -31 -193q-18 -88 -8 -127v-16q8 12 8 16q47 51 109 166q10 18 31.5 55t35 58.5t35 51.5 t41.5 52q4 6 13.5 8.5t16.5 -3t9 -15.5q8 -313 4 -428q6 8 19.5 27.5t21.5 27.5q149 216 260 310zM221 -111q23 166 29 316q-76 -119 -131 -246q-45 -106 -80 -260q-39 -180 -43 -252q-6 -33 -6 -106q2 -4 4 -11.5t3 -12.5t4 -11t6 -9.5t7 -5.5q0 -10 15 0q31 8 41 19 q18 16 43 74q31 72 49 148.5t36.5 203t22.5 153.5zM201 918q12 4 18 -6.5t-8 -18.5q-10 -6 -29.5 -13.5t-29.5 -11.5q-23 -10 -33 -24q-2 -2 -7.5 -3t-8.5 -4t-5 -8q-8 -8 -17 -5t-7 16q0 20 4 24q0 2 4 4t6 4q18 18 35 25q49 21 78 21z" glyph-name="yacute" horiz-adv-x="593" unicode=""/><glyph d="M600 707q14 14 27 -2q8 -10 -2 -19q-109 -102 -285 -348q-10 -12 -22.5 -33.5t-18.5 -30.5q-2 -25 -4 -78t-4 -79q-27 -211 -55 -408q-29 -188 -60 -276q-39 -131 -106 -162q-33 -23 -68 -11.5t-47 50.5q-16 82 10 211q55 340 162 540q70 125 129 218q6 219 0 438 q-27 -37 -70 -108.5t-59 -98.5q-27 -51 -57 -98q-33 -47 -60 -60q-27 -8 -40 -1t-16 39t-2 51.5t3 37.5l31 148q10 61 10 69v49q2 10 14.5 14.5t18.5 -3.5q10 -23 6 -35v-4q4 -59 -31 -193q-18 -88 -8 -127v-16q8 12 8 16q47 51 109 166q10 18 31.5 55t35 58.5t35 51.5 t41.5 52q4 6 13.5 8.5t16.5 -3t9 -15.5q8 -313 4 -428q6 8 19.5 27.5t21.5 27.5q149 216 260 310zM221 -111q23 166 29 316q-76 -119 -131 -246q-45 -106 -80 -260q-39 -180 -43 -252q-6 -33 -6 -106q2 -4 4 -11.5t3 -12.5t4 -11t6 -9.5t7 -5.5q0 -10 15 0q31 8 41 19 q18 16 43 74q31 72 49 148.5t36.5 203t22.5 153.5zM70 868q14 0 18 -10v-10v-4q0 -14 -18 -15q-20 0 -21 15v4q-4 20 21 20zM186 858v-10q0 -4 -4 -4v-4l-10 -11q-14 0 -25 5q-4 0 -4 6q-6 4 -6 14l6 4q0 2 15 10q12 6 28 -10zM176 858z" glyph-name="ydieresis" horiz-adv-x="593" unicode=""/><glyph d="M1479 1307q18 -12 17 -27.5t-17 -28.5q-16 -12 -31 2q-6 4 2 13q0 6 4 6q-8 4 -33 4q-43 0 -108 -10q-47 -4 -140.5 -16.5t-140.5 -16.5q-39 -8 -113.5 -18.5t-107.5 -16.5q2 -16 7 -57t7 -66q4 14 6.5 37t4.5 31q0 10 4 10q-8 12 -4 21q4 14 14 20t24 -6q6 -6 7 -45 q-47 -305 -80 -475q14 2 129 28q57 10 176 39q100 16 123 10q18 -4 8 -18q-6 -10 -18 -10l-5 -6h-10q-20 0 -28 -4q-25 -6 -74 -15q-33 -6 -94.5 -20.5t-94.5 -20.5q-51 -10 -122 -28q-10 -51 -15 -64q-4 -41 -24 -133q-6 -25 -14.5 -72t-14.5 -71q-8 -41 -24.5 -120 t-29 -142.5t-20.5 -120.5q-6 -10 -6 -35l6 6q33 27 215 137q168 98 256 137q168 66 256 21q10 -6 11.5 -13.5t-8 -13.5t-17.5 -4q-96 29 -242 -39q-113 -51 -231 -123q-143 -82 -201 -127q-10 -6 -29.5 -24.5t-29.5 -24.5q-25 -113 -84 -157q-10 -8 -26.5 -2t-16.5 22 q0 70 78 152v10q6 23 11 47.5t10 54t9 45.5q0 8 2 21.5t2 17.5q-55 -135 -127 -241q-143 -223 -294 -148q-106 51 -123 227q-23 141 -7 314q18 190 50 336q-20 20 -35 49q-39 88 -8 229q43 248 221 449q139 166 313 166q72 4 123 -37t74 -115q51 6 162.5 23.5t171.5 25.5 q223 27 256 29q74 0 88 -8zM772 1149q-4 8 -6 23.5t-4 19.5q-25 0 -39 -4q-96 -10 -119 -10q-63 -14 -67 14q-4 8 1 14t13 2h-2h16h21q8 2 27.5 4t29.5 5q16 0 109 16q-23 53 -35 67q-31 43 -88 56q-80 2 -157 -40t-132 -108q-182 -207 -227 -442q-27 -127 10 -207 q0 -6 4 -10q29 121 84 256q66 143 108 201q23 43 50 49q12 4 26.5 3t24.5 -10.5t2 -21.5q-4 -14 -29 -14q-2 0 -4 2t-6 2q-12 -12 -25 -29q-51 -78 -102 -203q-8 -14 -20.5 -43.5t-18.5 -44.5q0 -6 -3 -15t-3 -13v4v-4q-10 -25 -10 -31q0 -4 -5.5 -23.5t-9.5 -29.5 q-6 -12 -13 -42t-11 -42q51 -33 104 -39q18 -14 15 -25q-10 -18 -31 -10q-57 6 -98 35q-39 -242 -43 -340q-12 -199 10 -305q33 -160 131 -176q68 -6 129 63q53 53 100 133t69.5 133.5t61.5 151.5q74 225 82 266q0 2 3 7t3 7q6 31 18.5 98.5t20.5 98.5v14q-66 0 -78 11 q-20 8 -10 24q10 10 29 10l10 -6h4h10q31 0 46 6q14 104 24 226q8 190 0 266zM211 672z" glyph-name="OE" horiz-adv-x="1228" unicode=""/><glyph d="M330 618q-18 -33 -64 -69q-37 -37 -65 -53q10 -35 30 -56q18 -23 64 -34q12 -4 13 -12.5t-6 -13.5t-17 -3q-61 18 -88 49q-23 31 -25 39l-6 -12q-6 -12 -8 -23q-31 -53 -70 -74q-45 -18 -79 20t-44 89q-25 119 6 221q10 47 39 59q4 0 10 5q33 80 68 104q68 47 105 -10 q33 -47 32 -133q29 35 60 34q25 4 48 -8t25 -37q9 -35 -28 -82zM281 711q-35 -14 -60 -64q-2 -12 -7 -36.5t-7 -37.5l-10 -34v-4q10 4 24 18q8 8 23.5 21.5t21.5 19.5q6 12 19 24v5q35 35 34 63q0 18 -10 26.5t-28 -1.5zM78 784q-2 -6 -10.5 -23.5t-14.5 -25.5q0 -2 3 -4 t3 -6q2 -6 -3 -10t-11 -4q-4 -10 -9 -32t-7 -32q-8 -98 30 -127q33 -29 84 -20q8 20 9 28q0 4 3 8.5t3 8.5v8q0 29 18 94q6 14 6 39q8 86 -14 133q-16 35 -45 15q-31 -23 -45 -50zM94 406q29 41 39 65q-47 -10 -94 18q-37 31 -43 80v-20q0 -88 29 -133q4 -8 16 -21.5 t18 -13.5q17 0 35 25z" glyph-name="oe" horiz-adv-x="393" unicode=""/><glyph d="M1092 725q8 -4 8 -12t-8 -13q-264 -160 -517 -401q70 -61 120 -113.5t99.5 -123t67 -133t1 -134t-76.5 -135.5q-166 -176 -421 -192q-129 -8 -197 38q-78 55 -59 172q23 123 137 295q100 158 241 295l25 25q-18 16 -136 110.5t-175 149.5q-115 100 -156 197 q-55 131 0 262q55 125 176 218t266 144q137 47 279 39q88 0 154 -33q33 -14 53 -49q18 -31 -15 -31q-4 -2 -10 1.5t-9 7.5t-1 6q-6 10 -8 10q-4 4 -9.5 7t-7.5 3q-4 6 -39 21q-41 12 -88 18q-80 10 -147 -4q-137 -18 -305 -113q-133 -82 -213 -201.5t-43 -250.5 q29 -100 143 -211q102 -96 197 -168q92 -76 123 -102q258 256 520 401q17 16 31 0zM821 -184q8 74 -26.5 151.5t-76.5 125.5t-108 112q-10 10 -32.5 29.5t-32.5 29.5q-16 -14 -45 -45t-37 -39q-147 -166 -221 -305q-61 -125 -70 -151q-29 -68 -14 -119q8 -49 46 -74t92 -26 t100 6.5t91 19.5q115 33 201 98q115 89 133 187zM678 1602q6 4 0 4v-4zM709 1595q2 -6 -6.5 -16t-19.5 -21.5t-15 -15.5q-8 -6 -22.5 -23.5t-20.5 -25.5q-23 -14 -31 0q-18 18 -39 68q0 6 6 10q0 6 4 10q10 0 15 -4q6 -2 11 -10t11 -20.5t8 -18.5q4 6 12.5 15t12.5 18 q6 2 11 7t9 12t9 11l4 4q6 6 10 7h-4q27 13 35 -7zM698 1581z" glyph-name="Scaron" horiz-adv-x="1060" unicode=""/><glyph d="M309 711q14 14 33 0q10 -8 2 -19q-41 -53 -140.5 -128t-129.5 -103v-15q10 -70 4 -94q-4 -18 -13.5 -30.5t-25.5 -8.5q-41 0 -68 39q-23 51 58 123q-4 25 -15 53q-2 16 -9 48t-9 47q-27 55 -21 112q8 78 70 99q55 27 127 -19q18 -14 -2 -24q-14 -6 -23 0q-66 33 -98 4 q-41 -35 -29 -99q2 -27 15.5 -75t17.5 -68q10 -25 10 -49q10 10 15 10q20 16 59 46t62.5 48.5t54 47t55.5 55.5zM35 342zM39 348zM35 348q8 20 0 74v4q-33 -33 -25 -53q7 -19 25 -25zM137 1030q6 6 0 6v-6zM168 1026q2 -6 -6 -16.5t-19.5 -21.5t-15.5 -17q-6 -6 -13.5 -14.5 t-16.5 -18.5t-13 -16q-25 -10 -31 0q-18 23 -39 69q0 4 6 10q0 4 5 11q10 0 14 -6q8 -2 31 -50q4 6 12 16.5t12 18.5q8 2 17.5 14.5t11.5 14.5l4 6q6 4 10 4h-4q25 19 35 -4zM158 1012z" glyph-name="scaron" horiz-adv-x="329" unicode=""/><glyph d="M987 717q23 4 31 -15q4 -10 -10 -16q-233 -90 -463 -319q-14 -55 -46 -165t-46 -165q-10 -33 -34 -110t-43.5 -131t-41.5 -103q-80 -211 -197 -275q-66 -39 -108 11q-35 41 -25 141q20 174 143 364q76 131 226 310q92 102 133 137q18 74 69 246q76 272 142 452 q10 25 45 119q-35 -43 -64 -88q-190 -279 -266 -369q-51 -63 -127 -133q-74 -74 -123 -69q-55 0 -78.5 45t-21.5 92t12 94q6 27 24.5 103.5t24.5 117.5q2 10 8.5 50t6.5 63v24q-10 10 -11 21v4v6q0 14 25 15h10l11 -7q4 -4 4 -14q4 -4 4 -25q0 -31 -8 -88q-14 -111 -25 -147 q-31 -98 -35 -158q-14 -102 14 -141q37 -47 119 29q68 61 127 137q115 131 266 364q147 215 162 240q16 74 53 123q8 12 26 6t13 -20q-18 -59 -57 -134q-20 -57 -31 -88q-53 -129 -88 -256q-68 -184 -157 -499q0 -4 -6.5 -23.5t-8.5 -32.5q197 191 422 277zM330 -209 q80 227 151 512q-160 -178 -245 -305q-133 -197 -177 -354q-25 -127 0 -181q20 -53 93 19q102 92 178 309z" glyph-name="Ydieresis" horiz-adv-x="983" unicode=""/><glyph d="M870 717q20 0 19 -19q-4 -16 -25 -16l-8 -6q-20 -8 -31 -14q-57 -39 -161 -134q-43 -37 -84 -77q-4 -35 -25 -119q-20 -111 -88 -289q-63 -168 -133 -309q-84 -184 -158 -266q-111 -137 -201 -123q-49 10 -73.5 62t-24.5 110q0 109 103 305q72 113 167 225 q160 199 390 418q16 158 -60 227q-55 53 -146 60.5t-163 -11.5q-14 0 -23.5 9.5t2.5 19.5q92 66 232 197q176 166 190 176q-176 -25 -303 -25q-111 0 -143 10q-18 4 -27.5 7.5t-18.5 13.5t-7 25q0 18 21.5 16t21.5 -16q-4 -6 0 -7l6 -4q4 -2 19.5 -4t23.5 -6h133 q109 6 340 35q12 0 21.5 -12.5t-3.5 -22.5q-33 -20 -68.5 -49t-57 -49.5t-62.5 -59.5t-57 -53q-63 -70 -177 -158q113 12 172 -10q57 -14 102.5 -54t59.5 -93q23 -61 15 -117q96 86 168 141q85 62 122 66zM457 135q51 147 69 266l-73 -73q-240 -240 -379 -443 q-125 -184 -148 -315q-10 -76 0 -113q27 -74 60 -78q29 -4 92 43q63 55 94 105q63 84 152 285q22 49 133 323zM438 1339q4 6 0 7v-7zM467 1335q2 -6 -5 -16t-18.5 -21.5l-15.5 -15.5q-29 -33 -45 -49q-23 -14 -29 0q-25 25 -39 67q0 6 4 11q0 4 5 10q10 0 16 -6 q6 -2 10 -9.5t10.5 -20.5t8.5 -19q4 6 13 16t11 18q6 2 29 31l6 4q4 4 10 4h-6q29 21 35 -4zM457 1321z" glyph-name="Zcaron" horiz-adv-x="860" unicode=""/><glyph d="M575 707q6 6 14.5 7t13.5 -6.5t1 -15.5q-119 -180 -176 -256q-82 -109 -143 -182q0 -12 -2 -34.5t-2 -35.5q-18 -104 -60 -225q-47 -137 -69 -176q-18 -45 -36 -75t-50.5 -60.5t-69.5 -28.5q-43 2 -57.5 39t-7 73t19.5 66q35 109 123 240q53 80 172 227v4q0 129 -39 172 q-51 63 -172 35q-27 0 -29 14q0 6 4 11q10 12 73.5 93t102.5 118q-45 -14 -108 -25q-59 -10 -88 -4q-14 6 -15 18v17q0 12 15 18q23 0 30 -14v-4q12 -6 50 4q10 0 34.5 7t28.5 7q20 6 62.5 18.5t64.5 16.5q12 0 22.5 -12.5t-1.5 -22.5q-76 -47 -203 -215q68 6 119 -20 q66 -41 77 -109q10 -41 11 -74q45 53 55 70q14 19 235 320zM133 -164q88 229 103 354q-12 -18 -37 -49.5t-37 -48.5q-104 -137 -158 -266q-29 -78 -29 -117q0 -29 11.5 -47t33.5 -2q18 14 37 37.5t28 41t25.5 52.5t22.5 45zM176 932q6 6 0 6v-6zM207 928q2 -6 -6 -16.5 t-18.5 -21.5t-14.5 -18q-8 -8 -45 -49q-25 -10 -29 0q-20 20 -41 70q0 4 6 10q0 4 4 10q10 0 15 -6q8 -2 12 -8t10 -21.5t9 -19.5l24 35q8 2 17.5 14.5t11.5 14.5l6 6q4 4 8 4h-4q25 19 35 -4zM197 913z" glyph-name="zcaron" horiz-adv-x="575" unicode=""/><glyph d="M373 1473q35 -31 35 -50q0 -12 -13.5 -15t-21.5 1q-8 8 -22.5 25.5t-20.5 23.5l-35 35q-8 -6 -24.5 -21.5t-24.5 -23.5q-25 -35 -45 -35q-6 -4 -14.5 0t-4.5 10q-4 10 7.5 24.5t21.5 20.5l18.5 18.5t22.5 23t18 18.5q14 20 39 4q8 -8 31 -27.5t33 -31.5z" glyph-name="circumflex" horiz-adv-x="520" unicode=""/><glyph d="M211 1602q6 4 0 4v-4zM242 1595q2 -6 -6.5 -16t-19.5 -21.5t-15 -15.5q-8 -6 -22.5 -23.5t-20.5 -25.5q-23 -14 -31 0q-18 18 -39 68q0 6 6 10q0 6 4 10q10 0 15 -4q6 -2 11 -10t11 -20.5t8 -18.5q4 6 12.5 15t12.5 18q6 2 11 7t9.5 12t8.5 11l4 4q6 6 10 7h-4 q27 13 35 -7zM231 1581z" glyph-name="caron" horiz-adv-x="339" unicode=""/><glyph d="M270 1595q10 -27 -7 -51t-46 -37q-23 -10 -52.5 -0.5t-31.5 35.5q-14 57 53 78q8 4 15 2q4 -2 6 -2q43 10 63 -25zM197 1542q37 10 28 39v4h-4q0 2 -24 -8h-11q-14 -8 -14 -25q5 -18 25 -10z" glyph-name="ring" horiz-adv-x="403" unicode=""/><glyph d="M236 1511q12 -6 16 -18t-6 -25q-14 -20 -49 -10q-10 0 -27.5 2t-26.5 2q-10 2 -12 1t-4 -8t-8 -11h-21q-10 10 -8 25.5t12 23.5q8 4 56 4q6 0 24.5 -5t28.5 -5v20q15 10 25 4z" glyph-name="tilde" horiz-adv-x="348" unicode=""/><glyph d="M481 618q35 -18 -4 -49q-8 -6 -21.5 -3t-13.5 18v0h-20h-39q-29 -6 -84 -6q-109 -8 -172 -15q-20 -4 -25 19q-4 16 17 16q164 20 246 20q25 4 67.5 4t48.5 -4z" glyph-name="endash" horiz-adv-x="638" unicode=""/><glyph d="M1081 756q16 -4 16.5 -19.5t-16.5 -19.5q-8 0 -84 -10q-6 0 -12 5t-6 9h-109q-176 -4 -505 -25q-33 0 -97.5 -2t-99.5 -2q-84 0 -84 29q0 10 9 14t20 0l6 -2q-8 0 -6 -2h24h84q168 4 481 25q41 0 119 2t117 2q123 0 143 -4z" glyph-name="emdash" horiz-adv-x="1159" unicode=""/><glyph d="M162 1300q4 10 21.5 10.5t17.5 -14.5q0 -20 -25 -69q-8 -10 -20.5 -30.5t-18.5 -29.5q-18 -14 -39 0q-12 8 0 21q39 49 64 112z" glyph-name="quoteleft" unicode=""/><glyph d="M162 1300q4 10 21.5 10.5t17.5 -14.5q0 -20 -25 -69q-8 -10 -20.5 -30.5t-18.5 -29.5q-18 -14 -39 0q-12 8 0 21q39 49 64 112z" glyph-name="quoteright" unicode=""/><glyph d="M186 795q4 10 21.5 10t17.5 -14q0 -20 -24 -70q-8 -10 -20.5 -29.5t-18.5 -29.5q-18 -14 -39 0q-12 8 0 20q38 50 63 113z" glyph-name="quotesinglbase" unicode=""/><glyph d="M211 1311q8 8 19.5 8t11.5 -8l4 -11q4 -39 24 -108q2 -18 -17.5 -23.5t-27.5 9.5q-25 59 -24 118q8 15 10 15zM137 1339h6q8 -8 9 -14q6 -8 10 -28.5t6 -24.5q12 -51 18 -105q4 -12 -12 -16q-27 -4 -31 16q-2 14 -7 44t-9 46q0 14 -8 43q0 6 -3 12.5t-3 8.5v10q-2 4 2 8 t10 4t12 -4z" glyph-name="quotedblleft" horiz-adv-x="348" unicode=""/><glyph d="M172 1311q2 0 10 -15q0 -59 -24 -118q-8 -14 -27.5 -9t-17.5 23q20 70 24 108q0 6 6 11q0 8 10.5 8t18.5 -8zM246 1339q6 4 12 4t10 -4t2 -8v-10q0 -2 -2 -8t-2 -13q-10 -25 -10 -43q-6 -35 -14 -90q-6 -23 -33 -14q-14 4 -12 14q6 57 20 105q10 49 14 53q0 8 11 14h4z " glyph-name="quotedblright" horiz-adv-x="348" unicode=""/><glyph d="M162 672q4 0 10 -15q0 -59 -25 -118q-8 -14 -27.5 -9t-17.5 23q20 70 25 109q0 6 6 10q0 8 10.5 8t18.5 -8zM236 700q10 10 22 0q4 -4 2 -8v-10q0 -2 -2 -8t-2 -12q-10 -25 -10 -44q-2 -16 -7.5 -44.5t-7.5 -45.5q-6 -23 -32 -14q-14 4 -13 14q14 86 21 105q10 49 14 53 q0 8 10 14h5z" glyph-name="quotedblbase" horiz-adv-x="348" unicode=""/><glyph d="M201 682v-20q0 -10 -8 -19l-21 -10h-25h-20q-8 10 -8 18q-6 2 -9.5 6.5t-3.5 9.5v8v7l3 4q33 37 63 21l10 -11q11 -10 19 -14zM172 643z" glyph-name="bullet" horiz-adv-x="382" unicode=""/><glyph d="M379 254q8 -8 0 -21q-2 -2 -8 -6t-13 -8q-29 0 -28 14v11q-47 55 -154.5 194.5t-171.5 208.5q-8 8 0 21q49 68 148 215q94 133 157 192q12 12 33 -2q6 -6 2 -12q-2 -6 -13.5 -24.5t-15.5 -30.5q-12 -8 -20 -5q-16 -25 -54 -73.5t-55 -73.5q-14 -20 -40.5 -61t-49 -74 t-43.5 -62q68 -76 185.5 -226t140.5 -177z" glyph-name="guilsinglleft" horiz-adv-x="491" unicode=""/><glyph d="M526 707q6 -8 -6 -21q-201 -168 -362 -471q-4 -12 -24.5 -13t-20.5 13q-4 31 20 88q12 12 25 4q156 262 313 393q-27 33 -92.5 100.5t-109.5 123t-72 112.5q-10 20 10 29q4 0 10 1t9 1h7.5t8.5 -2t8 -10t6 -11q6 -6 0 -14q41 -72 148.5 -188.5t121.5 -134.5z" glyph-name="guilsinglright" horiz-adv-x="589" unicode=""/><glyph d="M432 1468q27 -33 0 -157q-6 -41 -23.5 -112t-19.5 -81q-72 -264 -94 -377q-8 -31 -78 -295t-98 -403q8 -12 8 -14q-2 -8 -10 -28.5t-8 -31.5q-10 -23 -37 -16q-16 6 -13 20q25 152 98.5 438.5t84.5 329.5q23 96 98 373q6 31 20.5 91.5t22.5 90.5q0 39 14 88q0 49 -8 78 q-4 14 14 17q21 1 29 -11z" glyph-name="fraction" horiz-adv-x="442" unicode=""/><glyph d="M496 1184q-72 16 -138 -115q-76 -135 -122 -369q6 0 25.5 3.5t29.5 3.5t35.5 2t31.5 2q29 0 31 -19q2 -12 -16 -16q-29 -4 -79 -8t-69 -6q-6 -57 -14 -89h10q123 16 309 35q10 0 17.5 -8t5.5 -16.5t-16 -10.5q-276 -37 -320 -45h-10q-20 -203 -14 -299q8 -135 49 -206 q25 -35 58.5 -47.5t78.5 8.5q78 47 147 225q23 51 92 252q10 23 39 12q16 -8 11 -22q-86 -268 -148 -373q-68 -115 -127 -133q-29 -14 -65.5 -14.5t-61.5 14.5q-80 47 -104 151q-18 80 -19 242q0 63 9 182q-55 -10 -113 -10q-4 0 -10 -6q-25 0 -25 16v8q0 10 8 17.5t17 7.5 q31 0 129 10q2 12 7 44t7 50q-2 0 -49 -10q-2 0 -10.5 -2t-14.5 -2l-4 -6q-12 -12 -26.5 -9t-18.5 15q-6 10 3 19.5t28.5 15.5t38 9l37 6t20.5 3h10q0 4 3.5 17.5t3.5 21.5q8 31 25.5 98.5t27.5 104.5q51 139 112 221q84 90 179 58q29 -12 51 -34t39.5 -55.5t27 -56 t24.5 -68t19 -57.5q2 -6 -6 -10t-17 -3t-11 5q-14 27 -39 83t-39 83q-2 4 -11.5 17.5t-13.5 17.5t-12 14t-15.5 15.5t-17.5 9.5t-20 6z" glyph-name="Euro" horiz-adv-x="727" unicode=""/><glyph d="M481 618q35 -18 -4 -49q-8 -6 -21.5 -3t-13.5 18v0h-20h-39q-29 -6 -84 -6q-109 -8 -172 -15q-20 -4 -25 19q-4 16 17 16q164 20 246 20q25 4 67.5 4t48.5 -4z" glyph-name="minus" horiz-adv-x="638" unicode=""/><glyph d="M225 750q8 -47 -18 -103q-59 -121 -162 -127q-18 0 -20 19q0 14 14 14q63 8 113 90q45 72 24 117q-82 -12 -131 -123q-31 -82 -41 -172v-35q-4 -18 -26.5 -15t-22.5 21q0 4 3 15.5t3 19.5q16 260 98 647q80 367 127 684q4 16 17.5 16.5t17.5 -16.5q6 -14 -4 -73v-11 q-20 -133 -115 -600q-43 -205 -73 -411q53 74 129 88q39 10 53 -4q14 -23 14 -41z" glyph-name="b.aalt" horiz-adv-x="266"/><glyph d="M446 2220q20 -20 21 -84q-4 -92 -53 -260q-113 -373 -291 -664q-18 -25 -53 -84q-53 -360 -66 -639q25 68 59 123q106 152 158 84q31 -43 10 -112q-10 -49 -55 -119q-96 -131 -172 -197q6 0 6 -10q0 -25 -39 -14q-4 0 -8 3t-8 3q-14 8 -14 24q4 6 20 58q-8 305 53 729 q-37 -47 -84 -84q-84 -66 -102 -25q-2 10 10 13.5t19 -2.5q0 4 10 4q4 2 17.5 13t21.5 15q66 66 114 129q0 4 5 11q55 385 112 604q39 154 99 284q55 104 69 123q37 59 74 78q42 25 67 -4zM88 569q-33 -68 -84 -241q70 70 115 133q94 129 67 207q-8 8 -10 8q-18 -10 -33 -29 q-41 -49 -55 -78zM422 2146v45q-4 4 -4 9h-4q-23 0 -66 -54q-63 -94 -127 -260q-53 -158 -84 -330q0 -2 -59 -344q88 143 188 365q68 176 103 303q53 155 53 266z" glyph-name="glyph197" horiz-adv-x="299"/><glyph d="M393 711q12 18 39 2q18 -10 6 -27q-145 -174 -227 -246q-59 -59 -117 -92q-45 -39 -98 -49q-43 -8 -74 18.5t-35 69.5q-8 96 50 207q51 119 108 176q66 55 90 33q8 -8 12 -19q8 -12 -14 -18q-14 -2 -20 4q-4 0 -4 4q-2 -2 -10.5 -4t-10.5 -4q-25 -25 -63 -90 q-66 -96 -78 -201q-33 -127 24 -137q16 -6 78 24q16 10 119 93q168 172 225 256z" glyph-name="c.aalt" horiz-adv-x="397"/><glyph d="M403 1468q8 14 29 13.5t21 -19.5q-6 -80 -32 -229.5t-32 -202.5q-10 -117 -31 -354q-16 -156 -34 -422q-18 -297 -29 -393q0 -18 -24.5 -18.5t-24.5 18.5q10 90 28 403q6 70 17.5 207t17.5 205q20 246 35 364q18 143 35 226q-6 -16 -18.5 -53t-20.5 -54q-10 -33 -70 -203 q-10 -29 -36.5 -105.5t-40.5 -119.5q-68 -182 -99 -246q-78 -143 -153 -157q-18 -2 -30.5 13t-19.5 36q-4 41 7 94q23 127 88 221q66 113 127 92q18 -8 12 -20t-23 -8q-23 8 -63 -49q-37 -49 -67.5 -133.5t-34.5 -137.5v-55q0 -8 4 -14q33 12 84 84q45 76 108 260 q16 49 48 133t40 108q45 127 70 207q34 110 112 309z" glyph-name="d.aalt" horiz-adv-x="446"/><glyph d="M162 721q-45 -53 -84 -84q-14 -14 -43 -35q8 -37 24 -57q25 -27 64 -35q18 -8 13 -21.5t-23 -9.5q-61 18 -88 49q-39 47 -39 129q0 68 43 127q41 61 84 70q25 4 48 -10.5t25 -38.5q7 -31 -24 -84zM49 662q43 35 64 63q35 39 34 66q0 39 -34 24q-45 -20 -66.5 -72.5 t-17.5 -105.5q2 4 10 11.5t10 13.5z" glyph-name="e.aalt" horiz-adv-x="249"/><glyph d="M365 485q8 -2 9 -12t-5.5 -16t-14.5 -2q-35 8 -55 16q-23 10 -43 39q-14 -20 -63 -49q-106 -66 -164 10q-2 2 -4 7t-5 7q-78 -88 -167 -137q-18 -25 -86 -57q-84 -37 -86 12q0 8 12 8t12 -8q0 -16 68 21q4 2 6 4q84 59 108 84q53 39 117 112q-23 63 -14 168 q29 164 94 246q35 55 84 78q25 18 59.5 27.5t53.5 -3.5q25 -29 14 -84q-20 -74 -45 -122q-76 -160 -180 -289l-25 -25q4 -8 33 -45q47 -37 153 64l11 6q-25 63 8 131q20 51 57 86t76 8q16 -10 21.5 -24.5t0 -33t-11.5 -31.5t-16 -31.5t-12 -22.5q-49 -57 -80 -88 q35 -44 80 -54zM29 594q6 -10 6 -35q20 29 28 35q80 106 148 250q37 102 39 112q10 37 0 56q-72 -10 -123 -82t-78 -160q-26 -96 -20 -176zM365 745zM299 676q-25 -33 -25 -88q63 61 84 129q6 8 7 28h-7q-34 -12 -59 -69z" glyph-name="e_e.dlig" horiz-adv-x="495"/><glyph d="M575 1266q23 0 25 -19q-4 -12 -14 -14q-96 -12 -271.5 -23.5t-244.5 -17.5q-20 -147 -31 -215q-10 -86 -36 -420t-56 -514q-6 -23 -35 -18q-18 4 -14 18q29 162 57 485q49 532 70 660q-106 -8 -177 -25q-31 -8 -49 -20q-10 -6 -6 -15q8 -14 -12 -16q-18 -2 -23 12 q-4 12 -3 23.5t13.5 20t24.5 14.5t33.5 11t39 9t40 6t37 4t29 3.5t18.5 1.5t17 3t22 3q35 164 55 231q29 135 68 211q23 53 55 49q35 0 49 -69q2 -8 -6 -13.5t-17.5 -3.5t-11.5 12q-8 31 -14 39q-6 0 -6 -4q0 -2 -5.5 -8t-9.5 -12q-12 -29 -23 -65t-22.5 -80t-17.5 -66 q-23 -84 -49 -217q331 21 501 39z" glyph-name="f.aalt" horiz-adv-x="118"/><glyph d="M545 717q16 14 35 0q12 -8 0 -21q-41 -53 -165 -216t-190 -255q-8 -90 -14 -139q-14 -162 -53 -338q0 -4 -7.5 -31.5t-9.5 -34t-9 -32t-11 -34.5t-11.5 -30.5t-14.5 -34t-16 -29t-18.5 -29.5t-21.5 -25q-57 -70 -117 -46q-45 25 -59 66q-12 35 0 117q14 51 53 153 q86 203 203 383q10 18 32.5 51t30.5 48q14 152 15 329v148v8q-27 -43 -60 -98q-39 -59 -74 -88q-37 -37 -59 -29q-74 25 -14 172q61 121 143 182q8 4 17.5 2t7.5 -12q0 -6 -3 -18.5t-3 -20.5q-4 -12 -16.5 -12t-12.5 12v4q-51 -51 -94 -137q-29 -61 -29 -98q0 -25 4 -35 q0 -10 10 -10q25 12 45 49q2 2 64 88q49 90 70 133q0 43 18 70q10 10 26.5 5t12.5 -20q-8 -41 -19 -59q0 -31 5 -49q0 -16 3 -45t3 -43v-172q0 -41 -11 -189q45 61 97.5 129t116 151t100.5 130zM137 -143q33 227 39 299q-145 -227 -205 -379q-16 -39 -45 -117 q-33 -104 -24 -147q8 -53 45 -60q35 0 57 39q25 25 49 74q47 90 84 291z" glyph-name="g.aalt" horiz-adv-x="550"/><glyph d="M618 430q18 -4 18.5 -18.5t-18.5 -14.5q-182 18 -407 -157q-2 -8 -4 -39t-6 -45q-25 -209 -64 -344q-55 -197 -137 -291q-113 -131 -207 -123q-53 12 -74.5 60t-13.5 104q29 162 137 323q72 125 236 291q14 12 45 39t45 39q4 49 12 139t15.5 164t15.5 139 q-8 -16 -26.5 -42.5t-22.5 -35.5q-53 -76 -113 -108q-51 -31 -78 0q-20 18 -20 74q6 123 88 211q53 68 119 73q23 4 41 -5t2 -29q-4 -6 -12.5 -7.5t-13.5 4t-3 9.5q-14 0 -20 -6q-31 -6 -54 -29q-35 -35 -59 -84q-53 -109 -43 -168q0 -12 8 -25v0q6 0 10 7q43 16 84 67 q98 121 148 305q2 12 13 14.5t19.5 -5t6.5 -19.5q-29 -127 -43 -348q-2 -12 -25 -260q49 41 137 84q151 69 264 57zM113 -115q31 129 49 316q-123 -111 -215 -232q-127 -170 -178 -325q-31 -92 -19 -152q8 -51 49 -59q39 -6 88 35q63 43 113 118q64 94 113 299z" glyph-name="glyph204" horiz-adv-x="364"/><glyph d="M186 1739h7h-7zM471 707q16 14 37 0q12 -8 4 -21q-90 -109 -133 -147q-90 -82 -129 -93q-37 -12 -63.5 4.5t-34.5 53.5q-4 16 -5 98l3 16q2 16 1 28.5t-8 21.5q-61 -33 -114 -168q-10 -31 -58 -217q-8 -14 -27.5 -8t-17.5 24q6 18 13.5 54t11.5 53q20 86 69 466 q18 150 68 467q8 49 20.5 147.5t18.5 143.5q2 2 6 23q23 113 47 112q8 0 17 -8q6 -4 4 -9t-8 -9v4v-4q-16 0 -21 4q14 -14 14 -4v-6q0 -8 -4 -15q-4 -8 -6 -25.5t-4 -23.5q-2 -29 -10 -77l-10 -60q-31 -246 -50 -344q-4 -35 -26.5 -202t-30.5 -255q-14 -109 -20 -133 q39 66 73 88q45 23 60 14q25 -6 35 -32q6 -25 1.5 -77t2.5 -77q10 -39 20 -39q27 8 39 21q25 14 48.5 32.5t49 45t37.5 40t43 50.5t37 43z" glyph-name="h.aalt" horiz-adv-x="487"/><glyph d="M727 711q6 16 27 12q18 -6 12 -23q-39 -109 -176 -200q-131 -76 -187 -29q-43 37 -34 147v82v25q-41 -10 -88 -57q-80 -84 -109 -133q-47 -61 -78 -144q-6 -43 -6 -133q0 -18 -19.5 -19t-23.5 15q-25 53 4 143q4 45 53 387q8 35 20.5 106t20.5 105q-70 -57 -104 -77 q-14 -10 -32.5 -20.5t-42 -11.5t-27.5 21q0 14 15 17.5t19 -11.5q4 0 4 5q20 4 50 24q49 35 127 113q20 84 45 207q109 453 309 751q55 88 104 109q23 8 41.5 -2.5t26.5 -36.5q12 -63 -14 -158q-8 -39 -54 -182q-166 -408 -379 -649q-8 -8 -20 -22.5t-18 -20.5 q-45 -256 -60 -355q-4 -29 -14 -90t-17 -92q39 57 105 133q59 59 92 84q61 43 90 35q25 -14 25 -59v-99q-10 -61 8 -98q18 -35 70 -14q59 16 137 82q67 70 98 133zM575 2048q-51 -59 -112 -172q-172 -311 -256 -762q193 223 348 604q49 119 63 183q37 111 25 172 q-6 20 -12 20q-2 2 -6 0q-27 -12 -50 -45z" glyph-name="glyph206" horiz-adv-x="737"/><glyph d="M305 700q10 20 31 9q8 -4 4 -13q-10 -23 -70 -133q-98 -170 -186 -231q-47 -43 -84 -29q-33 14 -39 53q-18 76 4 246q20 145 45 207q10 23 33 12q16 -8 10 -22q-10 -29 -17 -59.5t-13.5 -84t-8.5 -61.5q-14 -70 -14 -139q0 -82 4 -99q8 -29 35 -14q16 8 31.5 23.5t34 35 t28.5 29.5q82 102 172 270zM59 977q-14 0 -20 4q-12 8 -4 20l10 11v0v4q8 20 31 10q14 -6 8 -20q0 -23 -25 -29z" glyph-name="i.aalt" horiz-adv-x="309"/><glyph d="M344 696q14 14 33 2q10 -8 2 -16t-37 -39t-39 -41t-35.5 -37.5t-38 -42t-35 -39t-36 -42t-31.5 -41t-33.5 -44t-30.5 -43.5q0 -256 -34 -579q-27 -215 -68 -350q-55 -190 -104 -256q-29 -49 -74 -50q-51 0 -78 91q-14 74 -4 161q4 70 25 187q41 309 190 628 q70 119 104 172v95q-4 39 -9 117.5t-7 117.5q-6 76 -14 123q-2 4 -4 17.5t-6 21.5q0 -2 -2.5 -4t-2.5 -6q-8 -12 -22 -5t-6 21q8 18 24.5 27.5t32.5 -8.5q25 -23 35 -117q16 -127 24 -340q131 176 281 319zM4 -41q16 152 16 285q-25 -39 -65 -117q-152 -311 -197 -639 q-2 -29 -9 -90.5t-9 -91.5q-12 -109 18 -162q10 -16 17 -21q-4 0 4 -10h10q23 10 29 25q33 47 59 119q51 137 84 284q27 152 43 418zM-74 1055q0 4 -2 6t-2 4q-6 0 -6 10q2 2 6 11.5t8 13.5q4 8 12.5 5t12.5 -11q0 -2 3 -7.5t3 -11.5q0 -4 -10 -14q-7 -14 -25 -6z" glyph-name="j.aalt" horiz-adv-x="344"/><glyph d="M541 283q23 0 16 -19q-4 -14 -20 -14q-246 -10 -400 -115q-8 -2 -19.5 -9t-15.5 -9q-2 -31 -28 -334q-39 -295 -94 -453q-18 -49 -27.5 -67.5t-34 -61.5t-53.5 -57t-66 -6q-82 18 -98 133q-12 115 25 274q74 324 249 508q29 35 84 78q6 96 0 201q0 135 -20 246 q-8 63 -25 98q0 18 -10 24q-14 0 -24 17v4q-6 10 -1 19.5t17 9.5q47 -4 74 -103q20 -80 28 -207q8 -205 4 -280q78 47 115 59q150 58 324 64zM53 61q6 6 6 17q-100 -88 -186 -242q-53 -100 -94 -242q-39 -176 -39 -284q10 -133 74 -137q6 -6 18 0q10 4 16 10q25 18 39 43 q33 57 68 168q18 63 49 225q37 221 49 442zM-53 897q-10 0 -17 6q-4 0 -4 5t4 10q2 2 5.5 6t5.5 4q8 14 20 14q18 -8 19 -20q0 -2 -9 -15q-10 -6 -10 -10h-14z" glyph-name="glyph209" horiz-adv-x="200"/><glyph d="M414 735q10 10 25.5 3t6.5 -21q-47 -74 -92 -119q-78 -78 -147 -78q-47 -12 -74 8q-25 12 -49 41q-4 2 -15.5 15.5t-19.5 17.5q-8 -8 -14 -8q-4 -23 -6 -66t-4 -57q-6 -94 -21 -483q-4 -53 -4 -156q0 -10 2 -26.5t2 -22.5v-10q8 -8 7 -16.5t-11 -8.5q-23 0 -29 14 q-6 16 -8 49t-2 39q0 113 4 173q16 420 21 491q4 20 4 59q-35 0 -39 21q-6 37 45 49v29q-6 0 -6 4q-12 25 10 55q6 51 13 152.5t12 152.5q6 117 20 205q0 63 14 119l-6 4q0 27 6 31q18 14 39 -6v-39q-4 -10 -4 -29v-6v-8q-10 -51 -10 -99q-6 -43 -21 -213q-2 -33 -7 -103.5 t-7 -107.5q18 18 45 35q106 53 131 0q12 -29 -24 -74q-18 -29 -78 -88q-6 -4 -20.5 -16t-24.5 -18q10 -6 27.5 -24.5t27.5 -25.5q53 -61 148 11q78 57 133 151zM186 809q-4 10 -30.5 0t-58 -31.5t-52.5 -46.5q-6 -31 -6 -88h6q2 0 4 1l6 3l8 4q10 10 30 27.5t34 32t25 30.5 q2 2 11 14.5t13 18.5t10 18.5t0 16.5zM-14 608zM4 -227z" glyph-name="k.aalt" horiz-adv-x="421"/><glyph d="M354 721q12 16 31 2q8 -4 4 -12q-39 -70 -80 -211q-12 -35 -39.5 -128t-44.5 -143q-14 -68 -32 -112q-61 -158 -80 -187q-39 -74 -99 -55q-47 14 -59 74q-14 74 -4 305q2 31 11 149.5t18 184.5q6 59 18 166.5t16 152.5q6 53 18.5 156.5t16.5 153.5q41 238 45 256 q14 51 25 59q23 23 43 -4q12 -20 -19 -21q0 -2 -3 -9t-3 -11q-8 -25 -18 -92q-16 -90 -28.5 -191.5t-25 -223.5t-20.5 -189q-41 -371 -55 -660q0 -98 6 -147q8 -45 14 -54q16 -25 25 -20q23 4 43 45q8 12 20.5 40t20.5 42q43 117 53 153q14 49 44 147.5t44 147.5 q55 177 94 236z" glyph-name="l.aalt" horiz-adv-x="348"/><glyph d="M653 1753q6 -68 -35 -176q-18 -47 -32 -104q-16 -88 -45 -265q-45 -317 -74 -614q-12 -121 -29.5 -341t-23.5 -298q-16 -252 -17 -277v-92q0 -16 6 -24v-6q14 -10 5 -23.5t-25 -5.5q-10 2 -16.5 9t-9.5 13.5t-6 21.5t-3 19q0 98 6 148q6 199 29 428q6 68 28.5 336 t41.5 411q4 35 13 99.5t16 118t14 102.5q-45 -137 -107 -291q-10 -27 -147 -438q-27 -61 -41 -113q-8 -29 -29 -78q-10 -39 -29 -112q-49 -131 -94 -152q-18 -10 -39 -6q-33 4 -55 68q-8 49 -8 147q0 197 33 459q31 242 73 485q8 43 45 285q4 16 21.5 16t17.5 -16v-29 l-4 -10q-10 -70 -58 -374t-65 -472q-31 -287 -20 -418q16 -88 24 -102q6 0 11 -4v4q39 27 59 98q29 78 39 123q8 31 28.5 89.5t24.5 68.5q16 49 45 139t53.5 164t49.5 139q86 215 168 447q8 20 22 63t23 66q0 4 5 40.5t7 45t7 39t9 45t11.5 38t15.5 41t18 35.5q6 12 24.5 8 t18.5 -18zM20 78zM397 -438zM403 -444z" glyph-name="l_l.dlig" horiz-adv-x="618"/><glyph d="M250 1798q14 0 24.5 -6t16.5 -19.5t10 -26.5t5 -32.5t1 -33t-1 -31t-1 -23.5q0 -96 -20 -280q-18 -188 -54 -316q-41 -152 -84 -235q-57 -106 -122 -133q-6 -172 0 -345q6 -133 20 -239q10 -59 18 -80q0 -2 3.5 -9t3.5 -9q2 -4 4 -7v0q25 -12 6 -26q-14 -8 -27 -2 q-31 10 -43 92q-16 80 -24 203q-35 551 53 997q33 154 74 291q45 150 69 196q2 2 7.5 11.5t7.5 13.5t7 12t10 13.5t10 10.5t12.5 8t13.5 5zM236 1276q33 223 24 407q0 35 -4 56q0 10 -6 14v4v-4q-6 -4 -14 -20q-14 -18 -35 -68q-45 -123 -103 -358q-14 -51 -39 -213 q-20 -147 -24 -222q-10 -88 -10 -165q47 29 102 137q76 176 109 432z" glyph-name="glyph213" horiz-adv-x="309"/><glyph d="M545 700q10 20 33 9q12 -6 8 -17q-10 -23 -72.5 -145.5t-91.5 -190.5q-53 -125 -107 -235q-4 -6 -13 -22.5t-14 -24.5t-16.5 -25.5t-17.5 -26t-19.5 -24.5t-22.5 -20.5t-24.5 -14.5t-26.5 -8t-28 0q-57 10 -88 98q-18 49 -31 176q-6 125 11 256q-10 -16 -27.5 -45.5 t-26.5 -42.5q-27 -55 -73 -104q-41 -37 -60 -29q-10 2 -11 9.5t4 12.5t11 3h6q4 2 8.5 7t10.5 7q39 55 45 64q61 88 123 217q10 45 10 63q49 274 82 414q43 203 98 348q53 117 80 162q8 12 25.5 36.5t23.5 37.5q4 4 15.5 18t20.5 24.5t18 12.5q37 6 50 -27t10 -65.5 t-11 -61.5q-20 -133 -109 -362q-68 -172 -190 -434q-12 -27 -37 -78t-37 -78q-33 -197 -25 -365q23 -254 97 -235q10 2 20 10q51 41 84 113q14 23 34.5 64.5t24.5 51.5q175 371 226 467zM418 1665zM162 1036q-18 -80 -64 -329q61 125 187 421q86 215 123 383q20 82 20 119 q0 10 -6 21v4v4h-4q-29 -31 -53.5 -68t-43 -67.5t-38 -79.5t-29.5 -77t-26.5 -85t-22.5 -78.5t-22.5 -87.5t-20.5 -80z" glyph-name="glyph214" horiz-adv-x="540"/><glyph d="M545 711q16 14 33 -2q10 -8 2 -17q-86 -90 -138 -104q-43 -10 -71.5 20.5t-36.5 77.5q-12 -12 -60.5 -70.5t-80.5 -80.5q-8 -8 -21.5 -6.5t-13.5 16.5q-12 66 18 229q0 6 3 14.5t3 10.5q-20 -16 -24 -33q-57 -86 -158 -350q-2 -8 -14.5 -11.5t-22.5 2t-8 15.5 q4 20 33.5 200.5t56.5 270.5q4 10 16.5 9t16.5 -9q6 -27 -8 -70q0 -4 -7 -4q-23 -154 -34 -201q10 6 10 15q70 143 98 176q25 35 49 35q39 0 39 -45q0 -18 -8 -51t-10 -48q-16 -61 -10 -116q18 18 60 73.5t73 77.5q8 8 22.5 7t16.5 -11q4 -47 21.5 -84t51.5 -20 q40 21 103 84zM193 809z" glyph-name="m.aalt" horiz-adv-x="544"/><glyph d="M428 717q6 6 18.5 5t17.5 -8t-1 -18q-109 -141 -168 -186q-35 -35 -70 -35q-39 -8 -53 21q-20 33 -20 137v74q0 14 -5 24q-25 -25 -28 -39q-18 -20 -49 -84q-14 -29 -41 -88t-33 -74q-8 -12 -25.5 -11t-15.5 20q16 125 65 354q2 6 11.5 8t16.5 -3t5 -15 q-31 -145 -39 -201q2 4 23.5 44t36.5 58q33 57 69 70q20 6 35 -9.5t15 -35.5q4 -39 4 -113q0 -80 14 -98v-4h6q4 0 11.5 2t13.5 2q10 8 29.5 25.5t27.5 23.5q23 25 64.5 77t64.5 77z" glyph-name="n.aalt" horiz-adv-x="417"/><glyph d="M389 711q6 8 18.5 2t6.5 -17q-27 -49 -105 -118q-39 -35 -112 -58q-6 -29 -21 -49q-31 -63 -67 -80q-43 -16 -78 23t-45 86q-23 119 4 221q27 53 39 59l10 4q45 84 70 105q27 23 55.5 21.5t46.5 -27.5q61 -86 14 -271q-8 -41 -14 -53q12 4 39 19q20 12 40.5 30.5t30 27.5 t38 41t30.5 34zM162 879q-27 0 -49.5 -36t-34.5 -69q0 -4 -4 -4l4 -4q4 -6 0 -13.5t-8 -7.5q-10 -31 -15.5 -60.5t-4.5 -62t18.5 -56t50.5 -27.5h49q47 131 33 241q0 39 -8 60q-17 39 -31 39zM137 479q6 10 15 31q-49 -10 -93 18q-35 23 -45 74v-39q14 -98 49 -133 q18 -14 35 -4q21 20 39 53z" glyph-name="o.aalt" horiz-adv-x="382"/><glyph d="M506 717q8 8 24.5 1t6.5 -22q-61 -68 -148 -73q-10 -25 -10 -39q-18 -57 -45 -84q-31 -33 -68 -21q-35 18 -35 74q0 47 11 94q-35 -43 -70 -59q-14 -86 -70 -158q-43 -68 -102 -53q-47 10 -59 102q0 66 20 172q29 119 68 168q0 4 16 4q47 88 102 70q33 -12 46 -64 q6 -66 0 -129q0 -12 -11 -63q14 10 25 25q14 10 35 38q0 33 14 60q33 70 74 74q31 6 49 -18.5t19 -57.5t-1 -58q0 -6 -2 -23.5t-2 -25.5q70 17 113 66zM109 854q-31 -39 -50 -80q-20 -66 -20 -98q12 -63 59 -78q25 0 39 4q20 90 21 139q0 88 -15 113q-8 12 -14 12t-20 -12z M78 455q37 53 49 118q-41 -8 -76 13.5t-47 64.5v17q-8 -33 -8 -50q-2 -8 -7 -33.5t-7 -39t-4.5 -35t0 -39.5t8.5 -35q18 -39 49 -24q31 18 43 43zM354 780q-10 39 -35 15q-4 -4 -11 -14.5t-13 -14.5q12 0 23.5 -7t0.5 -18l-6 -8q-6 -6 -8 -12q-4 -6 -14 -45q0 -4 -6 -4 q14 -20 69 -21q0 4 2 11.5t2 9.5q10 59 -4 108zM330 559q2 6 9 27.5t9 36.5q-49 0 -74 10q0 -6 -2 -25.5t-2 -29.5q-6 -10 -4 -42t19 -32q8 0 17 10t17.5 25.5t10.5 19.5z" glyph-name="o_o.dlig" horiz-adv-x="512"/><glyph d="M211 903q35 -14 35 -55q-12 -66 -103 -166q-4 -4 -22.5 -23.5t-30.5 -31t-27 -19.5q-2 -4 -9 -8t-9 -6q0 -8 -3 -20.5t-3 -20.5q-18 -170 -68 -492q-45 -322 -69 -534q-2 -16 -8.5 -73.5t-6.5 -88.5v-45q20 -8 4 -25q-14 -16 -29.5 -6.5t-19.5 31.5q0 63 6 98 q8 131 50 408q59 416 82 610q2 12 10 59.5t10 73.5q-12 -8 -25 4q-6 20 0 39q0 6 12.5 8.5t16.5 -2.5q4 10 6 31t4 27l-10 5t-8 5q-6 6 -6 14q6 25 35 60q0 47 10 104q2 12 2 38t3 44.5t9 34.5q0 6 4 10q20 8 31 -10q2 -16 -2 -49t-4 -43q-4 -20 -4 -66q20 31 53 56 q49 36 84 24zM-137 -684h-6h6zM201 834q0 37 -8 38q-10 4 -56 -32q-35 -31 -74 -84q-2 -20 -7 -56t-7 -57q16 10 49 49q87 97 103 142z" glyph-name="p.aalt" horiz-adv-x="299"/><glyph d="M242 -184q-10 -14 -21 -15v-4q-2 -8 -10 -24.5t-10 -20.5q-14 -49 -43 -88q-8 -10 -21.5 -8t-17.5 12q-39 150 -21 355q2 55 7.5 159.5t7.5 159.5q8 123 24 260q0 18 10 80q-41 -61 -63 -80q-57 -18 -80 0q-18 16 -18 74q27 92 34 108q14 37 25.5 59.5t39.5 51.5t58 27 q18 -4 18.5 -18.5t-18.5 -14.5q-8 0 -16 -7.5t-17.5 -19.5t-11.5 -14q-8 -12 -22.5 -40t-22.5 -42q-2 -6 -11 -39t-13 -51q0 -51 6 -53q10 -4 43 28q45 66 55 90q6 12 35 93v10q8 20 8 28q6 10 6 35q-4 14 15 15q20 2 24 -15v-4v0v-6q4 -25 -10 -68q-10 -61 -10 -69 q-12 -70 -19 -152q-20 -178 -24 -260q-6 -92 -15 -315q-16 -158 4 -299q4 8 35 82q18 31 29 30q14 2 22.5 -6t8.5 -24zM197 -178zM231 -184z" glyph-name="q.aalt" horiz-adv-x="280"/><glyph d="M281 819q12 -18 -13 -20q-16 -2 -22 6q-10 10 -25 10q-8 -4 -21.5 -13t-17.5 -11q-33 -33 -84 -123q-47 -86 -63 -148q-6 -12 -15 -41q0 -49 -6 -73q0 -14 -19.5 -16.5t-23.5 11.5q-4 18 4 84q2 31 5.5 90.5t6.5 96.5t11 86t22 90q4 14 21.5 13t17.5 -17q-6 -14 -6 -45 v-39q0 -10 -14 -10q-2 -20 -7 -64.5t-7 -67.5q16 35 53 99q12 20 26.5 40.5t38 45t46 37t47.5 9.5t45 -30z" glyph-name="r.aalt" horiz-adv-x="245"/><glyph d="M569 844q4 -10 -2 -16.5t-18 -5.5t-19 7q2 0 -2 -2q-6 -2 -8 -4q-8 -2 -39 -24q-51 -43 -102 -113q-104 -147 -143 -264q-4 -27 -25 -90q-2 -12 -20.5 -10t-18.5 16q4 35 25 92q8 39 18 119t16 119q4 35 19 92q-70 -41 -131 -103q-66 -55 -109 -129q0 -82 -30 -131 q-4 -12 -18.5 -9t-14.5 13q-20 63 28 148v10q2 14 8.5 69.5t6.5 88.5v14q4 14 20.5 11t18.5 -17q0 -35 -9 -113l21.5 21.5t21.5 23.5q68 68 134 109q39 29 77 43q33 39 60 31q10 -10 10 -17q0 -10 -6 -17t-18.5 -13.5t-14.5 -8.5q-14 -20 -14 -39q-20 -55 -31 -133 q0 -6 -2 -20t-2 -23q47 94 113 166q147 179 200 109z" glyph-name="r_r.dlig" horiz-adv-x="555"/><glyph d="M295 707q14 18 33 4q10 -8 2 -19q-47 -59 -144.5 -158.5t-126.5 -132.5v-10q10 -154 0 -196q-25 -104 -73 -134q-31 -16 -61.5 -0.5t-43.5 45.5q-25 59 17 138q39 76 106 153q2 2 5 5.5t5 3.5q0 12 -2 36.5t-2 36.5q-25 143 -24 193q-6 49 9 93t58 54q4 4 12.5 4t12.5 -4 q14 -6 6 -24q-6 -4 -10 -11q-20 0 -25 -10q-20 -18 -20 -78q-4 -76 20 -192q0 -6 2 -24.5t2 -28.5q25 27 78 81t92 95t72 80zM25 299q0 8 -2.5 28.5t-2.5 28.5q-20 -29 -34 -43q-70 -102 -74 -153q0 -47 25 -64q6 -16 24 -10q14 16 25 31q39 59 39 182z" glyph-name="s.aalt" horiz-adv-x="294"/><glyph d="M545 721q8 4 17 2t11 -8t-4 -15q-150 -117 -225 -211v-83q0 -59 -22.5 -103.5t-75.5 -34.5q-94 14 20 178q4 10 16.5 25.5t16.5 24.5q-6 102 -33 186q-16 -20 -52 -62t-52 -61q-80 -90 -103 -123q0 -129 -30 -217q-18 -68 -68 -67q-27 4 -45 22.5t-18 44.5q0 51 39 113 q45 74 77 114q-2 25 -7 71t-7 71q-20 90 -20 143q14 80 45 98q33 23 71.5 19t65.5 -33q10 -10 6 -20q-16 -10 -25 -4q-4 0 -8 2t-8 2q-14 16 -41 18t-41 -18q-20 -18 -20 -60q-2 -31 1 -61.5t12 -76.5t11 -58q0 -29 4 -50q35 49 80 95q78 98 123 147q23 23 39 -6 q6 -12 12 -39t12 -39q2 -18 10.5 -55t10.5 -53q90 116 205 182zM-4 244q18 100 18 133v4q-16 -23 -49 -78q-45 -76 -18 -102q20 -31 43 28q4 13 6 15zM299 367q6 25 6 69q-63 -74 -59 -123v-10q4 -4 10 -4q10 0 10 4q33 15 33 64z" glyph-name="s_s.dlig" horiz-adv-x="540"/><glyph d="M266 504q18 4 24.5 -13.5t-16.5 -19.5q-51 -8 -116 -65q-20 -14 -56 -50q4 -18 9.5 -51t7.5 -47q0 -115 -94 -166q-14 -10 -39 -5t-35 24q-10 23 0 79q29 88 102 172q-8 39 -27.5 114t-21.5 87q-29 139 10 211q43 66 88 70q29 10 73 1t61 -36q0 -14 -5 -18h-6 q-6 -8 -15 -6.5t-13 10.5q-59 31 -95 14q-35 -14 -53 -59q-29 -59 -10 -148q12 -55 55 -201q86 99 172 103zM25 135q61 51 45 178q-10 -10 -25 -34q-55 -78 -55 -123q0 -27 6 -29q4 -6 8 -6q6 0 10 6q3 0 11 8z" glyph-name="glyph225" horiz-adv-x="309"/><glyph d="M453 1241zM467 1262v-11q-4 -4 -10 -4q-6 -10 -15 0h-4h-6q-14 -6 -43 -6q-37 -2 -326 -29q-14 -139 -34 -467q0 -20 -4.5 -105t-5.5 -112.5t-4 -105.5t-5 -113t-7 -105.5t-8 -112.5t-9 -106.5t-12.5 -113.5t-14.5 -106.5t-18 -110.5q-4 -8 -15.5 -11t-19.5 7 q-35 31 -29 88q2 10 16.5 11t18.5 -7q14 92 33.5 263t25.5 214q4 70 8.5 231.5t10.5 249.5q4 57 11 159t12 185.5t7 157.5q-6 0 -20 -2t-20 -2q-106 -8 -236 -24q-20 -4 -51 -6.5t-41 -4.5q-10 0 -27.5 -2t-29 -2t-17.5 4q-10 8 0 15q4 8 19.5 12t36 5t26.5 3q111 10 123 14 q158 20 242 25q0 29 2 84t2 88q0 10 12 15.5t24.5 2t12.5 -13.5q-4 -35 -8 -91t-7 -81q131 12 187 21q25 0 81 5t77 5q33 6 49 0zM457 1247q0 -6 -4 -6z" glyph-name="t.aalt" horiz-adv-x="122"/><glyph d="M1028 1184q6 0 10 -5t2 -13.5t-8 -12.5q-18 -18 -49 -18q-20 0 -20 14q-49 0 -261 -10q-27 -2 -83 -7.5t-82 -7.5q0 -8 -11 -69q-47 -342 -69 -531q-29 -305 -39 -481q-4 -39 -21 -236q-2 -39 -4 -114.5t-4 -112.5q-16 -197 -16 -215v-129q0 -10 3 -26.5t3 -22.5 q4 -4 4 -14q6 0 6 -2t-6 -2q25 -12 6 -29q-14 -12 -31 -2q-29 25 -28 84q-6 53 -6 151q2 41 10 145.5t10 159.5q20 436 84 965q31 264 64 471v10q-14 -4 -40 -6t-34 -4q-4 -16 -17.5 -54t-17.5 -54q-55 -156 -141 -461q-18 -70 -56.5 -202t-52.5 -187q-33 -106 -55 -133 q-16 -29 -45 -50.5t-47 0.5q-27 27 -35 84q-10 39 -10 127q0 178 63 660q4 29 25 231q-14 -4 -38 -6t-30 -4t-29.5 -4t-33.5 -6q-4 0 -14.5 -2t-16.5 -2q-4 4 -10 4v0v0h6h-6v0q-6 0 -11.5 6t-3.5 14q4 -2 6 4q4 10 29 11q6 2 23.5 4t25.5 6q20 2 57 7t52 7q0 2 2 7t2 7 q6 35 14 119q6 14 6 49v15q-8 8 0.5 18t18.5 10q8 -2 13 -7t7 -13t2 -15.5t-1 -17.5t-1 -14q-2 -12 -7 -57.5t-7 -71.5q0 -4 -3 -11.5t-3 -13.5h16q49 4 144.5 14.5t144.5 16.5q4 12 17.5 50t21.5 58q37 100 59 177q4 10 14.5 35.5t15.5 39t16.5 32t23.5 30.5q4 6 14 8 t17.5 -3t7.5 -15q8 -63 -25 -240q-4 -27 -11 -79t-13 -79q10 2 37.5 4t46.5 7q39 2 119.5 7t119.5 7q135 0 164 -4zM59 1315zM70 1311zM270 805q16 45 48 148.5t51 156.5q-182 -18 -201 -20q-10 -2 -42 -4.5t-52 -6.5q-4 -23 -21 -196q-8 -61 -16 -130t-17.5 -153 t-15.5 -129q-18 -203 -18 -266q0 -88 10 -133q0 -35 14 -64q23 16 29 35q29 47 49 133q8 31 25.5 87t23.5 79q23 78 66.5 232.5t66.5 230.5zM432 1153q20 6 64 6q20 127 30 187q2 20 9.5 65t9.5 68q-2 -4 -4 -14.5t-4 -16.5q-8 -18 -20.5 -56t-20.5 -57q-10 -31 -32 -91 t-32 -91zM-143 1055z" glyph-name="t_t.dlig" horiz-adv-x="600"/><glyph d="M614 717q20 14 39 -4q8 -8 0 -17q-86 -111 -166 -186q-100 -96 -163 -70q-68 23 -68 144q6 47 18 88q-102 -156 -147 -201q-59 -72 -92 -84q-51 -29 -84 10q-14 12 -14 82q25 100 34 119q4 43 33 98q4 6 10 27.5t15 32.5q16 23 45 -6q8 -6 -11 -19q-4 0 -4 -10 q0 -4 -1 -8t-2 -7.5t-3 -9.5t-4 -10q-12 -33 -14 -35q-4 -14 -16.5 -47t-18.5 -51q-2 -8 -11 -43t-9 -55q-8 -14 6 -33l4 -10q25 0 73 49q35 33 84 102q8 12 59.5 91t84.5 116q6 4 23.5 2t19.5 -12q0 -33 -25 -152q-12 -25 -9 -74t40 -59q33 -8 57 21q35 18 80 63 q27 27 74 83.5t63 74.5zM63 735z" glyph-name="u.aalt" horiz-adv-x="628"/><glyph d="M330 731q18 10 32 -6q8 -10 -4 -18q-113 -104 -200 -64q-90 -246 -95 -256q-2 -10 -19 -10t-19 14q-35 147 -35 330q0 8 11 10t19 -6l5 -4q6 -6 0 -14q6 -143 24 -246q12 33 37 102.5t41 108.5q0 10 11.5 12t19.5 -2q66 -43 172 49z" glyph-name="v.aalt" horiz-adv-x="329"/><glyph d="M250 907v-28q0 -10 -8.5 -14.5t-16.5 -0.5q-47 -80 -98 -276q-14 -76 -33 -133q-25 -59 -45 -68q-8 -12 -24 4q-39 61 -39 178q-12 111 10 191q4 14 16.5 13t16.5 -13v-4q6 -2 0 -11q0 -20 -3 -78.5t-1 -93.5q0 -84 20 -133v6q14 33 18 54q18 84 35 133q51 195 113 280 q8 6 22.5 5t16.5 -11z" glyph-name="glyph230" horiz-adv-x="249"/><glyph d="M463 725q14 16 35 2q12 -10 4 -20q-35 -45 -87.5 -61.5t-105.5 1.5q-2 2 -9 4t-9 6l-10 -24q-16 -74 -50 -133q-33 -78 -79 -78q-41 -4 -50.5 56.5t0.5 90.5q0 8 3.5 28.5t3.5 29.5q-6 -8 -15 -29q-18 -49 -45 -88q-8 -31 -35 -39q-20 -4 -34.5 12.5t-18.5 36.5 q-10 53 0 107q8 61 25 94q10 35 14 39q20 14 35 -10q6 -14 -6 -15q0 -10 -15 -53q-2 -16 -7 -46l-7 -42q0 -55 10 -74q43 74 68 142q43 90 59 112q4 8 15.5 9t18.5 -4t5 -13t-4 -22.5t-4 -22.5q-2 -16 -11.5 -68.5t-12.5 -88.5t-1 -68q2 -4 4.5 -16.5t4.5 -18.5v-6 q12 8 23 24.5t16.5 28.5t14.5 35.5t11 29.5q8 20 20.5 60.5t18.5 58.5q-41 66 0 103q8 12 22.5 16t26.5 -6q23 -16 14 -55q-12 -43 -14 -54q12 -16 49 -24q68 0 109 53z" glyph-name="w.aalt" horiz-adv-x="471"/><glyph d="M260 750q14 -70 6 -166q-2 -12 -4 -18.5t-6 -23t-8 -21.5t-12.5 -17t-17.5 -9t-21 5q-12 10 -25 49q-14 29 -14 63q-6 14 -6 45q-16 -37 -39 -118q-2 -6 -11.5 -38t-17.5 -46q-14 -41 -25 -49q-14 -6 -23 -9.5t-17.5 12t-13.5 26.5t-9 34t-5 36t-3 31.5t-2 22.5 q0 127 4 148q16 49 39 49l10 -11v-14q0 -6 -4 -6v-8q-6 -10 -6 -35q-4 -31 -4 -88q8 -109 20 -139q0 10 4 16q6 14 13.5 44t11.5 44q43 133 73 182q8 14 23.5 9t15.5 -19q16 -147 31 -182q0 14 4 24q4 29 4 95q0 14 -2 42.5t-2 45.5q-4 10 -4 28v7q-16 6 -10 18 q10 10 23.5 8t19.5 -12q10 -14 10 -55zM39 735z" glyph-name="glyph232" horiz-adv-x="339"/><glyph d="M526 711q16 12 31 -4q6 -6 -2 -15q-16 -25 -59 -93.5t-68 -102.5q-98 -139 -172 -144q-100 -4 -162 144q-16 12 -16 32q-8 0 -8 -8q-41 -49 -74 -69q-8 -2 -16.5 2t-9.5 10t5 12q16 12 42 42t32 36l10 16q0 4 -10 39q-6 10 -20 60q-10 20 -19 28q-6 2 -14 8.5t-10 6.5 q-14 10 -8 22t22 8q10 -2 18.5 -6t15.5 -11l11 -11t9 -15.5t7 -15.5t6.5 -18.5t6.5 -16.5q2 -6 7 -21.5t7 -23.5q6 4 16.5 16.5t14.5 18.5q82 98 127 186q12 18 35 6q10 -4 4 -14q-31 -82 -138 -203q-6 -6 -21 -23.5t-24 -25.5q6 -4 7 -14q41 -86 59 -113q43 -57 78 -49 q35 0 84 49q39 39 73 99q53 76 68 102q43 64 55 74z" glyph-name="x.aalt" horiz-adv-x="526"/><glyph d="M520 700q16 16 33 5q10 -6 2 -19q-6 -8 -70.5 -82t-95.5 -115q-84 -98 -129 -165q-6 -8 -18.5 -29t-20.5 -31q-2 -31 -7 -95.5t-7 -96.5q-31 -246 -31 -250q-29 -147 -98 -217q-27 -27 -56.5 -35t-60.5 16q-51 47 -39 131q10 164 148 385q37 63 112 172v58q2 27 4 109.5 t7 127.5v123q0 2 -3.5 4t-3.5 4q-14 -18 -43 -67q-2 -4 -21.5 -35t-34.5 -47t-34 -27q-33 -16 -53 11.5t-20 62.5q0 59 6 88q0 2 4 24.5t10 34.5q0 10 25 11v-6q14 0 14 -15v-14l-4 -10q0 -6 -3 -14.5t-3 -14.5q-4 -25 -4 -74q0 -39 10 -49q8 0 14 10q2 4 84 123 q47 74 68 88q6 4 16 5t16.5 -5t2.5 -14q-4 -10 -5 -74v-94q0 -123 -6 -182v-78q20 37 56 78q135 180 239 284zM152 -61q4 33 24 262q-125 -176 -176 -326q-47 -119 -39 -197q10 -59 29 -73q14 -10 31.5 0t27.5 24q35 39 57.5 100.5t29 97.5t16.5 112z" glyph-name="y.aalt" horiz-adv-x="526"/><glyph d="M987 524q8 -12 1 -20t-17 -8t-17 8q-20 31 -69 31q-55 -8 -119 -35q-143 -57 -240 -148q-133 -104 -252 -246q-29 -197 -49 -290q-29 -168 -53 -246q-12 -33 -18.5 -49.5t-20.5 -44t-32.5 -44t-41.5 -24.5q-55 -18 -74.5 27t-13.5 102q6 141 64 264q106 201 201 316 q20 160 30 329q10 240 4 295q-4 -6 -16 -28.5t-18 -36.5q-14 -25 -43 -82q-8 -12 -25.5 -42t-28 -47.5t-29 -39t-36.5 -35.5q-37 -37 -70 -24q-33 18 -43 83q0 63 14 119q2 18 7.5 55t7.5 58q0 10 8 14t16.5 1t10.5 -11q0 -2 2 -9t2 -9v-11q0 -27 -8.5 -70.5t-10.5 -56.5 q-20 -86 15 -129q8 2 18 11.5t20.5 21.5t14.5 16q25 35 65 105q8 16 24.5 47t25.5 45q70 129 73 137q4 12 21.5 12.5t17.5 -12.5q18 -94 10 -235q0 -127 -16 -285q-10 -96 -14 -123q125 133 221 211q123 98 270 154q39 10 57.5 15t55.5 9t60.5 -7t37.5 -38zM217 -20 q0 25 8 53q-100 -129 -166 -291q-51 -109 -45 -246q0 -33 11 -49q4 -8 10 -8q10 2 19 8t14.5 11t14.5 17.5t11 16.5q39 76 74 242q8 41 49 246z" glyph-name="glyph235" horiz-adv-x="442"/><glyph d="M512 717q16 16 39 0q12 -8 4 -17q-2 -6 -14 -24q-115 -147 -310 -285q-4 -2 -20 -16.5t-25 -18.5q-20 -98 -63 -147q-43 -74 -84 -68q-18 0 -36.5 17.5t-22.5 36.5q-6 35 34 59q14 25 35 46.5t48.5 45t39.5 35.5q14 10 15 31q18 98 -68 112q-2 2 -6 7.5t-5 8.5t0 9t5 10 q29 74 90 148q-23 0 -64 -3.5t-59 -3.5q-18 -6 -49 0q-8 8 -8 16.5t8 8.5q18 6 24 0q2 0 9.5 -2t9.5 -2q14 10 49 10l123 14l8 -8t6 -9t-4 -11q-23 -29 -55.5 -85.5t-42.5 -72.5q47 -18 63 -59q10 -25 11 -88h4q172 127 311 305zM94 240q29 29 29 73q0 -8 -10 -14 q-16 -12 -41 -35.5t-33 -30.5q-20 -29 -4 -38q2 -14 6 -15.5t18 4.5q2 12 16.5 30t18.5 26z" glyph-name="z.aalt" horiz-adv-x="516"/><glyph d="M520 588q96 16 105 -43q0 -16 -17.5 -16.5t-17.5 16.5q0 14 -39 14q-49 -8 -109 -39q-96 -45 -200 -133q-2 -16 -10.5 -47t-10.5 -47q-59 -176 -84 -221q-37 -68 -84 -88q-70 -25 -88 14q-25 41 10 108q12 23 70 119q57 86 156 176q0 20 6 29q0 84 -21 105q-6 10 -19 14 t-24.5 4t-29 -2t-25.5 -2t-15 7t-3 17q18 39 82 103q25 25 41 35q-158 -25 -189 -25q-14 0 -19 8t0 16.5t19 10.5q49 0 136 16.5t126 18.5q8 2 17.5 -4.5t8.5 -13.5t-11 -13q-61 -33 -95 -74q-37 -27 -59 -67q35 6 66 -6q35 -10 53 -64q4 -25 4 -74q16 14 45 35 q112 88 225 113zM70 43q47 61 73 141q4 16 14.5 46t17.5 54.5t11 47.5q-16 -12 -34 -39q-59 -59 -103 -133q-45 -86 -49 -123q0 -14 2 -20.5t12 -4.5q29 6 56 31z" glyph-name="glyph237" horiz-adv-x="372"/><glyph d="M379 700q4 8 14 7.5t15.5 -8t-0.5 -17.5q-61 -82 -123 -98q-63 -23 -99 -6q-57 25 -63 84q-25 -33 -53 -64q-82 -82 -119 -45q-18 20 -4 65q6 45 39 93q23 37 61.5 61.5t71.5 7.5q23 -14 2 -26q-12 -8 -27 -4q-20 8 -49 -29q-20 -18 -41 -59q-18 -55 -18 -68v-16 q4 0 10 6q33 18 82 87.5t69 108.5q10 10 29 2t10 -22q-25 -29 -22.5 -89.5t47.5 -62.5q35 -4 67.5 10.5t51 31.5t49.5 50z" glyph-name="glyph238" horiz-adv-x="378"/><glyph d="M231 799q14 -23 -20 -82q0 -10 -4 -17v-4q-10 -41 -10 -73q-2 -25 -7.5 -82.5t-7.5 -85.5q-10 -96 -10 -172v-64v-18q8 -4 7 -13.5t-11 -11.5q-16 -2 -24.5 -1t-11.5 19.5t-4 26.5t-1 19q0 27 10 186q0 20 10 158q-35 -86 -77 -144q-2 -2 -10.5 -13t-10.5 -15t-11 -15.5 t-13.5 -15.5t-13.5 -12.5t-16 -11.5t-16.5 -6t-17.5 -3q-68 0 -59 88q6 143 102 285q100 141 168 78q18 -12 -2 -23q-14 -4 -23 4q-10 6 -19 7t-19.5 -5t-19.5 -14t-19.5 -21.5t-16.5 -21.5t-14 -22.5t-10 -16.5q-76 -121 -82 -240q-10 -27 0 -49q6 -14 16 -13t17 13 q43 35 79 107q10 14 74 143q4 8 16.5 28.5t18.5 35.5q10 78 25 94q6 10 20 8t18 -14zM152 205h10h-10z" glyph-name="a.aalt" horiz-adv-x="299"/></font>
</defs>
</svg>
