<?xml version="1.0" encoding="utf-8"?>
<!-- Generator: Adobe Illustrator 21.0.2, SVG Export Plug-In . SVG Version: 6.00 Build 0)  -->
<svg version="1.1" id="Layer_1" xmlns="http://www.w3.org/2000/svg" xmlns:xlink="http://www.w3.org/1999/xlink" x="0px" y="0px"
	 width="305px" height="85px" viewBox="0 0 305 85" style="enable-background:new 0 0 305 85;" xml:space="preserve">
<style type="text/css">
	.st0{stroke:#000000;stroke-width:0.5669;stroke-miterlimit:10;}
</style>
<g>
	<path class="st0" d="M48.9,18.6c0.7,1,1.1,1.9,1.2,3c0,0.6-0.2,1.2-0.7,1.2c-0.6,0.4-1.3,0.3-1.6-0.4c-0.3-0.4-0.6-0.9-0.7-1.4
		c-1.4-3.5-3.3-5.9-5-7.6c-3.7-3.6-8.2-5.1-13.6-4.8c-3,0.1-5.2,1-8.2,2.2c-3.9,1.9-6.9,4.8-9,8.5C7.9,25.2,8,30.8,9.7,36.6
		c0.8,3,2.8,5.1,5,7.1c3.9,3.5,11.2,5,17.7,6.7c2.9,0.9,5.8,1.9,8.4,3.1c1.4,0.7,2.6,1.6,3.5,3c0.9,1.3,1.2,3,0.7,4.5
		c-1.1,2.8-2.7,5.4-5.2,7.3c-1.9,1.5-4,2.5-6.2,3.4c-1.9,0.6-3.8,1.4-5.8,2c-3.9,1-7.9,1.6-11.8,0.9c-1-0.1-2-0.4-2.8-1.1
		c-1.4-1-1.7-2-1.1-3.5c0.5-1.1,0.9-1.5,2.1-2.3c1,0.2-0.6,2.5-0.8,3.5c-0.1,0.9,0.7,1.2,1.6,1.4c0.3,0,0.7,0.1,1.1,0.1
		c2.7,0,5.4,0,8.1-0.7c4.8-1.1,9.1-3.1,13.1-5.8c2.4-1.8,4-3.4,4.9-5.9c0.8-1.7,0.2-3-1-4c-0.6-0.5-1.4-1-2-1.4
		c-2.5-1.2-5-1.8-7.5-2.5c-3.1-0.8-6-1.6-8.9-2.4C16,48.3,10.7,44.2,7.8,38.1c-1.2-2.5-1.9-5.4-1.8-8.4c0.1-5.3,1.8-10.2,5.1-14.7
		c3.1-4.4,10.5-8.5,18.3-8.8C39.7,6.2,43.7,11.1,48.9,18.6z"/>
	<path class="st0" d="M78.6,50.9c-1.1,1.5-7.2,11.6-8.3,13.1c-0.4,0.5-0.6,0.9-1,1.4c-0.8,1.2-1.9,2.2-3.3,2.8
		c-1.8,1-4.8,0.2-5.3-2.2c-0.1-0.6-0.2-1.4-0.2-2.2c-0.1-2.1,0-4.2,0.3-6.3c0.3-1.8,0.5-3.6,0.9-5.4c-0.3,0.5-3.5,5.1-7.2,7.8
		c-2.9,2.1-5-0.4-5-3.4c0.1-2.2,1.2-4.3,2.2-6.2c1.1-2,3.4-4.2,6.4-3.4c0.9,0.2,2,0.6,3,1.2c0.2,0.1,0.4-0.2,0.6-0.6
		c0.1-0.3,0.9-2.4,2.1-1.8c1,0.2,1,1.2,0.8,2.4c-0.1,1.6-0.4,3.2-0.8,4.8c-0.2,1.4-0.4,3-0.6,4.5c-0.4,2.6-0.5,3.9-0.6,5.7
		c0,1.8,0.1,2.2,0.5,3.4c0,0.2,0.3,0.4,0.5,0.2c1.3-0.2,2.7-1.5,3.8-2.8c1.1-1.3,5.4-7.2,6.5-8.9c0.4-0.5,2-3.5,2.6-4.4
		c0.2-0.4,0.4-0.4,0.8-0.3c0.5,0.1,0.3,0.3,0.8,0.3C78.4,50.7,78.5,50.8,78.6,50.9z M57.7,48.2c-0.6,0-1,0.1-1.5,0.5
		c-1.4,1-4.9,7-3.8,9.9c0.5,0.1,0.8-0.1,1.1-0.4c2.1-1.8,5.6-5.8,7-8.3C60.7,49.4,59.3,48.4,57.7,48.2z M61.7,52 M61.8,51.7
		c0-0.1,0-0.1,0-0.1V51.7z"/>
	<path class="st0" d="M78.7,44.4c-0.5,1-0.2,2.4-0.1,3.5c0.2,2.3,2.2,13.1,2.4,14.7c0,0.5,0.2,1.4,0.4,1.9c1-1,5.1-14.6,5.4-16.8
		c0.3-0.5,0.6-0.6,1.1-0.5c0.4,0,0.9,0,1.5,0.2c0.5,0.2,0.8,0.6,0.6,1.5c0,0.2,0,0.4,0,0.4c0.3,0.6,0.6,1,1.5,1.4
		c0.9,0.4,4.2,0.2,5.2-0.1c0.9-0.4,1.9-0.5,2.6,0.6c-0.7,0.5-6.1,2.8-9.7,0.4L88.5,51c-0.5,0.9-1,2-1.4,3.2c-2.9,10.5-4,10.8-5,12.8
		c-0.4,0.7-1.1,0.9-1.6,0.6c-0.8,0-1.2-0.4-1.2-0.9c-0.7-1.8-4.7-21.2-2.9-24C77.5,40.9,79.3,42.9,78.7,44.4z"/>
	<path class="st0" d="M105.7,45.4c0.1,0.8-0.1,1.5-0.4,2.1c-1.9,3.5-4.7,4.8-7.4,6.1c-0.8,1.5-1,4.2-0.8,6.1
		c-0.1,0.2,0.1,0.4,0.1,0.6c0.2,1.1,1,2.8,2.5,2.8c1.7,0,2.8-0.2,3.9-0.9c4.6-2.4,8.4-6.5,11.3-11.2c0.5-0.8,0.6,0.1,0.6,0.3
		c0.3,0.9,0.5,0.9,0.1,1.7c-2.5,3.9-2.5,3.7-4.3,5.9c-1.7,2-4,3.9-6.4,5c-2.9,1.5-5.9,1.6-7.8,0.2c-5.9-4.1-1.8-14.5,2.5-18.6
		c1.1-1,2.4-1.8,4-1.8C104.9,43.6,105.7,44.4,105.7,45.4z M99.2,50.5c1.4-1,5.8-3,3.8-4.6C101.7,46.1,99.6,49.2,99.2,50.5z"/>
	<path class="st0" d="M144.9,50.2c0.8,1.8,0.7,4.4,0.7,4.4c2.2-0.1,4.7-1,7.8-3.9c0.9-0.9,2-2.6,2.4-2.1c0.1,0.2,0.1,0.8,0.1,1
		c0.2,1.1-1.4,5.6-10.4,7.5c-0.2,0.1-0.2,0.1-0.4,0.9c-0.9,3.2-4.1,6.2-6.7,7.2c-1.4,0.4-2.9-0.2-3.6-1.4c-0.3-0.6-0.6-1.4-0.7-1.9
		c-0.3-1.5-0.5-3.1,0.1-6.9c0.8-4.2,1.4-5,2.4-6.4c1-1.3,2.2-2.4,3.3-2.4C142.2,46.4,143.9,47.9,144.9,50.2z M136.5,57.4l-0.2,1.1
		c-0.1,1-0.4,1.9-0.4,2.9c0,1.5,0.7,1.9,2.3,1.1c1.6-0.9,2.8-2.2,3.7-3.9c0.3-0.4,0.6-1.1,0.7-1.5C140.9,57.6,137.9,57.5,136.5,57.4
		z M137,55.3c1.4,0.3,4.8,0.1,6.2-0.4c0.3-0.1,0.5-0.5,0.4-1.4c0-2.7-1.3-5-2.8-5.3C137.8,47.7,137,55.3,137,55.3z"/>
	<path class="st0" d="M169.9,44.8c-2.7,16.3-3.8,23.5,5.2,15c1.2-1.1,4.2-5.1,4.6-5.6c1.4-1.8,2.5-3.3,3.5-5.2c0.4-0.9,1.7,0,1,1.4
		c-2.5,5.1-7.6,12.9-12.7,14.9c-3.5,1.3-5.9-0.3-6.1-8c-0.1-3.1,2.1-10.4,2.2-10.9c-5.2,7.8-14,19.4-14.8,11.6
		c-0.3-2.5,1.8-12.7,2.9-12.6c0.7,0,1,0.4,1.2,0.7c0.2,0.4,0.3,1,0.3,1.3c0,0.1-1.9,6.8-1.9,8.3c-1.5,6.9,7.5-7.1,12.5-12.3
		c0.6-0.9,1.5-0.7,2.1,0C170.1,43.7,170.1,44.1,169.9,44.8z"/>
	<path class="st0" d="M184.1,49.2c0.5-0.1,0.9-0.2,1.1-0.4c1.1-0.5,3.9-2,4.5-2.4c0.8-0.3,1.3-0.1,1.9,0.3c0.8,0.9,0.7,2.2,0.4,3.4
		c-0.2,1.7-0.6,3.3-0.9,5c-0.8,3.2-1.8,8.4-1.5,11.6c0.2,1.2,0.2,2.5,1,3.6c0.2,0.4,0.2,0.7-0.1,1c-0.2,0.4-0.7,0.4-1.1,0.3
		c-0.6-0.2-1.1-0.6-1.4-1.2c-0.1-0.4-0.2-0.8-0.3-1.1c-0.4-2.3-0.6-4.6-0.2-8c0.2-1.8,1.3-6.2,2.2-9c0.6-1.8,1-3.9,0.5-3.9
		c-0.4,0.1-0.5,0.2-0.9,0.3c-1.6,0.9-3,1.8-4.5,2.6c-0.5,0.4-2.8,1.5-4.2,1.5c-3.4,0.5-4.5-1.4-4.2-3.9c0.1-0.7,0.3-1.3,0.5-1.8
		c0.9-2,2.1-3.8,3.6-5.4c1-1.1,2.1-1.3,3.3-0.7C185.6,42.4,185.7,44.4,184.1,49.2z M179.1,48.2c-0.4,1.6-0.9,2.8,0.2,2.8
		c0.5,0,1-0.1,1.4-0.2c0.6-0.2,0.9-0.5,1.2-1.1c0.7-1.5,1.5-4.1,1.3-5.9c0-0.9-0.6-1.1-1.3-0.6C181.4,43.4,179.8,45.8,179.1,48.2z"
		/>
	<path class="st0" d="M240.4,21.6c0.5,1.2-0.1,7.5-0.5,8.5l-1.2,5c-0.8,3.2-1.7,6.5-2.9,9.5c-0.5,1.2-1,2.5-1.2,3.8
		c-0.2,0.5-0.2,1.2-0.4,1.7c0,0.8-0.1,1.6-0.2,2.4c0.2,2,0.1,3.9,0.2,5.9c0.5,3.6,1.1,10,2.2,13.4c0,0.4,0.1,0.6,0.1,1.1
		c0,0.7-0.5,1.1-1.4,0.9c-1-0.1-1-0.6-1.3-1.5c0-0.1,0-0.1,0-0.2c-0.6-2.4-1.2-4.4-1.7-10.2c-0.1-2.1-0.3-5-0.5-7
		c-0.1-0.2,0-0.4-0.1-0.9c-0.4,0.4-2.5,3.5-2.6,3.8c-1.1,1.6-2.7,3.2-4.4,4.9c-1.1,0.8-2.3,1.6-3.6,1.3c-2.1-0.5-3.6-1.7-3.9-6.2
		c-0.2-1.9,0.5-4.6,1.9-7.5c3-6.9,11.7-2.6,11.7-2c0.6,2.5-4.2-1.8-6.8,0.2c-1.6,1.2-2.1,2.1-2.8,3.7c-1.2,2.4-1.9,4.6-1.3,7.6
		c0,0.2,0.2,0.5,0.3,0.8c0.4,0.5,0.5,1.3,1.1,1.4c2.3,0.5,6.4-6,9-10.2c0.4-0.7,1.2-1.6,1.4-3l0.4-3c0.1-2.2,0-4.4,0.1-5.4
		c0.2-1.6,0.2-3.6,0.5-5.3c0.6-4,1.4-6.2,2-8.1c0.5-1.7,1.4-3,2.1-4.6c0.3-0.6,0.6-1.1,1.1-1.6C238.7,19.9,240.2,20.4,240.4,21.6z
		 M234.5,38.9c0,0.1-0.1,1.9,0,2.1c0.2-0.1,0.7-2,0.7-2.1l2-6.1L239,24c0-0.2,0-0.6,0-0.8C236,25.7,235.2,33,234.5,38.9z"/>
	<path class="st0" d="M268,50.9c-1.2,1.5-7.2,11.6-8.3,13.1c-0.3,0.5-0.6,0.9-1,1.4c-0.8,1.2-1.8,2.2-3.3,2.8
		c-1.8,1-4.8,0.2-5.2-2.2c-0.2-0.6-0.2-1.4-0.2-2.2c-0.1-2.1-0.1-4.2,0.3-6.3c0.3-1.8,0.5-3.6,0.9-5.4c-0.3,0.5-3.5,5.1-7.2,7.8
		c-2.9,2.1-5-0.4-5-3.4c0.1-2.2,1.2-4.3,2.2-6.2c1.1-2,3.4-4.2,6.4-3.4c1,0.2,2.1,0.6,3.1,1.2c0.2,0.1,0.3-0.2,0.6-0.6
		c0.2-0.3,0.9-2.4,2-1.8c1.1,0.2,1,1.2,0.8,2.4c-0.2,1.6-0.5,3.2-0.8,4.8c-0.2,1.4-0.4,3-0.7,4.5c-0.4,2.6-0.5,3.9-0.6,5.7
		c-0.1,1.8,0,2.2,0.4,3.4c0.1,0.2,0.3,0.4,0.6,0.2c1.3-0.2,2.7-1.5,3.8-2.8c1.1-1.3,5.4-7.2,6.5-8.9c0.4-0.5,2-3.5,2.7-4.4
		c0.2-0.4,0.4-0.4,0.8-0.3c0.5,0.1,0.3,0.3,0.8,0.3C267.8,50.7,267.9,50.8,268,50.9z M247.1,48.2c-0.6,0-1,0.1-1.5,0.5
		c-1.3,1-4.8,7-3.8,9.9c0.5,0.1,0.8-0.1,1.1-0.4c2.1-1.8,5.6-5.8,7-8.3C250.1,49.4,248.7,48.4,247.1,48.2z M251.1,52 M251.2,51.7
		c0-0.1,0-0.1,0-0.1V51.7z"/>
	<path class="st0" d="M270.1,24.9c0,0.5-0.4,5.9-0.4,6.4c0,0,1.2-0.4,1.7-0.5c5.4-1.4,10.7-2.4,13-2.8c1.9-0.2,4-0.7,5.8-1.2
		c0.6-0.1,1.1-0.2,1.6-0.2c0.8,0.1,1.1,1.3,0.7,2c-0.4,0.5-1,0.9-1.6,0.9c-0.9,0.1-5.6,0.3-7.7,0.6l-9.4,2.1l-2.3,0.7
		c-0.2,0-1.8,0.5-2,0.6c0,0-0.1,0.1-0.2,1.6c-0.2,3.4-1,11.5-1.2,13.4c-0.7,11.2-1.4,17.4-0.6,20.3c0.2,0.6-1.4,2-2.2-0.1
		c-0.4-1.4-0.8-2.6-0.8-3.9c0-0.8,0-1.6,0.1-2.5c0.2-2.6,0.3-5.4,0.7-7.9c0.4-3.5,1.7-19.8,1.7-20.1c0-0.4-2.1,0.6-2.8,0.8
		c-2.8,0.9-4.4,1.7-7.1,2.9c-0.7,0.3-1.3,0.4-1.8,0.7c-0.3,0.1-0.8,0.1-1-0.4c0-0.2,0.2-0.6,0.3-0.9c0.5-0.4,1-0.8,1.5-1
		c3.1-1.5,5.3-2.3,8.7-3.6l2-0.8c0.2-1.1,0.8-6,1-7.1c0-0.6,1.5-1.4,2-1.2C270,23.9,269.9,24.2,270.1,24.9z"/>
	<path class="st0" d="M284.5,45.4c0.2,0.8-0.1,1.5-0.4,2.1c-1.9,3.5-4.7,4.8-7.4,6.1c-0.8,1.5-1,4.2-0.8,6.1c-0.1,0.2,0,0.4,0,0.6
		c0.2,1.1,1,2.8,2.5,2.8c1.7,0,2.8-0.2,3.9-0.9c4.6-2.4,8.4-6.5,11.3-11.2c0.5-0.8,0.6,0.1,0.7,0.3c0.3,0.9,0.4,0.9,0.1,1.7
		c-2.5,3.9-2.5,3.7-4.3,5.9c-1.7,2-4,3.9-6.4,5c-2.9,1.5-5.9,1.6-7.8,0.2c-5.9-4.1-1.8-14.5,2.6-18.6c1.1-1,2.3-1.8,4-1.8
		C283.7,43.6,284.4,44.4,284.5,45.4z M277.9,50.5c1.4-1,5.8-3,3.8-4.6C280.4,46.1,278.4,49.2,277.9,50.5z"/>
</g>
</svg>
